<mxfile host="Electron" modified="2025-06-04T22:22:34.774Z" agent="Mozilla/5.0 (Windows NT 10.0; Win64; x64) AppleWebKit/537.36 (KHTML, like Gecko) draw.io/24.2.5 Chrome/120.0.6099.109 Electron/28.1.0 Safari/537.36" etag="GpgjTB1Pq-Fmbiqhgf8g" version="24.2.5" type="device" pages="2">
  <diagram name="Page-1" id="nDYfijHN4-5hgb_e-fVe">
    <mxGraphModel dx="3354" dy="1364" grid="1" gridSize="10" guides="1" tooltips="1" connect="1" arrows="1" fold="1" page="1" pageScale="1" pageWidth="850" pageHeight="1100" math="0" shadow="0">
      <root>
        <mxCell id="0" />
        <mxCell id="1" parent="0" />
        <mxCell id="-IZXJxV2rKXwBeA_EH7B-1" style="edgeStyle=orthogonalEdgeStyle;rounded=0;orthogonalLoop=1;jettySize=auto;html=1;exitX=1;exitY=0.5;exitDx=0;exitDy=0;entryX=0;entryY=0.5;entryDx=0;entryDy=0;" parent="1" source="-IZXJxV2rKXwBeA_EH7B-5" target="-IZXJxV2rKXwBeA_EH7B-8" edge="1">
          <mxGeometry relative="1" as="geometry" />
        </mxCell>
        <mxCell id="-IZXJxV2rKXwBeA_EH7B-2" value="EE" style="edgeLabel;html=1;align=center;verticalAlign=middle;resizable=0;points=[];" parent="-IZXJxV2rKXwBeA_EH7B-1" vertex="1" connectable="0">
          <mxGeometry x="0.3" y="6" relative="1" as="geometry">
            <mxPoint as="offset" />
          </mxGeometry>
        </mxCell>
        <mxCell id="-IZXJxV2rKXwBeA_EH7B-3" style="edgeStyle=orthogonalEdgeStyle;rounded=0;orthogonalLoop=1;jettySize=auto;html=1;exitX=1;exitY=0.5;exitDx=0;exitDy=0;entryX=0;entryY=0.5;entryDx=0;entryDy=0;" parent="1" source="-IZXJxV2rKXwBeA_EH7B-5" target="-IZXJxV2rKXwBeA_EH7B-11" edge="1">
          <mxGeometry relative="1" as="geometry" />
        </mxCell>
        <mxCell id="-IZXJxV2rKXwBeA_EH7B-4" value="EE" style="edgeLabel;html=1;align=center;verticalAlign=middle;resizable=0;points=[];" parent="-IZXJxV2rKXwBeA_EH7B-3" vertex="1" connectable="0">
          <mxGeometry x="-0.12" y="-4" relative="1" as="geometry">
            <mxPoint as="offset" />
          </mxGeometry>
        </mxCell>
        <mxCell id="-IZXJxV2rKXwBeA_EH7B-5" value="Import EE" style="rounded=0;whiteSpace=wrap;html=1;" parent="1" vertex="1">
          <mxGeometry x="40" y="200" width="120" height="60" as="geometry" />
        </mxCell>
        <mxCell id="-IZXJxV2rKXwBeA_EH7B-6" style="edgeStyle=orthogonalEdgeStyle;rounded=0;orthogonalLoop=1;jettySize=auto;html=1;exitX=1;exitY=0.5;exitDx=0;exitDy=0;entryX=0;entryY=0.5;entryDx=0;entryDy=0;" parent="1" source="-IZXJxV2rKXwBeA_EH7B-8" target="-IZXJxV2rKXwBeA_EH7B-14" edge="1">
          <mxGeometry relative="1" as="geometry" />
        </mxCell>
        <mxCell id="-IZXJxV2rKXwBeA_EH7B-7" value="EE" style="edgeLabel;html=1;align=center;verticalAlign=middle;resizable=0;points=[];" parent="-IZXJxV2rKXwBeA_EH7B-6" vertex="1" connectable="0">
          <mxGeometry x="-0.2" y="-1" relative="1" as="geometry">
            <mxPoint as="offset" />
          </mxGeometry>
        </mxCell>
        <mxCell id="-IZXJxV2rKXwBeA_EH7B-8" value="Store EE" style="rounded=0;whiteSpace=wrap;html=1;" parent="1" vertex="1">
          <mxGeometry x="240" y="200" width="120" height="60" as="geometry" />
        </mxCell>
        <mxCell id="-IZXJxV2rKXwBeA_EH7B-9" style="edgeStyle=orthogonalEdgeStyle;rounded=0;orthogonalLoop=1;jettySize=auto;html=1;exitX=1;exitY=0.5;exitDx=0;exitDy=0;entryX=0;entryY=0.5;entryDx=0;entryDy=0;" parent="1" source="-IZXJxV2rKXwBeA_EH7B-11" target="-IZXJxV2rKXwBeA_EH7B-37" edge="1">
          <mxGeometry relative="1" as="geometry">
            <mxPoint x="450" y="350" as="targetPoint" />
          </mxGeometry>
        </mxCell>
        <mxCell id="-IZXJxV2rKXwBeA_EH7B-10" value="HE" style="edgeLabel;html=1;align=center;verticalAlign=middle;resizable=0;points=[];" parent="-IZXJxV2rKXwBeA_EH7B-9" vertex="1" connectable="0">
          <mxGeometry x="-0.1823" y="-5" relative="1" as="geometry">
            <mxPoint as="offset" />
          </mxGeometry>
        </mxCell>
        <mxCell id="-IZXJxV2rKXwBeA_EH7B-11" value="Convert EE to HE" style="rounded=0;whiteSpace=wrap;html=1;" parent="1" vertex="1">
          <mxGeometry x="240" y="320" width="120" height="60" as="geometry" />
        </mxCell>
        <mxCell id="-IZXJxV2rKXwBeA_EH7B-12" style="edgeStyle=orthogonalEdgeStyle;rounded=0;orthogonalLoop=1;jettySize=auto;html=1;exitX=1;exitY=0.5;exitDx=0;exitDy=0;" parent="1" source="-IZXJxV2rKXwBeA_EH7B-14" edge="1">
          <mxGeometry relative="1" as="geometry">
            <mxPoint x="560" y="230" as="targetPoint" />
          </mxGeometry>
        </mxCell>
        <mxCell id="-IZXJxV2rKXwBeA_EH7B-13" value="EE" style="edgeLabel;html=1;align=center;verticalAlign=middle;resizable=0;points=[];" parent="-IZXJxV2rKXwBeA_EH7B-12" vertex="1" connectable="0">
          <mxGeometry x="-0.21" y="-1" relative="1" as="geometry">
            <mxPoint as="offset" />
          </mxGeometry>
        </mxCell>
        <mxCell id="-IZXJxV2rKXwBeA_EH7B-14" value="Modulate EE" style="rounded=0;whiteSpace=wrap;html=1;" parent="1" vertex="1">
          <mxGeometry x="400" y="200" width="120" height="60" as="geometry" />
        </mxCell>
        <mxCell id="-IZXJxV2rKXwBeA_EH7B-15" style="edgeStyle=orthogonalEdgeStyle;rounded=0;orthogonalLoop=1;jettySize=auto;html=1;exitX=0.5;exitY=0;exitDx=0;exitDy=0;entryX=0;entryY=0.5;entryDx=0;entryDy=0;endArrow=none;endFill=0;startArrow=diamondThin;startFill=0;" parent="1" source="-IZXJxV2rKXwBeA_EH7B-19" target="-IZXJxV2rKXwBeA_EH7B-20" edge="1">
          <mxGeometry relative="1" as="geometry" />
        </mxCell>
        <mxCell id="-IZXJxV2rKXwBeA_EH7B-16" value="supplies" style="edgeLabel;html=1;align=center;verticalAlign=middle;resizable=0;points=[];" parent="-IZXJxV2rKXwBeA_EH7B-15" vertex="1" connectable="0">
          <mxGeometry x="-0.592" y="-10" relative="1" as="geometry">
            <mxPoint as="offset" />
          </mxGeometry>
        </mxCell>
        <mxCell id="-IZXJxV2rKXwBeA_EH7B-17" value="contains" style="edgeStyle=orthogonalEdgeStyle;rounded=0;orthogonalLoop=1;jettySize=auto;html=1;exitX=0.5;exitY=1;exitDx=0;exitDy=0;entryX=0;entryY=0.5;entryDx=0;entryDy=0;endArrow=none;endFill=0;startArrow=diamondThin;startFill=0;" parent="1" source="-IZXJxV2rKXwBeA_EH7B-19" target="-IZXJxV2rKXwBeA_EH7B-21" edge="1">
          <mxGeometry relative="1" as="geometry" />
        </mxCell>
        <mxCell id="-IZXJxV2rKXwBeA_EH7B-18" value="new voltage" style="rounded=0;orthogonalLoop=1;jettySize=auto;html=1;exitX=0.75;exitY=1;exitDx=0;exitDy=0;dashed=1;endArrow=open;endFill=0;startArrow=none;startFill=0;entryX=0.006;entryY=0.178;entryDx=0;entryDy=0;entryPerimeter=0;" parent="1" source="-IZXJxV2rKXwBeA_EH7B-19" target="-IZXJxV2rKXwBeA_EH7B-34" edge="1">
          <mxGeometry x="0.4562" y="5" relative="1" as="geometry">
            <mxPoint x="972" y="388" as="targetPoint" />
            <mxPoint as="offset" />
          </mxGeometry>
        </mxCell>
        <mxCell id="-IZXJxV2rKXwBeA_EH7B-19" value="Import EE&lt;div&gt;&amp;lt;Physical&amp;gt;&lt;br&gt;&lt;/div&gt;" style="rounded=0;whiteSpace=wrap;html=1;" parent="1" vertex="1">
          <mxGeometry x="762" y="288" width="120" height="60" as="geometry" />
        </mxCell>
        <mxCell id="-IZXJxV2rKXwBeA_EH7B-20" value="EE_1&lt;div&gt;&amp;lt;Power&amp;gt;&lt;/div&gt;" style="ellipse;whiteSpace=wrap;html=1;aspect=fixed;" parent="1" vertex="1">
          <mxGeometry x="992" y="168" width="80" height="80" as="geometry" />
        </mxCell>
        <mxCell id="-IZXJxV2rKXwBeA_EH7B-21" value="EE_2&lt;div&gt;&amp;lt;Heat&amp;gt;&lt;br&gt;&lt;/div&gt;" style="ellipse;whiteSpace=wrap;html=1;aspect=fixed;" parent="1" vertex="1">
          <mxGeometry x="842" y="448" width="80" height="80" as="geometry" />
        </mxCell>
        <mxCell id="-IZXJxV2rKXwBeA_EH7B-22" value="HE&lt;div&gt;&amp;lt;Heat&amp;gt;&lt;/div&gt;" style="ellipse;whiteSpace=wrap;html=1;aspect=fixed;" parent="1" vertex="1">
          <mxGeometry x="1102" y="458" width="80" height="80" as="geometry" />
        </mxCell>
        <mxCell id="-IZXJxV2rKXwBeA_EH7B-23" style="edgeStyle=orthogonalEdgeStyle;rounded=0;orthogonalLoop=1;jettySize=auto;html=1;exitX=0.5;exitY=0;exitDx=0;exitDy=0;entryX=0.5;entryY=1;entryDx=0;entryDy=0;endArrow=none;endFill=0;startArrow=diamondThin;startFill=0;" parent="1" source="-IZXJxV2rKXwBeA_EH7B-26" target="-IZXJxV2rKXwBeA_EH7B-20" edge="1">
          <mxGeometry relative="1" as="geometry" />
        </mxCell>
        <mxCell id="-IZXJxV2rKXwBeA_EH7B-24" value="modifies" style="edgeLabel;html=1;align=center;verticalAlign=middle;resizable=0;points=[];" parent="-IZXJxV2rKXwBeA_EH7B-23" vertex="1" connectable="0">
          <mxGeometry x="-0.15" y="-3" relative="1" as="geometry">
            <mxPoint as="offset" />
          </mxGeometry>
        </mxCell>
        <mxCell id="-IZXJxV2rKXwBeA_EH7B-26" value="Store EE&lt;div&gt;&amp;lt;Physical&amp;gt;&lt;br&gt;&lt;/div&gt;" style="rounded=0;whiteSpace=wrap;html=1;" parent="1" vertex="1">
          <mxGeometry x="972" y="288" width="120" height="60" as="geometry" />
        </mxCell>
        <mxCell id="-IZXJxV2rKXwBeA_EH7B-27" style="edgeStyle=orthogonalEdgeStyle;rounded=0;orthogonalLoop=1;jettySize=auto;html=1;exitX=0.25;exitY=0;exitDx=0;exitDy=0;entryX=1;entryY=0.5;entryDx=0;entryDy=0;endArrow=none;endFill=0;startArrow=diamondThin;startFill=0;" parent="1" source="-IZXJxV2rKXwBeA_EH7B-31" target="-IZXJxV2rKXwBeA_EH7B-20" edge="1">
          <mxGeometry relative="1" as="geometry" />
        </mxCell>
        <mxCell id="-IZXJxV2rKXwBeA_EH7B-28" value="uses" style="edgeLabel;html=1;align=center;verticalAlign=middle;resizable=0;points=[];" parent="-IZXJxV2rKXwBeA_EH7B-27" vertex="1" connectable="0">
          <mxGeometry x="-0.6435" y="4" relative="1" as="geometry">
            <mxPoint as="offset" />
          </mxGeometry>
        </mxCell>
        <mxCell id="-IZXJxV2rKXwBeA_EH7B-29" style="edgeStyle=orthogonalEdgeStyle;rounded=0;orthogonalLoop=1;jettySize=auto;html=1;exitX=0.75;exitY=0;exitDx=0;exitDy=0;entryX=0;entryY=0.5;entryDx=0;entryDy=0;endArrow=none;endFill=0;startArrow=diamondThin;startFill=0;" parent="1" source="-IZXJxV2rKXwBeA_EH7B-31" target="-IZXJxV2rKXwBeA_EH7B-35" edge="1">
          <mxGeometry relative="1" as="geometry" />
        </mxCell>
        <mxCell id="-IZXJxV2rKXwBeA_EH7B-30" value="supplies" style="edgeLabel;html=1;align=center;verticalAlign=middle;resizable=0;points=[];" parent="-IZXJxV2rKXwBeA_EH7B-29" vertex="1" connectable="0">
          <mxGeometry x="-0.1333" y="1" relative="1" as="geometry">
            <mxPoint x="1" y="21" as="offset" />
          </mxGeometry>
        </mxCell>
        <mxCell id="-IZXJxV2rKXwBeA_EH7B-31" value="Modulate EE&lt;div&gt;&amp;lt;Physical, Logical&amp;gt;&lt;br&gt;&lt;/div&gt;" style="rounded=0;whiteSpace=wrap;html=1;" parent="1" vertex="1">
          <mxGeometry x="1162" y="288" width="120" height="60" as="geometry" />
        </mxCell>
        <mxCell id="-IZXJxV2rKXwBeA_EH7B-32" value="contains" style="edgeStyle=orthogonalEdgeStyle;rounded=0;orthogonalLoop=1;jettySize=auto;html=1;exitX=0.25;exitY=1;exitDx=0;exitDy=0;endArrow=none;endFill=0;startArrow=diamondThin;startFill=0;" parent="1" source="-IZXJxV2rKXwBeA_EH7B-34" target="-IZXJxV2rKXwBeA_EH7B-21" edge="1">
          <mxGeometry relative="1" as="geometry" />
        </mxCell>
        <mxCell id="-IZXJxV2rKXwBeA_EH7B-33" value="contains" style="edgeStyle=orthogonalEdgeStyle;rounded=0;orthogonalLoop=1;jettySize=auto;html=1;exitX=0.75;exitY=1;exitDx=0;exitDy=0;entryX=0;entryY=0.5;entryDx=0;entryDy=0;endArrow=none;endFill=0;startArrow=diamondThin;startFill=0;" parent="1" source="-IZXJxV2rKXwBeA_EH7B-34" target="-IZXJxV2rKXwBeA_EH7B-22" edge="1">
          <mxGeometry relative="1" as="geometry" />
        </mxCell>
        <mxCell id="-IZXJxV2rKXwBeA_EH7B-34" value="Convert EE to HE&lt;div&gt;&amp;lt;Physical&amp;gt;&lt;br&gt;&lt;/div&gt;" style="rounded=0;whiteSpace=wrap;html=1;" parent="1" vertex="1">
          <mxGeometry x="972" y="398" width="120" height="60" as="geometry" />
        </mxCell>
        <mxCell id="-IZXJxV2rKXwBeA_EH7B-35" value="EE_1_out&lt;div&gt;&amp;lt;Power&amp;gt;&lt;br&gt;&lt;/div&gt;" style="ellipse;whiteSpace=wrap;html=1;aspect=fixed;" parent="1" vertex="1">
          <mxGeometry x="1302" y="168" width="80" height="80" as="geometry" />
        </mxCell>
        <mxCell id="-IZXJxV2rKXwBeA_EH7B-36" value="Export EE" style="rounded=0;whiteSpace=wrap;html=1;" parent="1" vertex="1">
          <mxGeometry x="560" y="200" width="120" height="60" as="geometry" />
        </mxCell>
        <mxCell id="-IZXJxV2rKXwBeA_EH7B-37" value="Export HE" style="rounded=0;whiteSpace=wrap;html=1;" parent="1" vertex="1">
          <mxGeometry x="400" y="320" width="120" height="60" as="geometry" />
        </mxCell>
        <mxCell id="-IZXJxV2rKXwBeA_EH7B-38" value="uses" style="edgeStyle=orthogonalEdgeStyle;rounded=0;orthogonalLoop=1;jettySize=auto;html=1;exitX=0.5;exitY=0;exitDx=0;exitDy=0;entryX=1;entryY=0.5;entryDx=0;entryDy=0;endArrow=none;endFill=0;startArrow=diamondThin;startFill=0;" parent="1" source="-IZXJxV2rKXwBeA_EH7B-39" target="-IZXJxV2rKXwBeA_EH7B-35" edge="1">
          <mxGeometry x="-0.2725" relative="1" as="geometry">
            <mxPoint as="offset" />
          </mxGeometry>
        </mxCell>
        <mxCell id="-IZXJxV2rKXwBeA_EH7B-39" value="Export EE&lt;div&gt;&amp;lt;Physical&amp;gt;&lt;br&gt;&lt;/div&gt;" style="rounded=0;whiteSpace=wrap;html=1;" parent="1" vertex="1">
          <mxGeometry x="1362" y="288" width="120" height="60" as="geometry" />
        </mxCell>
        <mxCell id="-IZXJxV2rKXwBeA_EH7B-40" value="contains" style="edgeStyle=orthogonalEdgeStyle;rounded=0;orthogonalLoop=1;jettySize=auto;html=1;exitX=0.5;exitY=1;exitDx=0;exitDy=0;entryX=1;entryY=0.5;entryDx=0;entryDy=0;endArrow=none;endFill=0;startArrow=diamondThin;startFill=0;" parent="1" source="-IZXJxV2rKXwBeA_EH7B-41" target="-IZXJxV2rKXwBeA_EH7B-22" edge="1">
          <mxGeometry relative="1" as="geometry" />
        </mxCell>
        <mxCell id="-IZXJxV2rKXwBeA_EH7B-41" value="Export HE&lt;div&gt;&amp;lt;Physical&amp;gt;&lt;br&gt;&lt;/div&gt;" style="rounded=0;whiteSpace=wrap;html=1;" parent="1" vertex="1">
          <mxGeometry x="1172" y="398" width="120" height="60" as="geometry" />
        </mxCell>
        <mxCell id="-IZXJxV2rKXwBeA_EH7B-42" style="rounded=0;orthogonalLoop=1;jettySize=auto;html=1;exitX=0;exitY=0.5;exitDx=0;exitDy=0;entryX=0.5;entryY=1;entryDx=0;entryDy=0;endArrow=open;endFill=0;dashed=1;" parent="1" source="-IZXJxV2rKXwBeA_EH7B-34" target="-IZXJxV2rKXwBeA_EH7B-19" edge="1">
          <mxGeometry relative="1" as="geometry" />
        </mxCell>
        <mxCell id="-IZXJxV2rKXwBeA_EH7B-43" value="new&lt;br&gt;current" style="edgeLabel;html=1;align=center;verticalAlign=middle;resizable=0;points=[];" parent="-IZXJxV2rKXwBeA_EH7B-42" vertex="1" connectable="0">
          <mxGeometry x="-0.1525" y="2" relative="1" as="geometry">
            <mxPoint x="-35" y="-8" as="offset" />
          </mxGeometry>
        </mxCell>
        <mxCell id="-IZXJxV2rKXwBeA_EH7B-44" style="rounded=0;orthogonalLoop=1;jettySize=auto;html=1;exitX=0;exitY=0.75;exitDx=0;exitDy=0;entryX=1;entryY=0.75;entryDx=0;entryDy=0;endArrow=open;endFill=0;dashed=1;" parent="1" source="-IZXJxV2rKXwBeA_EH7B-26" target="-IZXJxV2rKXwBeA_EH7B-19" edge="1">
          <mxGeometry relative="1" as="geometry">
            <mxPoint x="1012" y="408" as="sourcePoint" />
            <mxPoint x="922" y="298" as="targetPoint" />
          </mxGeometry>
        </mxCell>
        <mxCell id="-IZXJxV2rKXwBeA_EH7B-45" value="new current" style="edgeLabel;html=1;align=center;verticalAlign=middle;resizable=0;points=[];" parent="-IZXJxV2rKXwBeA_EH7B-44" vertex="1" connectable="0">
          <mxGeometry x="-0.1525" y="2" relative="1" as="geometry">
            <mxPoint x="-2" y="-2" as="offset" />
          </mxGeometry>
        </mxCell>
        <mxCell id="-IZXJxV2rKXwBeA_EH7B-46" value="new voltage" style="rounded=0;orthogonalLoop=1;jettySize=auto;html=1;exitX=1;exitY=0.25;exitDx=0;exitDy=0;entryX=0;entryY=0.25;entryDx=0;entryDy=0;endArrow=open;endFill=0;dashed=1;" parent="1" source="-IZXJxV2rKXwBeA_EH7B-19" target="-IZXJxV2rKXwBeA_EH7B-26" edge="1">
          <mxGeometry relative="1" as="geometry">
            <mxPoint x="902" y="308" as="sourcePoint" />
            <mxPoint x="992" y="308" as="targetPoint" />
          </mxGeometry>
        </mxCell>
        <mxCell id="-IZXJxV2rKXwBeA_EH7B-47" style="rounded=0;orthogonalLoop=1;jettySize=auto;html=1;exitX=1;exitY=0.25;exitDx=0;exitDy=0;entryX=0;entryY=0.25;entryDx=0;entryDy=0;endArrow=open;endFill=0;dashed=1;" parent="1" source="-IZXJxV2rKXwBeA_EH7B-26" target="-IZXJxV2rKXwBeA_EH7B-31" edge="1">
          <mxGeometry relative="1" as="geometry">
            <mxPoint x="1102" y="388" as="sourcePoint" />
            <mxPoint x="1202" y="388" as="targetPoint" />
          </mxGeometry>
        </mxCell>
        <mxCell id="-IZXJxV2rKXwBeA_EH7B-48" value="new&lt;br&gt;voltage" style="edgeLabel;html=1;align=center;verticalAlign=middle;resizable=0;points=[];" parent="-IZXJxV2rKXwBeA_EH7B-47" vertex="1" connectable="0">
          <mxGeometry x="-0.1525" y="2" relative="1" as="geometry">
            <mxPoint x="2" y="-3" as="offset" />
          </mxGeometry>
        </mxCell>
        <mxCell id="-IZXJxV2rKXwBeA_EH7B-49" style="rounded=0;orthogonalLoop=1;jettySize=auto;html=1;exitX=0;exitY=0.75;exitDx=0;exitDy=0;entryX=1;entryY=0.75;entryDx=0;entryDy=0;endArrow=open;endFill=0;dashed=1;" parent="1" source="-IZXJxV2rKXwBeA_EH7B-31" target="-IZXJxV2rKXwBeA_EH7B-26" edge="1">
          <mxGeometry relative="1" as="geometry">
            <mxPoint x="1172" y="368" as="sourcePoint" />
            <mxPoint x="1082" y="368" as="targetPoint" />
          </mxGeometry>
        </mxCell>
        <mxCell id="-IZXJxV2rKXwBeA_EH7B-50" value="new&lt;br&gt;current" style="edgeLabel;html=1;align=center;verticalAlign=middle;resizable=0;points=[];" parent="-IZXJxV2rKXwBeA_EH7B-49" vertex="1" connectable="0">
          <mxGeometry x="-0.1525" y="2" relative="1" as="geometry">
            <mxPoint y="-2" as="offset" />
          </mxGeometry>
        </mxCell>
        <mxCell id="-IZXJxV2rKXwBeA_EH7B-51" style="rounded=0;orthogonalLoop=1;jettySize=auto;html=1;exitX=0;exitY=0.75;exitDx=0;exitDy=0;entryX=1;entryY=0.75;entryDx=0;entryDy=0;endArrow=open;endFill=0;dashed=1;" parent="1" source="-IZXJxV2rKXwBeA_EH7B-39" target="-IZXJxV2rKXwBeA_EH7B-31" edge="1">
          <mxGeometry relative="1" as="geometry">
            <mxPoint x="1362" y="368" as="sourcePoint" />
            <mxPoint x="1272" y="368" as="targetPoint" />
          </mxGeometry>
        </mxCell>
        <mxCell id="-IZXJxV2rKXwBeA_EH7B-52" value="new&amp;nbsp;&lt;br&gt;current" style="edgeLabel;html=1;align=center;verticalAlign=middle;resizable=0;points=[];" parent="-IZXJxV2rKXwBeA_EH7B-51" vertex="1" connectable="0">
          <mxGeometry x="-0.1525" y="2" relative="1" as="geometry">
            <mxPoint x="-12" y="-2" as="offset" />
          </mxGeometry>
        </mxCell>
        <mxCell id="-IZXJxV2rKXwBeA_EH7B-53" style="rounded=0;orthogonalLoop=1;jettySize=auto;html=1;exitX=1;exitY=0.25;exitDx=0;exitDy=0;entryX=0;entryY=0.25;entryDx=0;entryDy=0;endArrow=open;endFill=0;dashed=1;" parent="1" source="-IZXJxV2rKXwBeA_EH7B-31" target="-IZXJxV2rKXwBeA_EH7B-39" edge="1">
          <mxGeometry relative="1" as="geometry">
            <mxPoint x="1292" y="278" as="sourcePoint" />
            <mxPoint x="1362" y="278" as="targetPoint" />
          </mxGeometry>
        </mxCell>
        <mxCell id="-IZXJxV2rKXwBeA_EH7B-54" value="new &lt;br&gt;voltage" style="edgeLabel;html=1;align=center;verticalAlign=middle;resizable=0;points=[];" parent="-IZXJxV2rKXwBeA_EH7B-53" vertex="1" connectable="0">
          <mxGeometry x="-0.1525" y="2" relative="1" as="geometry">
            <mxPoint x="2" y="-3" as="offset" />
          </mxGeometry>
        </mxCell>
        <mxCell id="-IZXJxV2rKXwBeA_EH7B-55" value="new&lt;br&gt;heat" style="rounded=0;orthogonalLoop=1;jettySize=auto;html=1;exitX=1;exitY=0.5;exitDx=0;exitDy=0;dashed=1;endArrow=open;endFill=0;startArrow=none;startFill=0;entryX=0;entryY=0.5;entryDx=0;entryDy=0;" parent="1" source="-IZXJxV2rKXwBeA_EH7B-34" target="-IZXJxV2rKXwBeA_EH7B-41" edge="1">
          <mxGeometry x="0.0174" y="-2" relative="1" as="geometry">
            <mxPoint x="1212" y="395.5" as="sourcePoint" />
            <mxPoint x="1332" y="460.5" as="targetPoint" />
            <mxPoint as="offset" />
            <Array as="points" />
          </mxGeometry>
        </mxCell>
        <mxCell id="-IZXJxV2rKXwBeA_EH7B-56" value="&lt;b&gt;ED&lt;/b&gt;" style="rounded=0;whiteSpace=wrap;html=1;" parent="1" vertex="1">
          <mxGeometry x="1272" y="438" width="20" height="20" as="geometry" />
        </mxCell>
        <mxCell id="-IZXJxV2rKXwBeA_EH7B-57" value="&lt;b&gt;IS&lt;/b&gt;" style="rounded=0;whiteSpace=wrap;html=1;" parent="1" vertex="1">
          <mxGeometry x="1072" y="438" width="20" height="20" as="geometry" />
        </mxCell>
        <mxCell id="-IZXJxV2rKXwBeA_EH7B-58" value="&lt;b&gt;IR&lt;/b&gt;" style="rounded=0;whiteSpace=wrap;html=1;" parent="1" vertex="1">
          <mxGeometry x="1462" y="328" width="20" height="20" as="geometry" />
        </mxCell>
        <mxCell id="-IZXJxV2rKXwBeA_EH7B-59" value="&lt;b&gt;IR&lt;/b&gt;" style="rounded=0;whiteSpace=wrap;html=1;" parent="1" vertex="1">
          <mxGeometry x="1262" y="328" width="20" height="20" as="geometry" />
        </mxCell>
        <mxCell id="-IZXJxV2rKXwBeA_EH7B-60" value="&lt;b&gt;IR&lt;/b&gt;" style="rounded=0;whiteSpace=wrap;html=1;" parent="1" vertex="1">
          <mxGeometry x="1072" y="328" width="20" height="20" as="geometry" />
        </mxCell>
        <mxCell id="-IZXJxV2rKXwBeA_EH7B-61" value="&lt;b&gt;IR&lt;/b&gt;" style="rounded=0;whiteSpace=wrap;html=1;" parent="1" vertex="1">
          <mxGeometry x="862" y="328" width="20" height="20" as="geometry" />
        </mxCell>
        <mxCell id="-IZXJxV2rKXwBeA_EH7B-62" value="no new states" style="shape=offPageConnector;whiteSpace=wrap;html=1;" parent="1" vertex="1">
          <mxGeometry x="1322.5" y="378" width="50" height="40" as="geometry" />
        </mxCell>
        <mxCell id="-IZXJxV2rKXwBeA_EH7B-63" style="edgeStyle=orthogonalEdgeStyle;rounded=0;orthogonalLoop=1;jettySize=auto;html=1;exitX=0;exitY=0;exitDx=0;exitDy=0;entryX=1;entryY=0;entryDx=0;entryDy=0;endArrow=ERoneToMany;endFill=0;" parent="1" source="-IZXJxV2rKXwBeA_EH7B-62" target="-IZXJxV2rKXwBeA_EH7B-62" edge="1">
          <mxGeometry relative="1" as="geometry">
            <mxPoint x="1327.5" y="363" as="targetPoint" />
            <Array as="points">
              <mxPoint x="1342.5" y="378" />
              <mxPoint x="1342.5" y="378" />
            </Array>
            <mxPoint x="1312.5" y="363" as="sourcePoint" />
          </mxGeometry>
        </mxCell>
        <mxCell id="-IZXJxV2rKXwBeA_EH7B-64" value="" style="group" parent="1" vertex="1" connectable="0">
          <mxGeometry x="762" y="288" width="40" height="20" as="geometry" />
        </mxCell>
        <mxCell id="-IZXJxV2rKXwBeA_EH7B-65" value="0::out" style="shape=offPageConnector;whiteSpace=wrap;html=1;" parent="-IZXJxV2rKXwBeA_EH7B-64" vertex="1">
          <mxGeometry width="40" height="20" as="geometry" />
        </mxCell>
        <mxCell id="-IZXJxV2rKXwBeA_EH7B-66" style="edgeStyle=orthogonalEdgeStyle;rounded=0;orthogonalLoop=1;jettySize=auto;html=1;exitX=0;exitY=0;exitDx=0;exitDy=0;entryX=0.75;entryY=0;entryDx=0;entryDy=0;startArrow=baseDash;startFill=0;" parent="-IZXJxV2rKXwBeA_EH7B-64" edge="1">
          <mxGeometry relative="1" as="geometry">
            <mxPoint x="22.5" as="targetPoint" />
            <Array as="points" />
            <mxPoint as="sourcePoint" />
          </mxGeometry>
        </mxCell>
        <mxCell id="-IZXJxV2rKXwBeA_EH7B-67" value="[new voltage]&amp;gt;o&lt;br&gt;(new current)&amp;gt;&lt;b style=&quot;border: 0px; margin: 0px; padding: 0px; outline: 0px; vertical-align: baseline; background-image: initial; background-position: 0px 0px; background-size: initial; background-repeat: initial; background-attachment: initial; background-origin: initial; background-clip: initial; text-align: justify;&quot;&gt;□&lt;/b&gt;" style="edgeStyle=orthogonalEdgeStyle;rounded=0;orthogonalLoop=1;jettySize=auto;html=1;exitX=0.5;exitY=1;exitDx=0;exitDy=0;entryX=0;entryY=0.5;entryDx=0;entryDy=0;startArrow=classic;startFill=1;" parent="1" source="-IZXJxV2rKXwBeA_EH7B-68" target="-IZXJxV2rKXwBeA_EH7B-70" edge="1">
          <mxGeometry x="-0.0667" relative="1" as="geometry">
            <mxPoint as="offset" />
          </mxGeometry>
        </mxCell>
        <mxCell id="-IZXJxV2rKXwBeA_EH7B-68" value="Import EE&lt;div&gt;&amp;lt;Physical&amp;gt;&lt;/div&gt;" style="rounded=0;whiteSpace=wrap;html=1;" parent="1" vertex="1">
          <mxGeometry x="762" y="728" width="120" height="60" as="geometry" />
        </mxCell>
        <mxCell id="-IZXJxV2rKXwBeA_EH7B-69" value="EE_1&lt;div&gt;&amp;lt;Power&amp;gt;&lt;/div&gt;" style="ellipse;whiteSpace=wrap;html=1;aspect=fixed;" parent="1" vertex="1">
          <mxGeometry x="992" y="608" width="80" height="80" as="geometry" />
        </mxCell>
        <mxCell id="-IZXJxV2rKXwBeA_EH7B-70" value="EE_2&lt;div&gt;&amp;lt;Power&amp;gt;&lt;br&gt;&lt;/div&gt;" style="ellipse;whiteSpace=wrap;html=1;aspect=fixed;" parent="1" vertex="1">
          <mxGeometry x="792" y="828" width="80" height="80" as="geometry" />
        </mxCell>
        <mxCell id="-IZXJxV2rKXwBeA_EH7B-71" value="HE&lt;div&gt;&amp;lt;Heat&amp;gt;&lt;br&gt;&lt;/div&gt;" style="ellipse;whiteSpace=wrap;html=1;aspect=fixed;" parent="1" vertex="1">
          <mxGeometry x="1102" y="898" width="80" height="80" as="geometry" />
        </mxCell>
        <mxCell id="-IZXJxV2rKXwBeA_EH7B-72" value="Store EE&lt;div&gt;&amp;lt;Physical&amp;gt;&lt;br&gt;&lt;/div&gt;" style="rounded=0;whiteSpace=wrap;html=1;" parent="1" vertex="1">
          <mxGeometry x="972" y="728" width="120" height="60" as="geometry" />
        </mxCell>
        <mxCell id="-IZXJxV2rKXwBeA_EH7B-73" value="Modulate EE&lt;div&gt;&amp;lt;Physical, Logical&amp;gt;&lt;br&gt;&lt;/div&gt;" style="rounded=0;whiteSpace=wrap;html=1;" parent="1" vertex="1">
          <mxGeometry x="1162" y="728" width="120" height="60" as="geometry" />
        </mxCell>
        <mxCell id="-IZXJxV2rKXwBeA_EH7B-74" value="[new current]&amp;gt;o&lt;br&gt;(new voltage)&amp;gt;&lt;b style=&quot;border: 0px; margin: 0px; padding: 0px; outline: 0px; vertical-align: baseline; background-image: initial; background-position: 0px 0px; background-size: initial; background-repeat: initial; background-attachment: initial; background-origin: initial; background-clip: initial; text-align: justify;&quot;&gt;□&lt;/b&gt;" style="edgeStyle=orthogonalEdgeStyle;rounded=0;orthogonalLoop=1;jettySize=auto;html=1;exitX=0;exitY=0.5;exitDx=0;exitDy=0;startArrow=classic;startFill=1;" parent="1" source="-IZXJxV2rKXwBeA_EH7B-75" target="-IZXJxV2rKXwBeA_EH7B-70" edge="1">
          <mxGeometry relative="1" as="geometry" />
        </mxCell>
        <mxCell id="-IZXJxV2rKXwBeA_EH7B-75" value="Convert EE to HE&lt;div&gt;&amp;lt;Physical&amp;gt;&lt;br&gt;&lt;/div&gt;" style="rounded=0;whiteSpace=wrap;html=1;" parent="1" vertex="1">
          <mxGeometry x="972" y="838" width="120" height="60" as="geometry" />
        </mxCell>
        <mxCell id="-IZXJxV2rKXwBeA_EH7B-76" value="EE_1_out&lt;div&gt;&amp;lt;Power&amp;gt;&lt;br&gt;&lt;/div&gt;" style="ellipse;whiteSpace=wrap;html=1;aspect=fixed;" parent="1" vertex="1">
          <mxGeometry x="1302" y="608" width="80" height="80" as="geometry" />
        </mxCell>
        <mxCell id="-IZXJxV2rKXwBeA_EH7B-77" value="Export EE&lt;div&gt;&amp;lt;Physical&amp;gt;&lt;br&gt;&lt;/div&gt;" style="rounded=0;whiteSpace=wrap;html=1;" parent="1" vertex="1">
          <mxGeometry x="1362" y="728" width="120" height="60" as="geometry" />
        </mxCell>
        <mxCell id="-IZXJxV2rKXwBeA_EH7B-78" value="Export HE&lt;div&gt;&amp;lt;Physical&amp;gt;&lt;br&gt;&lt;/div&gt;" style="rounded=0;whiteSpace=wrap;html=1;" parent="1" vertex="1">
          <mxGeometry x="1172" y="838" width="120" height="60" as="geometry" />
        </mxCell>
        <mxCell id="-IZXJxV2rKXwBeA_EH7B-79" value="&lt;b&gt;ED&lt;/b&gt;" style="rounded=0;whiteSpace=wrap;html=1;" parent="1" vertex="1">
          <mxGeometry x="1272" y="878" width="20" height="20" as="geometry" />
        </mxCell>
        <mxCell id="-IZXJxV2rKXwBeA_EH7B-80" value="&lt;b&gt;IS&lt;/b&gt;" style="rounded=0;whiteSpace=wrap;html=1;" parent="1" vertex="1">
          <mxGeometry x="1072" y="878" width="20" height="20" as="geometry" />
        </mxCell>
        <mxCell id="-IZXJxV2rKXwBeA_EH7B-81" value="&lt;b&gt;IR&lt;/b&gt;" style="rounded=0;whiteSpace=wrap;html=1;" parent="1" vertex="1">
          <mxGeometry x="1462" y="768" width="20" height="20" as="geometry" />
        </mxCell>
        <mxCell id="-IZXJxV2rKXwBeA_EH7B-82" value="&lt;b&gt;IR&lt;/b&gt;" style="rounded=0;whiteSpace=wrap;html=1;" parent="1" vertex="1">
          <mxGeometry x="1262" y="768" width="20" height="20" as="geometry" />
        </mxCell>
        <mxCell id="-IZXJxV2rKXwBeA_EH7B-83" value="&lt;b&gt;IR&lt;/b&gt;" style="rounded=0;whiteSpace=wrap;html=1;" parent="1" vertex="1">
          <mxGeometry x="1072" y="768" width="20" height="20" as="geometry" />
        </mxCell>
        <mxCell id="-IZXJxV2rKXwBeA_EH7B-84" value="&lt;b&gt;IR&lt;/b&gt;" style="rounded=0;whiteSpace=wrap;html=1;" parent="1" vertex="1">
          <mxGeometry x="862" y="768" width="20" height="20" as="geometry" />
        </mxCell>
        <mxCell id="-IZXJxV2rKXwBeA_EH7B-85" value="" style="group" parent="1" vertex="1" connectable="0">
          <mxGeometry x="762" y="728" width="40" height="20" as="geometry" />
        </mxCell>
        <mxCell id="-IZXJxV2rKXwBeA_EH7B-86" value="0::out" style="shape=offPageConnector;whiteSpace=wrap;html=1;" parent="-IZXJxV2rKXwBeA_EH7B-85" vertex="1">
          <mxGeometry width="40" height="20" as="geometry" />
        </mxCell>
        <mxCell id="-IZXJxV2rKXwBeA_EH7B-87" style="edgeStyle=orthogonalEdgeStyle;rounded=0;orthogonalLoop=1;jettySize=auto;html=1;exitX=0;exitY=0;exitDx=0;exitDy=0;entryX=0.75;entryY=0;entryDx=0;entryDy=0;startArrow=baseDash;startFill=0;" parent="-IZXJxV2rKXwBeA_EH7B-85" edge="1">
          <mxGeometry relative="1" as="geometry">
            <mxPoint x="22.5" as="targetPoint" />
            <Array as="points" />
            <mxPoint as="sourcePoint" />
          </mxGeometry>
        </mxCell>
        <mxCell id="-IZXJxV2rKXwBeA_EH7B-88" value="[new current]&amp;gt;o&lt;br&gt;(new voltage)&amp;gt;&lt;b style=&quot;border: 0px; margin: 0px; padding: 0px; outline: 0px; vertical-align: baseline; background-image: initial; background-position: 0px 0px; background-size: initial; background-repeat: initial; background-attachment: initial; background-origin: initial; background-clip: initial; text-align: justify;&quot;&gt;□&lt;/b&gt;" style="edgeStyle=orthogonalEdgeStyle;rounded=0;orthogonalLoop=1;jettySize=auto;html=1;exitX=0.5;exitY=0;exitDx=0;exitDy=0;startArrow=classic;startFill=1;entryX=0.5;entryY=1;entryDx=0;entryDy=0;" parent="1" source="-IZXJxV2rKXwBeA_EH7B-72" target="-IZXJxV2rKXwBeA_EH7B-69" edge="1">
          <mxGeometry relative="1" as="geometry">
            <mxPoint x="992" y="888" as="sourcePoint" />
            <mxPoint x="952" y="668" as="targetPoint" />
          </mxGeometry>
        </mxCell>
        <mxCell id="-IZXJxV2rKXwBeA_EH7B-89" value="[new voltage]&amp;gt;o&lt;br&gt;(new current)&amp;gt;&lt;b style=&quot;border: 0px; margin: 0px; padding: 0px; outline: 0px; vertical-align: baseline; background-image: initial; background-position: 0px 0px; background-size: initial; background-repeat: initial; background-attachment: initial; background-origin: initial; background-clip: initial; text-align: justify;&quot;&gt;□&lt;/b&gt;" style="edgeStyle=orthogonalEdgeStyle;rounded=0;orthogonalLoop=1;jettySize=auto;html=1;entryX=0.5;entryY=0;entryDx=0;entryDy=0;startArrow=classic;startFill=1;exitX=0;exitY=0.5;exitDx=0;exitDy=0;" parent="1" source="-IZXJxV2rKXwBeA_EH7B-69" target="-IZXJxV2rKXwBeA_EH7B-68" edge="1">
          <mxGeometry x="-0.0667" relative="1" as="geometry">
            <mxPoint x="1092" y="638" as="sourcePoint" />
            <mxPoint x="832" y="658" as="targetPoint" />
            <mxPoint as="offset" />
          </mxGeometry>
        </mxCell>
        <mxCell id="-IZXJxV2rKXwBeA_EH7B-90" value="[new current]&amp;gt;o&lt;br&gt;(new voltage)&amp;gt;&lt;b style=&quot;border: 0px; margin: 0px; padding: 0px; outline: 0px; vertical-align: baseline; background-image: initial; background-position: 0px 0px; background-size: initial; background-repeat: initial; background-attachment: initial; background-origin: initial; background-clip: initial; text-align: justify;&quot;&gt;□&lt;/b&gt;" style="edgeStyle=orthogonalEdgeStyle;rounded=0;orthogonalLoop=1;jettySize=auto;html=1;startArrow=classic;startFill=1;entryX=1;entryY=0.5;entryDx=0;entryDy=0;exitX=0.25;exitY=0;exitDx=0;exitDy=0;" parent="1" source="-IZXJxV2rKXwBeA_EH7B-73" target="-IZXJxV2rKXwBeA_EH7B-69" edge="1">
          <mxGeometry relative="1" as="geometry">
            <mxPoint x="1147" y="747.5" as="sourcePoint" />
            <mxPoint x="1092" y="658" as="targetPoint" />
          </mxGeometry>
        </mxCell>
        <mxCell id="-IZXJxV2rKXwBeA_EH7B-91" value="[new voltage]&amp;gt;o&lt;br&gt;(new current)&amp;gt;&lt;b style=&quot;border: 0px; margin: 0px; padding: 0px; outline: 0px; vertical-align: baseline; background-image: initial; background-position: 0px 0px; background-size: initial; background-repeat: initial; background-attachment: initial; background-origin: initial; background-clip: initial; text-align: justify;&quot;&gt;□&lt;/b&gt;" style="edgeStyle=orthogonalEdgeStyle;rounded=0;orthogonalLoop=1;jettySize=auto;html=1;entryX=0.75;entryY=0;entryDx=0;entryDy=0;startArrow=classic;startFill=1;exitX=0;exitY=0.5;exitDx=0;exitDy=0;" parent="1" source="-IZXJxV2rKXwBeA_EH7B-76" target="-IZXJxV2rKXwBeA_EH7B-73" edge="1">
          <mxGeometry x="0.3846" relative="1" as="geometry">
            <mxPoint x="1442" y="528" as="sourcePoint" />
            <mxPoint x="1272" y="608" as="targetPoint" />
            <mxPoint as="offset" />
          </mxGeometry>
        </mxCell>
        <mxCell id="-IZXJxV2rKXwBeA_EH7B-92" value="[new current]&amp;gt;o&lt;br&gt;(new voltage)&amp;gt;&lt;b style=&quot;border: 0px; margin: 0px; padding: 0px; outline: 0px; vertical-align: baseline; background-image: initial; background-position: 0px 0px; background-size: initial; background-repeat: initial; background-attachment: initial; background-origin: initial; background-clip: initial; text-align: justify;&quot;&gt;□&lt;/b&gt;" style="edgeStyle=orthogonalEdgeStyle;rounded=0;orthogonalLoop=1;jettySize=auto;html=1;startArrow=classic;startFill=1;entryX=1;entryY=0.5;entryDx=0;entryDy=0;exitX=0.5;exitY=0;exitDx=0;exitDy=0;" parent="1" source="-IZXJxV2rKXwBeA_EH7B-77" target="-IZXJxV2rKXwBeA_EH7B-76" edge="1">
          <mxGeometry x="-0.3333" relative="1" as="geometry">
            <mxPoint x="1592" y="658" as="sourcePoint" />
            <mxPoint x="1472" y="578" as="targetPoint" />
            <mxPoint as="offset" />
          </mxGeometry>
        </mxCell>
        <mxCell id="-IZXJxV2rKXwBeA_EH7B-93" value="new heat" style="edgeStyle=orthogonalEdgeStyle;rounded=0;orthogonalLoop=1;jettySize=auto;html=1;startArrow=classic;startFill=1;entryX=0.5;entryY=1;entryDx=0;entryDy=0;exitX=0;exitY=0.5;exitDx=0;exitDy=0;endArrow=none;endFill=0;" parent="1" source="-IZXJxV2rKXwBeA_EH7B-71" target="-IZXJxV2rKXwBeA_EH7B-75" edge="1">
          <mxGeometry relative="1" as="geometry">
            <mxPoint x="1142" y="1038" as="sourcePoint" />
            <mxPoint x="1022" y="958" as="targetPoint" />
          </mxGeometry>
        </mxCell>
        <mxCell id="-IZXJxV2rKXwBeA_EH7B-94" value="new heat" style="edgeStyle=orthogonalEdgeStyle;rounded=0;orthogonalLoop=1;jettySize=auto;html=1;startArrow=classic;startFill=1;entryX=1;entryY=0.5;entryDx=0;entryDy=0;exitX=0.5;exitY=1;exitDx=0;exitDy=0;endArrow=none;endFill=0;" parent="1" source="-IZXJxV2rKXwBeA_EH7B-78" target="-IZXJxV2rKXwBeA_EH7B-71" edge="1">
          <mxGeometry relative="1" as="geometry">
            <mxPoint x="1392" y="1008" as="sourcePoint" />
            <mxPoint x="1272" y="928" as="targetPoint" />
          </mxGeometry>
        </mxCell>
        <mxCell id="-IZXJxV2rKXwBeA_EH7B-95" value="&lt;b&gt;Typical EMS Model&lt;/b&gt;" style="text;html=1;strokeColor=none;fillColor=none;align=center;verticalAlign=middle;whiteSpace=wrap;rounded=0;" parent="1" vertex="1">
          <mxGeometry x="270" y="130" width="140" height="30" as="geometry" />
        </mxCell>
        <mxCell id="-IZXJxV2rKXwBeA_EH7B-96" value="&lt;b&gt;FRDL Model&lt;/b&gt;" style="text;html=1;strokeColor=none;fillColor=none;align=center;verticalAlign=middle;whiteSpace=wrap;rounded=0;" parent="1" vertex="1">
          <mxGeometry x="1000" y="130" width="190" height="30" as="geometry" />
        </mxCell>
        <mxCell id="-IZXJxV2rKXwBeA_EH7B-97" value="&lt;b&gt;N-Directional Propagation Arrow Variant&lt;/b&gt;" style="text;html=1;strokeColor=none;fillColor=none;align=center;verticalAlign=middle;whiteSpace=wrap;rounded=0;" parent="1" vertex="1">
          <mxGeometry x="930" y="560" width="275" height="30" as="geometry" />
        </mxCell>
        <mxCell id="-IZXJxV2rKXwBeA_EH7B-98" value="" style="endArrow=none;dashed=1;html=1;dashPattern=1 3;strokeWidth=2;rounded=0;" parent="1" edge="1">
          <mxGeometry width="50" height="50" relative="1" as="geometry">
            <mxPoint x="760" y="545" as="sourcePoint" />
            <mxPoint x="1520" y="550" as="targetPoint" />
          </mxGeometry>
        </mxCell>
        <mxCell id="-IZXJxV2rKXwBeA_EH7B-99" value="new voltage" style="edgeStyle=orthogonalEdgeStyle;rounded=0;orthogonalLoop=1;jettySize=auto;html=1;exitX=0.5;exitY=1;exitDx=0;exitDy=0;entryX=0;entryY=0.5;entryDx=0;entryDy=0;startArrow=none;startFill=0;" parent="1" source="-IZXJxV2rKXwBeA_EH7B-100" target="-IZXJxV2rKXwBeA_EH7B-102" edge="1">
          <mxGeometry x="-0.04" relative="1" as="geometry">
            <mxPoint as="offset" />
          </mxGeometry>
        </mxCell>
        <mxCell id="-IZXJxV2rKXwBeA_EH7B-100" value="Import EE&lt;div&gt;&amp;lt;Physical&amp;gt;&lt;br&gt;&lt;/div&gt;" style="rounded=0;whiteSpace=wrap;html=1;" parent="1" vertex="1">
          <mxGeometry x="1620" y="728" width="120" height="60" as="geometry" />
        </mxCell>
        <mxCell id="-IZXJxV2rKXwBeA_EH7B-101" value="EE_1&lt;div&gt;&amp;lt;Power&amp;gt;&lt;br&gt;&lt;/div&gt;" style="ellipse;whiteSpace=wrap;html=1;aspect=fixed;" parent="1" vertex="1">
          <mxGeometry x="1850" y="608" width="80" height="80" as="geometry" />
        </mxCell>
        <mxCell id="-IZXJxV2rKXwBeA_EH7B-102" value="EE_2&lt;div&gt;&amp;lt;Power&amp;gt;&lt;br&gt;&lt;/div&gt;" style="ellipse;whiteSpace=wrap;html=1;aspect=fixed;" parent="1" vertex="1">
          <mxGeometry x="1650" y="828" width="80" height="80" as="geometry" />
        </mxCell>
        <mxCell id="-IZXJxV2rKXwBeA_EH7B-103" value="HE&lt;div&gt;&amp;lt;Heat&amp;gt;&lt;/div&gt;" style="ellipse;whiteSpace=wrap;html=1;aspect=fixed;" parent="1" vertex="1">
          <mxGeometry x="1960" y="898" width="80" height="80" as="geometry" />
        </mxCell>
        <mxCell id="-IZXJxV2rKXwBeA_EH7B-104" value="Store EE&lt;div&gt;&amp;lt;Physical&amp;gt;&lt;br&gt;&lt;/div&gt;" style="rounded=0;whiteSpace=wrap;html=1;" parent="1" vertex="1">
          <mxGeometry x="1830" y="728" width="120" height="60" as="geometry" />
        </mxCell>
        <mxCell id="-IZXJxV2rKXwBeA_EH7B-105" value="Modulate EE&lt;div&gt;&amp;lt;Physical, Logical&amp;gt;&lt;br&gt;&lt;/div&gt;" style="rounded=0;whiteSpace=wrap;html=1;" parent="1" vertex="1">
          <mxGeometry x="2020" y="728" width="120" height="60" as="geometry" />
        </mxCell>
        <mxCell id="-IZXJxV2rKXwBeA_EH7B-106" value="new current (r)" style="edgeStyle=orthogonalEdgeStyle;rounded=0;orthogonalLoop=1;jettySize=auto;html=1;exitX=0;exitY=0.5;exitDx=0;exitDy=0;startArrow=classic;startFill=1;endArrow=none;endFill=0;" parent="1" source="-IZXJxV2rKXwBeA_EH7B-107" target="-IZXJxV2rKXwBeA_EH7B-102" edge="1">
          <mxGeometry relative="1" as="geometry" />
        </mxCell>
        <mxCell id="-IZXJxV2rKXwBeA_EH7B-107" value="Convert EE to HE&lt;div&gt;&amp;lt;Physical&amp;gt;&lt;br&gt;&lt;/div&gt;" style="rounded=0;whiteSpace=wrap;html=1;" parent="1" vertex="1">
          <mxGeometry x="1830" y="838" width="120" height="60" as="geometry" />
        </mxCell>
        <mxCell id="-IZXJxV2rKXwBeA_EH7B-108" value="EE_1_out&lt;div&gt;&amp;lt;Power&amp;gt;&lt;br&gt;&lt;/div&gt;" style="ellipse;whiteSpace=wrap;html=1;aspect=fixed;" parent="1" vertex="1">
          <mxGeometry x="2160" y="608" width="80" height="80" as="geometry" />
        </mxCell>
        <mxCell id="-IZXJxV2rKXwBeA_EH7B-109" value="Export EE&lt;div&gt;&amp;lt;Physical&amp;gt;&lt;br&gt;&lt;/div&gt;" style="rounded=0;whiteSpace=wrap;html=1;" parent="1" vertex="1">
          <mxGeometry x="2220" y="728" width="120" height="60" as="geometry" />
        </mxCell>
        <mxCell id="-IZXJxV2rKXwBeA_EH7B-110" value="Export HE&lt;div&gt;&amp;lt;Physical&amp;gt;&lt;br&gt;&lt;/div&gt;" style="rounded=0;whiteSpace=wrap;html=1;" parent="1" vertex="1">
          <mxGeometry x="2030" y="838" width="120" height="60" as="geometry" />
        </mxCell>
        <mxCell id="-IZXJxV2rKXwBeA_EH7B-111" value="&lt;b&gt;ED&lt;/b&gt;" style="rounded=0;whiteSpace=wrap;html=1;" parent="1" vertex="1">
          <mxGeometry x="2130" y="878" width="20" height="20" as="geometry" />
        </mxCell>
        <mxCell id="-IZXJxV2rKXwBeA_EH7B-112" value="&lt;b&gt;IS&lt;/b&gt;" style="rounded=0;whiteSpace=wrap;html=1;" parent="1" vertex="1">
          <mxGeometry x="1930" y="878" width="20" height="20" as="geometry" />
        </mxCell>
        <mxCell id="-IZXJxV2rKXwBeA_EH7B-113" value="&lt;b&gt;IR&lt;/b&gt;" style="rounded=0;whiteSpace=wrap;html=1;" parent="1" vertex="1">
          <mxGeometry x="2320" y="768" width="20" height="20" as="geometry" />
        </mxCell>
        <mxCell id="-IZXJxV2rKXwBeA_EH7B-114" value="&lt;b&gt;IR&lt;/b&gt;" style="rounded=0;whiteSpace=wrap;html=1;" parent="1" vertex="1">
          <mxGeometry x="2120" y="768" width="20" height="20" as="geometry" />
        </mxCell>
        <mxCell id="-IZXJxV2rKXwBeA_EH7B-115" value="&lt;b&gt;IR&lt;/b&gt;" style="rounded=0;whiteSpace=wrap;html=1;" parent="1" vertex="1">
          <mxGeometry x="1930" y="768" width="20" height="20" as="geometry" />
        </mxCell>
        <mxCell id="-IZXJxV2rKXwBeA_EH7B-116" value="&lt;b&gt;IR&lt;/b&gt;" style="rounded=0;whiteSpace=wrap;html=1;" parent="1" vertex="1">
          <mxGeometry x="1720" y="768" width="20" height="20" as="geometry" />
        </mxCell>
        <mxCell id="-IZXJxV2rKXwBeA_EH7B-117" value="" style="group" parent="1" vertex="1" connectable="0">
          <mxGeometry x="1620" y="728" width="40" height="20" as="geometry" />
        </mxCell>
        <mxCell id="-IZXJxV2rKXwBeA_EH7B-118" value="s::e" style="shape=offPageConnector;whiteSpace=wrap;html=1;" parent="-IZXJxV2rKXwBeA_EH7B-117" vertex="1">
          <mxGeometry width="40" height="20" as="geometry" />
        </mxCell>
        <mxCell id="-IZXJxV2rKXwBeA_EH7B-119" style="edgeStyle=orthogonalEdgeStyle;rounded=0;orthogonalLoop=1;jettySize=auto;html=1;exitX=0;exitY=0;exitDx=0;exitDy=0;entryX=0.75;entryY=0;entryDx=0;entryDy=0;startArrow=baseDash;startFill=0;" parent="-IZXJxV2rKXwBeA_EH7B-117" edge="1">
          <mxGeometry relative="1" as="geometry">
            <mxPoint x="22.5" as="targetPoint" />
            <Array as="points" />
            <mxPoint as="sourcePoint" />
          </mxGeometry>
        </mxCell>
        <mxCell id="-IZXJxV2rKXwBeA_EH7B-120" value="new current (r)" style="edgeStyle=orthogonalEdgeStyle;rounded=0;orthogonalLoop=1;jettySize=auto;html=1;exitX=0.5;exitY=0;exitDx=0;exitDy=0;startArrow=classic;startFill=1;entryX=0.5;entryY=1;entryDx=0;entryDy=0;endArrow=none;endFill=0;" parent="1" source="-IZXJxV2rKXwBeA_EH7B-104" target="-IZXJxV2rKXwBeA_EH7B-101" edge="1">
          <mxGeometry x="0.4" relative="1" as="geometry">
            <mxPoint x="1850" y="888" as="sourcePoint" />
            <mxPoint x="1810" y="668" as="targetPoint" />
            <mxPoint as="offset" />
          </mxGeometry>
        </mxCell>
        <mxCell id="-IZXJxV2rKXwBeA_EH7B-121" value="new voltage" style="edgeStyle=orthogonalEdgeStyle;rounded=0;orthogonalLoop=1;jettySize=auto;html=1;entryX=0.5;entryY=0;entryDx=0;entryDy=0;startArrow=classic;startFill=1;exitX=0;exitY=0.5;exitDx=0;exitDy=0;endArrow=none;endFill=0;" parent="1" source="-IZXJxV2rKXwBeA_EH7B-101" target="-IZXJxV2rKXwBeA_EH7B-100" edge="1">
          <mxGeometry x="-0.0667" relative="1" as="geometry">
            <mxPoint x="1950" y="638" as="sourcePoint" />
            <mxPoint x="1690" y="658" as="targetPoint" />
            <mxPoint as="offset" />
          </mxGeometry>
        </mxCell>
        <mxCell id="-IZXJxV2rKXwBeA_EH7B-122" value="new current (r)" style="edgeStyle=orthogonalEdgeStyle;rounded=0;orthogonalLoop=1;jettySize=auto;html=1;startArrow=classic;startFill=1;entryX=1;entryY=0.5;entryDx=0;entryDy=0;exitX=0.25;exitY=0;exitDx=0;exitDy=0;endArrow=none;endFill=0;" parent="1" source="-IZXJxV2rKXwBeA_EH7B-105" target="-IZXJxV2rKXwBeA_EH7B-101" edge="1">
          <mxGeometry relative="1" as="geometry">
            <mxPoint x="2005" y="747.5" as="sourcePoint" />
            <mxPoint x="1950" y="658" as="targetPoint" />
          </mxGeometry>
        </mxCell>
        <mxCell id="-IZXJxV2rKXwBeA_EH7B-123" value="new voltage" style="edgeStyle=orthogonalEdgeStyle;rounded=0;orthogonalLoop=1;jettySize=auto;html=1;entryX=0.75;entryY=0;entryDx=0;entryDy=0;startArrow=classic;startFill=1;exitX=0;exitY=0.5;exitDx=0;exitDy=0;endArrow=none;endFill=0;" parent="1" source="-IZXJxV2rKXwBeA_EH7B-108" target="-IZXJxV2rKXwBeA_EH7B-105" edge="1">
          <mxGeometry x="0.3846" relative="1" as="geometry">
            <mxPoint x="2300" y="528" as="sourcePoint" />
            <mxPoint x="2130" y="608" as="targetPoint" />
            <mxPoint as="offset" />
          </mxGeometry>
        </mxCell>
        <mxCell id="-IZXJxV2rKXwBeA_EH7B-124" value="new current (r)" style="edgeStyle=orthogonalEdgeStyle;rounded=0;orthogonalLoop=1;jettySize=auto;html=1;startArrow=classic;startFill=1;entryX=1;entryY=0.5;entryDx=0;entryDy=0;exitX=0.5;exitY=0;exitDx=0;exitDy=0;endArrow=none;endFill=0;" parent="1" source="-IZXJxV2rKXwBeA_EH7B-109" target="-IZXJxV2rKXwBeA_EH7B-108" edge="1">
          <mxGeometry x="-0.3333" relative="1" as="geometry">
            <mxPoint x="2450" y="658" as="sourcePoint" />
            <mxPoint x="2330" y="578" as="targetPoint" />
            <mxPoint as="offset" />
          </mxGeometry>
        </mxCell>
        <mxCell id="-IZXJxV2rKXwBeA_EH7B-125" value="new heat" style="edgeStyle=orthogonalEdgeStyle;rounded=0;orthogonalLoop=1;jettySize=auto;html=1;startArrow=classic;startFill=1;entryX=0.5;entryY=1;entryDx=0;entryDy=0;exitX=0;exitY=0.5;exitDx=0;exitDy=0;endArrow=none;endFill=0;" parent="1" source="-IZXJxV2rKXwBeA_EH7B-103" target="-IZXJxV2rKXwBeA_EH7B-107" edge="1">
          <mxGeometry relative="1" as="geometry">
            <mxPoint x="2000" y="1038" as="sourcePoint" />
            <mxPoint x="1880" y="958" as="targetPoint" />
          </mxGeometry>
        </mxCell>
        <mxCell id="-IZXJxV2rKXwBeA_EH7B-126" value="new heat" style="edgeStyle=orthogonalEdgeStyle;rounded=0;orthogonalLoop=1;jettySize=auto;html=1;startArrow=classic;startFill=1;entryX=1;entryY=0.5;entryDx=0;entryDy=0;exitX=0.5;exitY=1;exitDx=0;exitDy=0;endArrow=none;endFill=0;" parent="1" source="-IZXJxV2rKXwBeA_EH7B-110" target="-IZXJxV2rKXwBeA_EH7B-103" edge="1">
          <mxGeometry relative="1" as="geometry">
            <mxPoint x="2250" y="1008" as="sourcePoint" />
            <mxPoint x="2130" y="928" as="targetPoint" />
          </mxGeometry>
        </mxCell>
        <mxCell id="-IZXJxV2rKXwBeA_EH7B-127" value="&lt;b&gt;Single Directional Propagation Arrow Variant&lt;/b&gt;" style="text;html=1;strokeColor=none;fillColor=none;align=center;verticalAlign=middle;whiteSpace=wrap;rounded=0;" parent="1" vertex="1">
          <mxGeometry x="1862.5" y="538" width="275" height="30" as="geometry" />
        </mxCell>
        <mxCell id="Gm5whgS5m3OIeWf9cZid-1" style="edgeStyle=orthogonalEdgeStyle;rounded=0;orthogonalLoop=1;jettySize=auto;html=1;entryX=1;entryY=0;entryDx=0;entryDy=0;endArrow=ERoneToMany;endFill=0;" parent="1" target="-IZXJxV2rKXwBeA_EH7B-118" edge="1">
          <mxGeometry relative="1" as="geometry">
            <mxPoint x="1665.5" y="727.39" as="targetPoint" />
            <Array as="points">
              <mxPoint x="1620" y="727" />
              <mxPoint x="1635" y="727" />
            </Array>
            <mxPoint x="1620" y="730" as="sourcePoint" />
          </mxGeometry>
        </mxCell>
        <mxCell id="Gm5whgS5m3OIeWf9cZid-2" value="" style="group" parent="1" vertex="1" connectable="0">
          <mxGeometry x="1830" y="728" width="50" height="20" as="geometry" />
        </mxCell>
        <mxCell id="Gm5whgS5m3OIeWf9cZid-3" value="i:1m:i" style="shape=offPageConnector;whiteSpace=wrap;html=1;" parent="Gm5whgS5m3OIeWf9cZid-2" vertex="1">
          <mxGeometry width="37.5" height="20" as="geometry" />
        </mxCell>
        <mxCell id="Gm5whgS5m3OIeWf9cZid-5" value="" style="group" parent="1" vertex="1" connectable="0">
          <mxGeometry x="2020" y="728" width="40" height="20" as="geometry" />
        </mxCell>
        <mxCell id="Gm5whgS5m3OIeWf9cZid-6" value="i:1s:i" style="shape=offPageConnector;whiteSpace=wrap;html=1;" parent="Gm5whgS5m3OIeWf9cZid-5" vertex="1">
          <mxGeometry width="30" height="20" as="geometry" />
        </mxCell>
        <mxCell id="Gm5whgS5m3OIeWf9cZid-7" value="" style="group" parent="1" vertex="1" connectable="0">
          <mxGeometry x="2220" y="728" width="40" height="20" as="geometry" />
        </mxCell>
        <mxCell id="Gm5whgS5m3OIeWf9cZid-8" value="i::i" style="shape=offPageConnector;whiteSpace=wrap;html=1;" parent="Gm5whgS5m3OIeWf9cZid-7" vertex="1">
          <mxGeometry width="30" height="20" as="geometry" />
        </mxCell>
        <mxCell id="Gm5whgS5m3OIeWf9cZid-9" value="" style="group" parent="1" vertex="1" connectable="0">
          <mxGeometry x="1830" y="838" width="40" height="20" as="geometry" />
        </mxCell>
        <mxCell id="Gm5whgS5m3OIeWf9cZid-10" value="i::i" style="shape=offPageConnector;whiteSpace=wrap;html=1;" parent="Gm5whgS5m3OIeWf9cZid-9" vertex="1">
          <mxGeometry width="30" height="20" as="geometry" />
        </mxCell>
        <mxCell id="Gm5whgS5m3OIeWf9cZid-11" value="" style="group" parent="1" vertex="1" connectable="0">
          <mxGeometry x="2030" y="838" width="40" height="20" as="geometry" />
        </mxCell>
        <mxCell id="Gm5whgS5m3OIeWf9cZid-12" value="i::i" style="shape=offPageConnector;whiteSpace=wrap;html=1;" parent="Gm5whgS5m3OIeWf9cZid-11" vertex="1">
          <mxGeometry width="30" height="20" as="geometry" />
        </mxCell>
      </root>
    </mxGraphModel>
  </diagram>
  <diagram id="xwScPx_mOyAzU_-kFkBT" name="Page-2">
    <mxGraphModel dx="2313" dy="2041" grid="1" gridSize="10" guides="1" tooltips="1" connect="1" arrows="1" fold="1" page="1" pageScale="1" pageWidth="850" pageHeight="1100" math="0" shadow="0">
      <root>
        <mxCell id="0" />
        <mxCell id="1" parent="0" />
        <mxCell id="Y0dgIXWkeP1vq-oA4fCF-1" value="new voltage" style="edgeStyle=orthogonalEdgeStyle;rounded=0;orthogonalLoop=1;jettySize=auto;html=1;exitX=0.5;exitY=1;exitDx=0;exitDy=0;entryX=0;entryY=0.5;entryDx=0;entryDy=0;startArrow=none;startFill=0;" edge="1" parent="1" source="Y0dgIXWkeP1vq-oA4fCF-2" target="Y0dgIXWkeP1vq-oA4fCF-4">
          <mxGeometry x="-0.04" relative="1" as="geometry">
            <mxPoint as="offset" />
          </mxGeometry>
        </mxCell>
        <mxCell id="Y0dgIXWkeP1vq-oA4fCF-2" value="Import EE&lt;div&gt;&amp;lt;Physical&amp;gt;&lt;br&gt;&lt;/div&gt;" style="rounded=0;whiteSpace=wrap;html=1;" vertex="1" parent="1">
          <mxGeometry x="880" y="160" width="120" height="60" as="geometry" />
        </mxCell>
        <mxCell id="Y0dgIXWkeP1vq-oA4fCF-3" value="EE_1&lt;div&gt;&amp;lt;Power&amp;gt;&lt;br&gt;&lt;/div&gt;" style="ellipse;whiteSpace=wrap;html=1;aspect=fixed;" vertex="1" parent="1">
          <mxGeometry x="1110" y="40" width="80" height="80" as="geometry" />
        </mxCell>
        <mxCell id="Y0dgIXWkeP1vq-oA4fCF-4" value="EE_2&lt;div&gt;&amp;lt;Power&amp;gt;&lt;br&gt;&lt;/div&gt;" style="ellipse;whiteSpace=wrap;html=1;aspect=fixed;" vertex="1" parent="1">
          <mxGeometry x="910" y="260" width="80" height="80" as="geometry" />
        </mxCell>
        <mxCell id="Y0dgIXWkeP1vq-oA4fCF-5" value="HE&lt;div&gt;&amp;lt;Heat&amp;gt;&lt;/div&gt;" style="ellipse;whiteSpace=wrap;html=1;aspect=fixed;" vertex="1" parent="1">
          <mxGeometry x="1220" y="330" width="80" height="80" as="geometry" />
        </mxCell>
        <mxCell id="Y0dgIXWkeP1vq-oA4fCF-6" value="Store EE&lt;div&gt;&amp;lt;Physical&amp;gt;&lt;br&gt;&lt;/div&gt;" style="rounded=0;whiteSpace=wrap;html=1;" vertex="1" parent="1">
          <mxGeometry x="1090" y="160" width="120" height="60" as="geometry" />
        </mxCell>
        <mxCell id="Y0dgIXWkeP1vq-oA4fCF-7" value="Modulate EE&lt;div&gt;&amp;lt;Physical, Logical&amp;gt;&lt;br&gt;&lt;/div&gt;" style="rounded=0;whiteSpace=wrap;html=1;" vertex="1" parent="1">
          <mxGeometry x="1280" y="160" width="120" height="60" as="geometry" />
        </mxCell>
        <mxCell id="Y0dgIXWkeP1vq-oA4fCF-8" value="new current (r)" style="edgeStyle=orthogonalEdgeStyle;rounded=0;orthogonalLoop=1;jettySize=auto;html=1;exitX=0;exitY=0.5;exitDx=0;exitDy=0;startArrow=classic;startFill=1;endArrow=none;endFill=0;" edge="1" parent="1" source="Y0dgIXWkeP1vq-oA4fCF-9" target="Y0dgIXWkeP1vq-oA4fCF-4">
          <mxGeometry relative="1" as="geometry" />
        </mxCell>
        <mxCell id="Y0dgIXWkeP1vq-oA4fCF-9" value="Convert EE to HE&lt;div&gt;&amp;lt;Physical&amp;gt;&lt;br&gt;&lt;/div&gt;" style="rounded=0;whiteSpace=wrap;html=1;" vertex="1" parent="1">
          <mxGeometry x="1090" y="270" width="120" height="60" as="geometry" />
        </mxCell>
        <mxCell id="Y0dgIXWkeP1vq-oA4fCF-10" value="EE_1_out&lt;div&gt;&amp;lt;Power&amp;gt;&lt;br&gt;&lt;/div&gt;" style="ellipse;whiteSpace=wrap;html=1;aspect=fixed;" vertex="1" parent="1">
          <mxGeometry x="1420" y="40" width="80" height="80" as="geometry" />
        </mxCell>
        <mxCell id="Y0dgIXWkeP1vq-oA4fCF-11" value="Export EE&lt;div&gt;&amp;lt;Physical&amp;gt;&lt;br&gt;&lt;/div&gt;" style="rounded=0;whiteSpace=wrap;html=1;" vertex="1" parent="1">
          <mxGeometry x="1480" y="160" width="120" height="60" as="geometry" />
        </mxCell>
        <mxCell id="Y0dgIXWkeP1vq-oA4fCF-12" value="Export HE&lt;div&gt;&amp;lt;Physical&amp;gt;&lt;br&gt;&lt;/div&gt;" style="rounded=0;whiteSpace=wrap;html=1;" vertex="1" parent="1">
          <mxGeometry x="1290" y="270" width="120" height="60" as="geometry" />
        </mxCell>
        <mxCell id="Y0dgIXWkeP1vq-oA4fCF-13" value="&lt;b&gt;ED&lt;/b&gt;" style="rounded=0;whiteSpace=wrap;html=1;" vertex="1" parent="1">
          <mxGeometry x="1390" y="310" width="20" height="20" as="geometry" />
        </mxCell>
        <mxCell id="Y0dgIXWkeP1vq-oA4fCF-14" value="&lt;b&gt;IS&lt;/b&gt;" style="rounded=0;whiteSpace=wrap;html=1;" vertex="1" parent="1">
          <mxGeometry x="1190" y="310" width="20" height="20" as="geometry" />
        </mxCell>
        <mxCell id="Y0dgIXWkeP1vq-oA4fCF-15" value="&lt;b&gt;IR&lt;/b&gt;" style="rounded=0;whiteSpace=wrap;html=1;" vertex="1" parent="1">
          <mxGeometry x="1580" y="200" width="20" height="20" as="geometry" />
        </mxCell>
        <mxCell id="Y0dgIXWkeP1vq-oA4fCF-16" value="&lt;b&gt;IR&lt;/b&gt;" style="rounded=0;whiteSpace=wrap;html=1;" vertex="1" parent="1">
          <mxGeometry x="1380" y="200" width="20" height="20" as="geometry" />
        </mxCell>
        <mxCell id="Y0dgIXWkeP1vq-oA4fCF-17" value="&lt;b&gt;IR&lt;/b&gt;" style="rounded=0;whiteSpace=wrap;html=1;" vertex="1" parent="1">
          <mxGeometry x="1190" y="200" width="20" height="20" as="geometry" />
        </mxCell>
        <mxCell id="Y0dgIXWkeP1vq-oA4fCF-18" value="&lt;b&gt;IR&lt;/b&gt;" style="rounded=0;whiteSpace=wrap;html=1;" vertex="1" parent="1">
          <mxGeometry x="980" y="200" width="20" height="20" as="geometry" />
        </mxCell>
        <mxCell id="Y0dgIXWkeP1vq-oA4fCF-19" value="" style="group" vertex="1" connectable="0" parent="1">
          <mxGeometry x="880" y="160" width="40" height="20" as="geometry" />
        </mxCell>
        <mxCell id="Y0dgIXWkeP1vq-oA4fCF-20" value="s::e" style="shape=offPageConnector;whiteSpace=wrap;html=1;" vertex="1" parent="Y0dgIXWkeP1vq-oA4fCF-19">
          <mxGeometry width="40" height="20" as="geometry" />
        </mxCell>
        <mxCell id="Y0dgIXWkeP1vq-oA4fCF-21" style="edgeStyle=orthogonalEdgeStyle;rounded=0;orthogonalLoop=1;jettySize=auto;html=1;exitX=0;exitY=0;exitDx=0;exitDy=0;entryX=0.75;entryY=0;entryDx=0;entryDy=0;startArrow=baseDash;startFill=0;" edge="1" parent="Y0dgIXWkeP1vq-oA4fCF-19">
          <mxGeometry relative="1" as="geometry">
            <mxPoint x="22.5" as="targetPoint" />
            <Array as="points" />
            <mxPoint as="sourcePoint" />
          </mxGeometry>
        </mxCell>
        <mxCell id="Y0dgIXWkeP1vq-oA4fCF-22" value="new current (r)" style="edgeStyle=orthogonalEdgeStyle;rounded=0;orthogonalLoop=1;jettySize=auto;html=1;exitX=0.5;exitY=0;exitDx=0;exitDy=0;startArrow=classic;startFill=1;entryX=0.5;entryY=1;entryDx=0;entryDy=0;endArrow=none;endFill=0;" edge="1" parent="1" source="Y0dgIXWkeP1vq-oA4fCF-6" target="Y0dgIXWkeP1vq-oA4fCF-3">
          <mxGeometry x="0.4" relative="1" as="geometry">
            <mxPoint x="1110" y="320" as="sourcePoint" />
            <mxPoint x="1070" y="100" as="targetPoint" />
            <mxPoint as="offset" />
          </mxGeometry>
        </mxCell>
        <mxCell id="Y0dgIXWkeP1vq-oA4fCF-23" value="new voltage" style="edgeStyle=orthogonalEdgeStyle;rounded=0;orthogonalLoop=1;jettySize=auto;html=1;entryX=0.5;entryY=0;entryDx=0;entryDy=0;startArrow=classic;startFill=1;exitX=0;exitY=0.5;exitDx=0;exitDy=0;endArrow=none;endFill=0;" edge="1" parent="1" source="Y0dgIXWkeP1vq-oA4fCF-3" target="Y0dgIXWkeP1vq-oA4fCF-2">
          <mxGeometry x="-0.0667" relative="1" as="geometry">
            <mxPoint x="1210" y="70" as="sourcePoint" />
            <mxPoint x="950" y="90" as="targetPoint" />
            <mxPoint as="offset" />
          </mxGeometry>
        </mxCell>
        <mxCell id="Y0dgIXWkeP1vq-oA4fCF-24" value="new current (r)" style="edgeStyle=orthogonalEdgeStyle;rounded=0;orthogonalLoop=1;jettySize=auto;html=1;startArrow=classic;startFill=1;entryX=1;entryY=0.5;entryDx=0;entryDy=0;exitX=0.25;exitY=0;exitDx=0;exitDy=0;endArrow=none;endFill=0;" edge="1" parent="1" source="Y0dgIXWkeP1vq-oA4fCF-7" target="Y0dgIXWkeP1vq-oA4fCF-3">
          <mxGeometry relative="1" as="geometry">
            <mxPoint x="1265" y="179.5" as="sourcePoint" />
            <mxPoint x="1210" y="90" as="targetPoint" />
          </mxGeometry>
        </mxCell>
        <mxCell id="Y0dgIXWkeP1vq-oA4fCF-25" value="new voltage" style="edgeStyle=orthogonalEdgeStyle;rounded=0;orthogonalLoop=1;jettySize=auto;html=1;entryX=0.75;entryY=0;entryDx=0;entryDy=0;startArrow=classic;startFill=1;exitX=0;exitY=0.5;exitDx=0;exitDy=0;endArrow=none;endFill=0;" edge="1" parent="1" source="Y0dgIXWkeP1vq-oA4fCF-10" target="Y0dgIXWkeP1vq-oA4fCF-7">
          <mxGeometry x="0.3846" relative="1" as="geometry">
            <mxPoint x="1560" y="-40" as="sourcePoint" />
            <mxPoint x="1390" y="40" as="targetPoint" />
            <mxPoint as="offset" />
          </mxGeometry>
        </mxCell>
        <mxCell id="Y0dgIXWkeP1vq-oA4fCF-26" value="new current (r)" style="edgeStyle=orthogonalEdgeStyle;rounded=0;orthogonalLoop=1;jettySize=auto;html=1;startArrow=classic;startFill=1;entryX=1;entryY=0.5;entryDx=0;entryDy=0;exitX=0.5;exitY=0;exitDx=0;exitDy=0;endArrow=none;endFill=0;" edge="1" parent="1" source="Y0dgIXWkeP1vq-oA4fCF-11" target="Y0dgIXWkeP1vq-oA4fCF-10">
          <mxGeometry x="-0.3333" relative="1" as="geometry">
            <mxPoint x="1710" y="90" as="sourcePoint" />
            <mxPoint x="1590" y="10" as="targetPoint" />
            <mxPoint as="offset" />
          </mxGeometry>
        </mxCell>
        <mxCell id="Y0dgIXWkeP1vq-oA4fCF-27" value="new heat" style="edgeStyle=orthogonalEdgeStyle;rounded=0;orthogonalLoop=1;jettySize=auto;html=1;startArrow=classic;startFill=1;entryX=0.5;entryY=1;entryDx=0;entryDy=0;exitX=0;exitY=0.5;exitDx=0;exitDy=0;endArrow=none;endFill=0;" edge="1" parent="1" source="Y0dgIXWkeP1vq-oA4fCF-5" target="Y0dgIXWkeP1vq-oA4fCF-9">
          <mxGeometry relative="1" as="geometry">
            <mxPoint x="1260" y="470" as="sourcePoint" />
            <mxPoint x="1140" y="390" as="targetPoint" />
          </mxGeometry>
        </mxCell>
        <mxCell id="Y0dgIXWkeP1vq-oA4fCF-28" value="new heat" style="edgeStyle=orthogonalEdgeStyle;rounded=0;orthogonalLoop=1;jettySize=auto;html=1;startArrow=classic;startFill=1;entryX=1;entryY=0.5;entryDx=0;entryDy=0;exitX=0.5;exitY=1;exitDx=0;exitDy=0;endArrow=none;endFill=0;" edge="1" parent="1" source="Y0dgIXWkeP1vq-oA4fCF-12" target="Y0dgIXWkeP1vq-oA4fCF-5">
          <mxGeometry relative="1" as="geometry">
            <mxPoint x="1510" y="440" as="sourcePoint" />
            <mxPoint x="1390" y="360" as="targetPoint" />
          </mxGeometry>
        </mxCell>
        <mxCell id="Y0dgIXWkeP1vq-oA4fCF-29" style="edgeStyle=orthogonalEdgeStyle;rounded=0;orthogonalLoop=1;jettySize=auto;html=1;entryX=1;entryY=0;entryDx=0;entryDy=0;endArrow=ERoneToMany;endFill=0;" edge="1" parent="1" target="Y0dgIXWkeP1vq-oA4fCF-20">
          <mxGeometry relative="1" as="geometry">
            <mxPoint x="925.5" y="159.39" as="targetPoint" />
            <Array as="points">
              <mxPoint x="880" y="159" />
              <mxPoint x="895" y="159" />
            </Array>
            <mxPoint x="880" y="162" as="sourcePoint" />
          </mxGeometry>
        </mxCell>
        <mxCell id="Y0dgIXWkeP1vq-oA4fCF-30" value="" style="group" vertex="1" connectable="0" parent="1">
          <mxGeometry x="1090" y="160" width="50" height="20" as="geometry" />
        </mxCell>
        <mxCell id="Y0dgIXWkeP1vq-oA4fCF-31" value="i:1m:i" style="shape=offPageConnector;whiteSpace=wrap;html=1;" vertex="1" parent="Y0dgIXWkeP1vq-oA4fCF-30">
          <mxGeometry width="37.5" height="20" as="geometry" />
        </mxCell>
        <mxCell id="Y0dgIXWkeP1vq-oA4fCF-32" value="" style="group" vertex="1" connectable="0" parent="1">
          <mxGeometry x="1280" y="160" width="40" height="20" as="geometry" />
        </mxCell>
        <mxCell id="Y0dgIXWkeP1vq-oA4fCF-33" value="i:1s:i" style="shape=offPageConnector;whiteSpace=wrap;html=1;" vertex="1" parent="Y0dgIXWkeP1vq-oA4fCF-32">
          <mxGeometry width="30" height="20" as="geometry" />
        </mxCell>
        <mxCell id="Y0dgIXWkeP1vq-oA4fCF-34" value="" style="group" vertex="1" connectable="0" parent="1">
          <mxGeometry x="1480" y="160" width="40" height="20" as="geometry" />
        </mxCell>
        <mxCell id="Y0dgIXWkeP1vq-oA4fCF-35" value="i::i" style="shape=offPageConnector;whiteSpace=wrap;html=1;" vertex="1" parent="Y0dgIXWkeP1vq-oA4fCF-34">
          <mxGeometry width="30" height="20" as="geometry" />
        </mxCell>
        <mxCell id="Y0dgIXWkeP1vq-oA4fCF-36" value="" style="group" vertex="1" connectable="0" parent="1">
          <mxGeometry x="1090" y="270" width="40" height="20" as="geometry" />
        </mxCell>
        <mxCell id="Y0dgIXWkeP1vq-oA4fCF-37" value="i::i" style="shape=offPageConnector;whiteSpace=wrap;html=1;" vertex="1" parent="Y0dgIXWkeP1vq-oA4fCF-36">
          <mxGeometry width="30" height="20" as="geometry" />
        </mxCell>
        <mxCell id="Y0dgIXWkeP1vq-oA4fCF-38" value="" style="group" vertex="1" connectable="0" parent="1">
          <mxGeometry x="1290" y="270" width="40" height="20" as="geometry" />
        </mxCell>
        <mxCell id="Y0dgIXWkeP1vq-oA4fCF-39" value="i::i" style="shape=offPageConnector;whiteSpace=wrap;html=1;" vertex="1" parent="Y0dgIXWkeP1vq-oA4fCF-38">
          <mxGeometry width="30" height="20" as="geometry" />
        </mxCell>
        <mxCell id="Y0dgIXWkeP1vq-oA4fCF-40" value="" style="rounded=0;whiteSpace=wrap;html=1;strokeColor=#FF1100;strokeWidth=3;fillColor=none;" vertex="1" parent="1">
          <mxGeometry x="1270" y="150" width="140" height="80" as="geometry" />
        </mxCell>
        <mxCell id="Y0dgIXWkeP1vq-oA4fCF-41" value="&lt;b&gt;&lt;font style=&quot;font-size: 14px;&quot; color=&quot;#ff1100&quot;&gt;Fault Scenario: Electrical Short&lt;/font&gt;&lt;/b&gt;&lt;div&gt;&lt;b&gt;&lt;font style=&quot;font-size: 14px;&quot; color=&quot;#ff1100&quot;&gt;High current draw while voltage output goes to zero.&lt;/font&gt;&lt;/b&gt;&lt;/div&gt;" style="text;html=1;align=center;verticalAlign=middle;whiteSpace=wrap;rounded=0;" vertex="1" parent="1">
          <mxGeometry x="1210" y="10" width="210" height="70" as="geometry" />
        </mxCell>
        <mxCell id="Y0dgIXWkeP1vq-oA4fCF-81" value="" style="endArrow=classic;html=1;rounded=0;strokeWidth=3;strokeColor=#FF1100;exitX=0.505;exitY=1.1;exitDx=0;exitDy=0;exitPerimeter=0;" edge="1" parent="1" source="Y0dgIXWkeP1vq-oA4fCF-41">
          <mxGeometry width="50" height="50" relative="1" as="geometry">
            <mxPoint x="1310" y="70" as="sourcePoint" />
            <mxPoint x="1340" y="150" as="targetPoint" />
          </mxGeometry>
        </mxCell>
        <mxCell id="Y0dgIXWkeP1vq-oA4fCF-82" value="" style="endArrow=classic;html=1;rounded=0;strokeWidth=3;strokeColor=#FF1100;entryX=0.193;entryY=-0.029;entryDx=0;entryDy=0;entryPerimeter=0;" edge="1" parent="1" target="Y0dgIXWkeP1vq-oA4fCF-83">
          <mxGeometry width="50" height="50" relative="1" as="geometry">
            <mxPoint x="2770" y="660" as="sourcePoint" />
            <mxPoint x="2810.03" y="620" as="targetPoint" />
          </mxGeometry>
        </mxCell>
        <mxCell id="Y0dgIXWkeP1vq-oA4fCF-84" value="new voltage" style="edgeStyle=orthogonalEdgeStyle;rounded=0;orthogonalLoop=1;jettySize=auto;html=1;exitX=0.5;exitY=1;exitDx=0;exitDy=0;entryX=0;entryY=0.5;entryDx=0;entryDy=0;startArrow=none;startFill=0;" edge="1" parent="1" source="Y0dgIXWkeP1vq-oA4fCF-85" target="Y0dgIXWkeP1vq-oA4fCF-87">
          <mxGeometry x="-0.04" relative="1" as="geometry">
            <mxPoint as="offset" />
          </mxGeometry>
        </mxCell>
        <mxCell id="Y0dgIXWkeP1vq-oA4fCF-85" value="Import EE&lt;div&gt;&amp;lt;Physical&amp;gt;&lt;br&gt;&lt;/div&gt;" style="rounded=0;whiteSpace=wrap;html=1;" vertex="1" parent="1">
          <mxGeometry x="1760" y="170" width="120" height="60" as="geometry" />
        </mxCell>
        <mxCell id="Y0dgIXWkeP1vq-oA4fCF-86" value="EE_1&lt;div&gt;&amp;lt;Power&amp;gt;&lt;br&gt;&lt;/div&gt;" style="ellipse;whiteSpace=wrap;html=1;aspect=fixed;" vertex="1" parent="1">
          <mxGeometry x="1990" y="50" width="80" height="80" as="geometry" />
        </mxCell>
        <mxCell id="Y0dgIXWkeP1vq-oA4fCF-87" value="EE_2&lt;div&gt;&amp;lt;Power&amp;gt;&lt;br&gt;&lt;/div&gt;" style="ellipse;whiteSpace=wrap;html=1;aspect=fixed;" vertex="1" parent="1">
          <mxGeometry x="1790" y="270" width="80" height="80" as="geometry" />
        </mxCell>
        <mxCell id="Y0dgIXWkeP1vq-oA4fCF-88" value="HE&lt;div&gt;&amp;lt;Heat&amp;gt;&lt;/div&gt;" style="ellipse;whiteSpace=wrap;html=1;aspect=fixed;" vertex="1" parent="1">
          <mxGeometry x="2100" y="340" width="80" height="80" as="geometry" />
        </mxCell>
        <mxCell id="Y0dgIXWkeP1vq-oA4fCF-89" value="Store EE&lt;div&gt;&amp;lt;Physical&amp;gt;&lt;br&gt;&lt;/div&gt;" style="rounded=0;whiteSpace=wrap;html=1;" vertex="1" parent="1">
          <mxGeometry x="1970" y="170" width="120" height="60" as="geometry" />
        </mxCell>
        <mxCell id="Y0dgIXWkeP1vq-oA4fCF-90" value="Modulate EE&lt;div&gt;&amp;lt;Physical, Logical&amp;gt;&lt;br&gt;&lt;/div&gt;" style="rounded=0;whiteSpace=wrap;html=1;" vertex="1" parent="1">
          <mxGeometry x="2160" y="170" width="120" height="60" as="geometry" />
        </mxCell>
        <mxCell id="Y0dgIXWkeP1vq-oA4fCF-91" value="new current (r)" style="edgeStyle=orthogonalEdgeStyle;rounded=0;orthogonalLoop=1;jettySize=auto;html=1;exitX=0;exitY=0.5;exitDx=0;exitDy=0;startArrow=classic;startFill=1;endArrow=none;endFill=0;" edge="1" parent="1" source="Y0dgIXWkeP1vq-oA4fCF-92" target="Y0dgIXWkeP1vq-oA4fCF-87">
          <mxGeometry relative="1" as="geometry" />
        </mxCell>
        <mxCell id="Y0dgIXWkeP1vq-oA4fCF-92" value="Convert EE to HE&lt;div&gt;&amp;lt;Physical&amp;gt;&lt;br&gt;&lt;/div&gt;" style="rounded=0;whiteSpace=wrap;html=1;" vertex="1" parent="1">
          <mxGeometry x="1970" y="280" width="120" height="60" as="geometry" />
        </mxCell>
        <mxCell id="Y0dgIXWkeP1vq-oA4fCF-93" value="EE_1_out&lt;div&gt;&amp;lt;Power&amp;gt;&lt;br&gt;&lt;/div&gt;" style="ellipse;whiteSpace=wrap;html=1;aspect=fixed;" vertex="1" parent="1">
          <mxGeometry x="2300" y="50" width="80" height="80" as="geometry" />
        </mxCell>
        <mxCell id="Y0dgIXWkeP1vq-oA4fCF-94" value="Export EE&lt;div&gt;&amp;lt;Physical&amp;gt;&lt;br&gt;&lt;/div&gt;" style="rounded=0;whiteSpace=wrap;html=1;" vertex="1" parent="1">
          <mxGeometry x="2360" y="170" width="120" height="60" as="geometry" />
        </mxCell>
        <mxCell id="Y0dgIXWkeP1vq-oA4fCF-95" value="Export HE&lt;div&gt;&amp;lt;Physical&amp;gt;&lt;br&gt;&lt;/div&gt;" style="rounded=0;whiteSpace=wrap;html=1;" vertex="1" parent="1">
          <mxGeometry x="2170" y="280" width="120" height="60" as="geometry" />
        </mxCell>
        <mxCell id="Y0dgIXWkeP1vq-oA4fCF-96" value="&lt;b&gt;ED&lt;/b&gt;" style="rounded=0;whiteSpace=wrap;html=1;" vertex="1" parent="1">
          <mxGeometry x="2270" y="320" width="20" height="20" as="geometry" />
        </mxCell>
        <mxCell id="Y0dgIXWkeP1vq-oA4fCF-97" value="&lt;b&gt;IS&lt;/b&gt;" style="rounded=0;whiteSpace=wrap;html=1;" vertex="1" parent="1">
          <mxGeometry x="2070" y="320" width="20" height="20" as="geometry" />
        </mxCell>
        <mxCell id="Y0dgIXWkeP1vq-oA4fCF-98" value="&lt;b&gt;IR&lt;/b&gt;" style="rounded=0;whiteSpace=wrap;html=1;" vertex="1" parent="1">
          <mxGeometry x="2460" y="210" width="20" height="20" as="geometry" />
        </mxCell>
        <mxCell id="Y0dgIXWkeP1vq-oA4fCF-99" value="&lt;b&gt;IR&lt;/b&gt;" style="rounded=0;whiteSpace=wrap;html=1;" vertex="1" parent="1">
          <mxGeometry x="2260" y="210" width="20" height="20" as="geometry" />
        </mxCell>
        <mxCell id="Y0dgIXWkeP1vq-oA4fCF-100" value="&lt;b&gt;IR&lt;/b&gt;" style="rounded=0;whiteSpace=wrap;html=1;" vertex="1" parent="1">
          <mxGeometry x="2070" y="210" width="20" height="20" as="geometry" />
        </mxCell>
        <mxCell id="Y0dgIXWkeP1vq-oA4fCF-101" value="&lt;b&gt;IR&lt;/b&gt;" style="rounded=0;whiteSpace=wrap;html=1;" vertex="1" parent="1">
          <mxGeometry x="1860" y="210" width="20" height="20" as="geometry" />
        </mxCell>
        <mxCell id="Y0dgIXWkeP1vq-oA4fCF-102" value="" style="group" vertex="1" connectable="0" parent="1">
          <mxGeometry x="1760" y="170" width="40" height="20" as="geometry" />
        </mxCell>
        <mxCell id="Y0dgIXWkeP1vq-oA4fCF-103" value="s::e" style="shape=offPageConnector;whiteSpace=wrap;html=1;" vertex="1" parent="Y0dgIXWkeP1vq-oA4fCF-102">
          <mxGeometry width="40" height="20" as="geometry" />
        </mxCell>
        <mxCell id="Y0dgIXWkeP1vq-oA4fCF-104" style="edgeStyle=orthogonalEdgeStyle;rounded=0;orthogonalLoop=1;jettySize=auto;html=1;exitX=0;exitY=0;exitDx=0;exitDy=0;entryX=0.75;entryY=0;entryDx=0;entryDy=0;startArrow=baseDash;startFill=0;" edge="1" parent="Y0dgIXWkeP1vq-oA4fCF-102">
          <mxGeometry relative="1" as="geometry">
            <mxPoint x="22.5" as="targetPoint" />
            <Array as="points" />
            <mxPoint as="sourcePoint" />
          </mxGeometry>
        </mxCell>
        <mxCell id="Y0dgIXWkeP1vq-oA4fCF-105" value="new current (r)" style="edgeStyle=orthogonalEdgeStyle;rounded=0;orthogonalLoop=1;jettySize=auto;html=1;exitX=0.5;exitY=0;exitDx=0;exitDy=0;startArrow=classic;startFill=1;entryX=0.5;entryY=1;entryDx=0;entryDy=0;endArrow=none;endFill=0;" edge="1" parent="1" source="Y0dgIXWkeP1vq-oA4fCF-89" target="Y0dgIXWkeP1vq-oA4fCF-86">
          <mxGeometry x="0.4" relative="1" as="geometry">
            <mxPoint x="1990" y="330" as="sourcePoint" />
            <mxPoint x="1950" y="110" as="targetPoint" />
            <mxPoint as="offset" />
          </mxGeometry>
        </mxCell>
        <mxCell id="Y0dgIXWkeP1vq-oA4fCF-106" value="new voltage" style="edgeStyle=orthogonalEdgeStyle;rounded=0;orthogonalLoop=1;jettySize=auto;html=1;entryX=0.5;entryY=0;entryDx=0;entryDy=0;startArrow=classic;startFill=1;exitX=0;exitY=0.5;exitDx=0;exitDy=0;endArrow=none;endFill=0;" edge="1" parent="1" source="Y0dgIXWkeP1vq-oA4fCF-86" target="Y0dgIXWkeP1vq-oA4fCF-85">
          <mxGeometry x="-0.0667" relative="1" as="geometry">
            <mxPoint x="2090" y="80" as="sourcePoint" />
            <mxPoint x="1830" y="100" as="targetPoint" />
            <mxPoint as="offset" />
          </mxGeometry>
        </mxCell>
        <mxCell id="Y0dgIXWkeP1vq-oA4fCF-107" value="new current (r)" style="edgeStyle=orthogonalEdgeStyle;rounded=0;orthogonalLoop=1;jettySize=auto;html=1;startArrow=classic;startFill=1;entryX=1;entryY=0.5;entryDx=0;entryDy=0;exitX=0.25;exitY=0;exitDx=0;exitDy=0;endArrow=none;endFill=0;" edge="1" parent="1" source="Y0dgIXWkeP1vq-oA4fCF-90" target="Y0dgIXWkeP1vq-oA4fCF-86">
          <mxGeometry relative="1" as="geometry">
            <mxPoint x="2145" y="189.5" as="sourcePoint" />
            <mxPoint x="2090" y="100" as="targetPoint" />
          </mxGeometry>
        </mxCell>
        <mxCell id="Y0dgIXWkeP1vq-oA4fCF-108" value="new voltage" style="edgeStyle=orthogonalEdgeStyle;rounded=0;orthogonalLoop=1;jettySize=auto;html=1;entryX=0.75;entryY=0;entryDx=0;entryDy=0;startArrow=classic;startFill=1;exitX=0;exitY=0.5;exitDx=0;exitDy=0;endArrow=none;endFill=0;" edge="1" parent="1" source="Y0dgIXWkeP1vq-oA4fCF-93" target="Y0dgIXWkeP1vq-oA4fCF-90">
          <mxGeometry x="0.3846" relative="1" as="geometry">
            <mxPoint x="2440" y="-30" as="sourcePoint" />
            <mxPoint x="2270" y="50" as="targetPoint" />
            <mxPoint as="offset" />
          </mxGeometry>
        </mxCell>
        <mxCell id="Y0dgIXWkeP1vq-oA4fCF-109" value="new current (r)" style="edgeStyle=orthogonalEdgeStyle;rounded=0;orthogonalLoop=1;jettySize=auto;html=1;startArrow=classic;startFill=1;entryX=1;entryY=0.5;entryDx=0;entryDy=0;exitX=0.5;exitY=0;exitDx=0;exitDy=0;endArrow=none;endFill=0;" edge="1" parent="1" source="Y0dgIXWkeP1vq-oA4fCF-94" target="Y0dgIXWkeP1vq-oA4fCF-93">
          <mxGeometry x="-0.3333" relative="1" as="geometry">
            <mxPoint x="2590" y="100" as="sourcePoint" />
            <mxPoint x="2470" y="20" as="targetPoint" />
            <mxPoint as="offset" />
          </mxGeometry>
        </mxCell>
        <mxCell id="Y0dgIXWkeP1vq-oA4fCF-110" value="new heat" style="edgeStyle=orthogonalEdgeStyle;rounded=0;orthogonalLoop=1;jettySize=auto;html=1;startArrow=classic;startFill=1;entryX=0.5;entryY=1;entryDx=0;entryDy=0;exitX=0;exitY=0.5;exitDx=0;exitDy=0;endArrow=none;endFill=0;" edge="1" parent="1" source="Y0dgIXWkeP1vq-oA4fCF-88" target="Y0dgIXWkeP1vq-oA4fCF-92">
          <mxGeometry relative="1" as="geometry">
            <mxPoint x="2140" y="480" as="sourcePoint" />
            <mxPoint x="2020" y="400" as="targetPoint" />
          </mxGeometry>
        </mxCell>
        <mxCell id="Y0dgIXWkeP1vq-oA4fCF-111" value="new heat" style="edgeStyle=orthogonalEdgeStyle;rounded=0;orthogonalLoop=1;jettySize=auto;html=1;startArrow=classic;startFill=1;entryX=1;entryY=0.5;entryDx=0;entryDy=0;exitX=0.5;exitY=1;exitDx=0;exitDy=0;endArrow=none;endFill=0;" edge="1" parent="1" source="Y0dgIXWkeP1vq-oA4fCF-95" target="Y0dgIXWkeP1vq-oA4fCF-88">
          <mxGeometry relative="1" as="geometry">
            <mxPoint x="2390" y="450" as="sourcePoint" />
            <mxPoint x="2270" y="370" as="targetPoint" />
          </mxGeometry>
        </mxCell>
        <mxCell id="Y0dgIXWkeP1vq-oA4fCF-112" style="edgeStyle=orthogonalEdgeStyle;rounded=0;orthogonalLoop=1;jettySize=auto;html=1;entryX=1;entryY=0;entryDx=0;entryDy=0;endArrow=ERoneToMany;endFill=0;" edge="1" parent="1" target="Y0dgIXWkeP1vq-oA4fCF-103">
          <mxGeometry relative="1" as="geometry">
            <mxPoint x="1805.5" y="169.39" as="targetPoint" />
            <Array as="points">
              <mxPoint x="1760" y="169" />
              <mxPoint x="1775" y="169" />
            </Array>
            <mxPoint x="1760" y="172" as="sourcePoint" />
          </mxGeometry>
        </mxCell>
        <mxCell id="Y0dgIXWkeP1vq-oA4fCF-113" value="" style="group" vertex="1" connectable="0" parent="1">
          <mxGeometry x="1970" y="170" width="50" height="20" as="geometry" />
        </mxCell>
        <mxCell id="Y0dgIXWkeP1vq-oA4fCF-114" value="i:1m:i" style="shape=offPageConnector;whiteSpace=wrap;html=1;" vertex="1" parent="Y0dgIXWkeP1vq-oA4fCF-113">
          <mxGeometry width="37.5" height="20" as="geometry" />
        </mxCell>
        <mxCell id="Y0dgIXWkeP1vq-oA4fCF-115" value="" style="group" vertex="1" connectable="0" parent="1">
          <mxGeometry x="2160" y="170" width="40" height="20" as="geometry" />
        </mxCell>
        <mxCell id="Y0dgIXWkeP1vq-oA4fCF-116" value="i:1s:i" style="shape=offPageConnector;whiteSpace=wrap;html=1;" vertex="1" parent="Y0dgIXWkeP1vq-oA4fCF-115">
          <mxGeometry width="30" height="20" as="geometry" />
        </mxCell>
        <mxCell id="Y0dgIXWkeP1vq-oA4fCF-117" value="" style="group" vertex="1" connectable="0" parent="1">
          <mxGeometry x="2360" y="170" width="40" height="20" as="geometry" />
        </mxCell>
        <mxCell id="Y0dgIXWkeP1vq-oA4fCF-118" value="i::i" style="shape=offPageConnector;whiteSpace=wrap;html=1;" vertex="1" parent="Y0dgIXWkeP1vq-oA4fCF-117">
          <mxGeometry width="30" height="20" as="geometry" />
        </mxCell>
        <mxCell id="Y0dgIXWkeP1vq-oA4fCF-119" value="" style="group" vertex="1" connectable="0" parent="1">
          <mxGeometry x="1970" y="280" width="40" height="20" as="geometry" />
        </mxCell>
        <mxCell id="Y0dgIXWkeP1vq-oA4fCF-120" value="i::i" style="shape=offPageConnector;whiteSpace=wrap;html=1;" vertex="1" parent="Y0dgIXWkeP1vq-oA4fCF-119">
          <mxGeometry width="30" height="20" as="geometry" />
        </mxCell>
        <mxCell id="Y0dgIXWkeP1vq-oA4fCF-121" value="" style="group" vertex="1" connectable="0" parent="1">
          <mxGeometry x="2170" y="280" width="40" height="20" as="geometry" />
        </mxCell>
        <mxCell id="Y0dgIXWkeP1vq-oA4fCF-122" value="i::i" style="shape=offPageConnector;whiteSpace=wrap;html=1;" vertex="1" parent="Y0dgIXWkeP1vq-oA4fCF-121">
          <mxGeometry width="30" height="20" as="geometry" />
        </mxCell>
        <mxCell id="Y0dgIXWkeP1vq-oA4fCF-123" value="" style="rounded=0;whiteSpace=wrap;html=1;strokeColor=#999999;strokeWidth=3;fillColor=none;" vertex="1" parent="1">
          <mxGeometry x="2150" y="160" width="140" height="80" as="geometry" />
        </mxCell>
        <mxCell id="Y0dgIXWkeP1vq-oA4fCF-124" value="&lt;b&gt;&lt;font style=&quot;font-size: 14px;&quot;&gt;Fault Scenario: Electrical Short&lt;/font&gt;&lt;/b&gt;&lt;div&gt;&lt;b&gt;&lt;font style=&quot;font-size: 14px;&quot;&gt;High current draw while voltage output goes to zero.&lt;/font&gt;&lt;/b&gt;&lt;/div&gt;" style="text;html=1;align=center;verticalAlign=middle;whiteSpace=wrap;rounded=0;fontColor=#999999;" vertex="1" parent="1">
          <mxGeometry x="2090" y="20" width="210" height="70" as="geometry" />
        </mxCell>
        <mxCell id="Y0dgIXWkeP1vq-oA4fCF-125" value="" style="endArrow=classic;html=1;rounded=0;strokeWidth=3;strokeColor=#999999;exitX=0.505;exitY=1.1;exitDx=0;exitDy=0;exitPerimeter=0;" edge="1" parent="1" source="Y0dgIXWkeP1vq-oA4fCF-124">
          <mxGeometry width="50" height="50" relative="1" as="geometry">
            <mxPoint x="2190" y="80" as="sourcePoint" />
            <mxPoint x="2220" y="160" as="targetPoint" />
          </mxGeometry>
        </mxCell>
        <mxCell id="Y0dgIXWkeP1vq-oA4fCF-126" value="&lt;font color=&quot;#ff1100&quot;&gt;&lt;span style=&quot;font-size: 14px;&quot;&gt;&lt;b&gt;High current draw&lt;/b&gt;&lt;/span&gt;&lt;/font&gt;" style="text;html=1;align=center;verticalAlign=middle;whiteSpace=wrap;rounded=0;" vertex="1" parent="1">
          <mxGeometry x="1870" y="20" width="100" height="30" as="geometry" />
        </mxCell>
        <mxCell id="Y0dgIXWkeP1vq-oA4fCF-127" value="&lt;font color=&quot;#ff1100&quot;&gt;&lt;span style=&quot;font-size: 14px;&quot;&gt;&lt;b&gt;Low/no voltage output&lt;/b&gt;&lt;/span&gt;&lt;/font&gt;" style="text;html=1;align=center;verticalAlign=middle;whiteSpace=wrap;rounded=0;" vertex="1" parent="1">
          <mxGeometry x="2380" y="20" width="130" height="30" as="geometry" />
        </mxCell>
        <mxCell id="Y0dgIXWkeP1vq-oA4fCF-128" value="" style="endArrow=classic;html=1;rounded=0;strokeWidth=3;strokeColor=#FF1100;entryX=0;entryY=0.25;entryDx=0;entryDy=0;entryPerimeter=0;" edge="1" parent="1" target="Y0dgIXWkeP1vq-oA4fCF-86">
          <mxGeometry width="50" height="50" relative="1" as="geometry">
            <mxPoint x="1910" y="50" as="sourcePoint" />
            <mxPoint x="1970" y="120" as="targetPoint" />
          </mxGeometry>
        </mxCell>
        <mxCell id="Y0dgIXWkeP1vq-oA4fCF-129" value="" style="endArrow=classic;html=1;rounded=0;strokeWidth=3;strokeColor=#FF1100;exitX=0.454;exitY=1.067;exitDx=0;exitDy=0;exitPerimeter=0;" edge="1" parent="1" source="Y0dgIXWkeP1vq-oA4fCF-127" target="Y0dgIXWkeP1vq-oA4fCF-93">
          <mxGeometry width="50" height="50" relative="1" as="geometry">
            <mxPoint x="2570" y="100" as="sourcePoint" />
            <mxPoint x="2650" y="120" as="targetPoint" />
          </mxGeometry>
        </mxCell>
        <mxCell id="Y0dgIXWkeP1vq-oA4fCF-130" value="new voltage" style="edgeStyle=orthogonalEdgeStyle;rounded=0;orthogonalLoop=1;jettySize=auto;html=1;exitX=0.5;exitY=1;exitDx=0;exitDy=0;entryX=0;entryY=0.5;entryDx=0;entryDy=0;startArrow=none;startFill=0;" edge="1" parent="1" source="Y0dgIXWkeP1vq-oA4fCF-131" target="Y0dgIXWkeP1vq-oA4fCF-133">
          <mxGeometry x="-0.04" relative="1" as="geometry">
            <mxPoint as="offset" />
          </mxGeometry>
        </mxCell>
        <mxCell id="Y0dgIXWkeP1vq-oA4fCF-131" value="Import EE&lt;div&gt;&amp;lt;Physical&amp;gt;&lt;br&gt;&lt;/div&gt;" style="rounded=0;whiteSpace=wrap;html=1;" vertex="1" parent="1">
          <mxGeometry x="2710" y="170" width="120" height="60" as="geometry" />
        </mxCell>
        <mxCell id="Y0dgIXWkeP1vq-oA4fCF-132" value="EE_1&lt;div&gt;&amp;lt;Power&amp;gt;&lt;br&gt;&lt;/div&gt;" style="ellipse;whiteSpace=wrap;html=1;aspect=fixed;" vertex="1" parent="1">
          <mxGeometry x="2940" y="50" width="80" height="80" as="geometry" />
        </mxCell>
        <mxCell id="Y0dgIXWkeP1vq-oA4fCF-133" value="EE_2&lt;div&gt;&amp;lt;Power&amp;gt;&lt;br&gt;&lt;/div&gt;" style="ellipse;whiteSpace=wrap;html=1;aspect=fixed;" vertex="1" parent="1">
          <mxGeometry x="2740" y="270" width="80" height="80" as="geometry" />
        </mxCell>
        <mxCell id="Y0dgIXWkeP1vq-oA4fCF-134" value="HE&lt;div&gt;&amp;lt;Heat&amp;gt;&lt;/div&gt;" style="ellipse;whiteSpace=wrap;html=1;aspect=fixed;" vertex="1" parent="1">
          <mxGeometry x="3050" y="340" width="80" height="80" as="geometry" />
        </mxCell>
        <mxCell id="Y0dgIXWkeP1vq-oA4fCF-135" value="Store EE&lt;div&gt;&amp;lt;Physical&amp;gt;&lt;br&gt;&lt;/div&gt;" style="rounded=0;whiteSpace=wrap;html=1;" vertex="1" parent="1">
          <mxGeometry x="2920" y="170" width="120" height="60" as="geometry" />
        </mxCell>
        <mxCell id="Y0dgIXWkeP1vq-oA4fCF-136" value="Modulate EE&lt;div&gt;&amp;lt;Physical, Logical&amp;gt;&lt;br&gt;&lt;/div&gt;" style="rounded=0;whiteSpace=wrap;html=1;" vertex="1" parent="1">
          <mxGeometry x="3110" y="170" width="120" height="60" as="geometry" />
        </mxCell>
        <mxCell id="Y0dgIXWkeP1vq-oA4fCF-137" value="new current (r)" style="edgeStyle=orthogonalEdgeStyle;rounded=0;orthogonalLoop=1;jettySize=auto;html=1;exitX=0;exitY=0.5;exitDx=0;exitDy=0;startArrow=classic;startFill=1;endArrow=none;endFill=0;" edge="1" parent="1" source="Y0dgIXWkeP1vq-oA4fCF-138" target="Y0dgIXWkeP1vq-oA4fCF-133">
          <mxGeometry relative="1" as="geometry" />
        </mxCell>
        <mxCell id="Y0dgIXWkeP1vq-oA4fCF-138" value="Convert EE to HE&lt;div&gt;&amp;lt;Physical&amp;gt;&lt;br&gt;&lt;/div&gt;" style="rounded=0;whiteSpace=wrap;html=1;" vertex="1" parent="1">
          <mxGeometry x="2920" y="280" width="120" height="60" as="geometry" />
        </mxCell>
        <mxCell id="Y0dgIXWkeP1vq-oA4fCF-139" value="EE_1_out&lt;div&gt;&amp;lt;Power&amp;gt;&lt;br&gt;&lt;/div&gt;" style="ellipse;whiteSpace=wrap;html=1;aspect=fixed;" vertex="1" parent="1">
          <mxGeometry x="3250" y="50" width="80" height="80" as="geometry" />
        </mxCell>
        <mxCell id="Y0dgIXWkeP1vq-oA4fCF-140" value="Export EE&lt;div&gt;&amp;lt;Physical&amp;gt;&lt;br&gt;&lt;/div&gt;" style="rounded=0;whiteSpace=wrap;html=1;" vertex="1" parent="1">
          <mxGeometry x="3310" y="170" width="120" height="60" as="geometry" />
        </mxCell>
        <mxCell id="Y0dgIXWkeP1vq-oA4fCF-141" value="Export HE&lt;div&gt;&amp;lt;Physical&amp;gt;&lt;br&gt;&lt;/div&gt;" style="rounded=0;whiteSpace=wrap;html=1;" vertex="1" parent="1">
          <mxGeometry x="3120" y="280" width="120" height="60" as="geometry" />
        </mxCell>
        <mxCell id="Y0dgIXWkeP1vq-oA4fCF-142" value="&lt;b&gt;ED&lt;/b&gt;" style="rounded=0;whiteSpace=wrap;html=1;" vertex="1" parent="1">
          <mxGeometry x="3220" y="320" width="20" height="20" as="geometry" />
        </mxCell>
        <mxCell id="Y0dgIXWkeP1vq-oA4fCF-143" value="&lt;b&gt;IS&lt;/b&gt;" style="rounded=0;whiteSpace=wrap;html=1;" vertex="1" parent="1">
          <mxGeometry x="3020" y="320" width="20" height="20" as="geometry" />
        </mxCell>
        <mxCell id="Y0dgIXWkeP1vq-oA4fCF-144" value="&lt;b&gt;IR&lt;/b&gt;" style="rounded=0;whiteSpace=wrap;html=1;" vertex="1" parent="1">
          <mxGeometry x="3410" y="210" width="20" height="20" as="geometry" />
        </mxCell>
        <mxCell id="Y0dgIXWkeP1vq-oA4fCF-145" value="&lt;b&gt;IR&lt;/b&gt;" style="rounded=0;whiteSpace=wrap;html=1;" vertex="1" parent="1">
          <mxGeometry x="3210" y="210" width="20" height="20" as="geometry" />
        </mxCell>
        <mxCell id="Y0dgIXWkeP1vq-oA4fCF-146" value="&lt;b&gt;IR&lt;/b&gt;" style="rounded=0;whiteSpace=wrap;html=1;" vertex="1" parent="1">
          <mxGeometry x="3020" y="210" width="20" height="20" as="geometry" />
        </mxCell>
        <mxCell id="Y0dgIXWkeP1vq-oA4fCF-147" value="&lt;b&gt;IR&lt;/b&gt;" style="rounded=0;whiteSpace=wrap;html=1;" vertex="1" parent="1">
          <mxGeometry x="2810" y="210" width="20" height="20" as="geometry" />
        </mxCell>
        <mxCell id="Y0dgIXWkeP1vq-oA4fCF-148" value="" style="group" vertex="1" connectable="0" parent="1">
          <mxGeometry x="2710" y="170" width="40" height="20" as="geometry" />
        </mxCell>
        <mxCell id="Y0dgIXWkeP1vq-oA4fCF-149" value="s::e" style="shape=offPageConnector;whiteSpace=wrap;html=1;" vertex="1" parent="Y0dgIXWkeP1vq-oA4fCF-148">
          <mxGeometry width="40" height="20" as="geometry" />
        </mxCell>
        <mxCell id="Y0dgIXWkeP1vq-oA4fCF-150" style="edgeStyle=orthogonalEdgeStyle;rounded=0;orthogonalLoop=1;jettySize=auto;html=1;exitX=0;exitY=0;exitDx=0;exitDy=0;entryX=0.75;entryY=0;entryDx=0;entryDy=0;startArrow=baseDash;startFill=0;" edge="1" parent="Y0dgIXWkeP1vq-oA4fCF-148">
          <mxGeometry relative="1" as="geometry">
            <mxPoint x="22.5" as="targetPoint" />
            <Array as="points" />
            <mxPoint as="sourcePoint" />
          </mxGeometry>
        </mxCell>
        <mxCell id="Y0dgIXWkeP1vq-oA4fCF-151" value="new current (r)" style="edgeStyle=orthogonalEdgeStyle;rounded=0;orthogonalLoop=1;jettySize=auto;html=1;exitX=0.5;exitY=0;exitDx=0;exitDy=0;startArrow=classic;startFill=1;entryX=0.5;entryY=1;entryDx=0;entryDy=0;endArrow=none;endFill=0;" edge="1" parent="1" source="Y0dgIXWkeP1vq-oA4fCF-135" target="Y0dgIXWkeP1vq-oA4fCF-132">
          <mxGeometry x="0.4" relative="1" as="geometry">
            <mxPoint x="2940" y="330" as="sourcePoint" />
            <mxPoint x="2900" y="110" as="targetPoint" />
            <mxPoint as="offset" />
          </mxGeometry>
        </mxCell>
        <mxCell id="Y0dgIXWkeP1vq-oA4fCF-152" value="new voltage" style="edgeStyle=orthogonalEdgeStyle;rounded=0;orthogonalLoop=1;jettySize=auto;html=1;entryX=0.5;entryY=0;entryDx=0;entryDy=0;startArrow=classic;startFill=1;exitX=0;exitY=0.5;exitDx=0;exitDy=0;endArrow=none;endFill=0;" edge="1" parent="1" source="Y0dgIXWkeP1vq-oA4fCF-132" target="Y0dgIXWkeP1vq-oA4fCF-131">
          <mxGeometry x="-0.0667" relative="1" as="geometry">
            <mxPoint x="3040" y="80" as="sourcePoint" />
            <mxPoint x="2780" y="100" as="targetPoint" />
            <mxPoint as="offset" />
          </mxGeometry>
        </mxCell>
        <mxCell id="Y0dgIXWkeP1vq-oA4fCF-153" value="new current (r)" style="edgeStyle=orthogonalEdgeStyle;rounded=0;orthogonalLoop=1;jettySize=auto;html=1;startArrow=classic;startFill=1;entryX=1;entryY=0.5;entryDx=0;entryDy=0;exitX=0.25;exitY=0;exitDx=0;exitDy=0;endArrow=none;endFill=0;" edge="1" parent="1" source="Y0dgIXWkeP1vq-oA4fCF-136" target="Y0dgIXWkeP1vq-oA4fCF-132">
          <mxGeometry relative="1" as="geometry">
            <mxPoint x="3095" y="189.5" as="sourcePoint" />
            <mxPoint x="3040" y="100" as="targetPoint" />
          </mxGeometry>
        </mxCell>
        <mxCell id="Y0dgIXWkeP1vq-oA4fCF-154" value="new voltage" style="edgeStyle=orthogonalEdgeStyle;rounded=0;orthogonalLoop=1;jettySize=auto;html=1;entryX=0.75;entryY=0;entryDx=0;entryDy=0;startArrow=classic;startFill=1;exitX=0;exitY=0.5;exitDx=0;exitDy=0;endArrow=none;endFill=0;" edge="1" parent="1" source="Y0dgIXWkeP1vq-oA4fCF-139" target="Y0dgIXWkeP1vq-oA4fCF-136">
          <mxGeometry x="0.3846" relative="1" as="geometry">
            <mxPoint x="3390" y="-30" as="sourcePoint" />
            <mxPoint x="3220" y="50" as="targetPoint" />
            <mxPoint as="offset" />
          </mxGeometry>
        </mxCell>
        <mxCell id="Y0dgIXWkeP1vq-oA4fCF-155" value="new current (r)" style="edgeStyle=orthogonalEdgeStyle;rounded=0;orthogonalLoop=1;jettySize=auto;html=1;startArrow=classic;startFill=1;entryX=1;entryY=0.5;entryDx=0;entryDy=0;exitX=0.5;exitY=0;exitDx=0;exitDy=0;endArrow=none;endFill=0;" edge="1" parent="1" source="Y0dgIXWkeP1vq-oA4fCF-140" target="Y0dgIXWkeP1vq-oA4fCF-139">
          <mxGeometry x="-0.3333" relative="1" as="geometry">
            <mxPoint x="3540" y="100" as="sourcePoint" />
            <mxPoint x="3420" y="20" as="targetPoint" />
            <mxPoint as="offset" />
          </mxGeometry>
        </mxCell>
        <mxCell id="Y0dgIXWkeP1vq-oA4fCF-156" value="new heat" style="edgeStyle=orthogonalEdgeStyle;rounded=0;orthogonalLoop=1;jettySize=auto;html=1;startArrow=classic;startFill=1;entryX=0.5;entryY=1;entryDx=0;entryDy=0;exitX=0;exitY=0.5;exitDx=0;exitDy=0;endArrow=none;endFill=0;" edge="1" parent="1" source="Y0dgIXWkeP1vq-oA4fCF-134" target="Y0dgIXWkeP1vq-oA4fCF-138">
          <mxGeometry relative="1" as="geometry">
            <mxPoint x="3090" y="480" as="sourcePoint" />
            <mxPoint x="2970" y="400" as="targetPoint" />
          </mxGeometry>
        </mxCell>
        <mxCell id="Y0dgIXWkeP1vq-oA4fCF-157" value="new heat" style="edgeStyle=orthogonalEdgeStyle;rounded=0;orthogonalLoop=1;jettySize=auto;html=1;startArrow=classic;startFill=1;entryX=1;entryY=0.5;entryDx=0;entryDy=0;exitX=0.5;exitY=1;exitDx=0;exitDy=0;endArrow=none;endFill=0;" edge="1" parent="1" source="Y0dgIXWkeP1vq-oA4fCF-141" target="Y0dgIXWkeP1vq-oA4fCF-134">
          <mxGeometry relative="1" as="geometry">
            <mxPoint x="3340" y="450" as="sourcePoint" />
            <mxPoint x="3220" y="370" as="targetPoint" />
          </mxGeometry>
        </mxCell>
        <mxCell id="Y0dgIXWkeP1vq-oA4fCF-158" style="edgeStyle=orthogonalEdgeStyle;rounded=0;orthogonalLoop=1;jettySize=auto;html=1;entryX=1;entryY=0;entryDx=0;entryDy=0;endArrow=ERoneToMany;endFill=0;" edge="1" parent="1" target="Y0dgIXWkeP1vq-oA4fCF-149">
          <mxGeometry relative="1" as="geometry">
            <mxPoint x="2755.5" y="169.39" as="targetPoint" />
            <Array as="points">
              <mxPoint x="2710" y="169" />
              <mxPoint x="2725" y="169" />
            </Array>
            <mxPoint x="2710" y="172" as="sourcePoint" />
          </mxGeometry>
        </mxCell>
        <mxCell id="Y0dgIXWkeP1vq-oA4fCF-159" value="" style="group" vertex="1" connectable="0" parent="1">
          <mxGeometry x="2920" y="170" width="50" height="20" as="geometry" />
        </mxCell>
        <mxCell id="Y0dgIXWkeP1vq-oA4fCF-160" value="i:1m:i" style="shape=offPageConnector;whiteSpace=wrap;html=1;" vertex="1" parent="Y0dgIXWkeP1vq-oA4fCF-159">
          <mxGeometry width="37.5" height="20" as="geometry" />
        </mxCell>
        <mxCell id="Y0dgIXWkeP1vq-oA4fCF-161" value="" style="group" vertex="1" connectable="0" parent="1">
          <mxGeometry x="3110" y="170" width="40" height="20" as="geometry" />
        </mxCell>
        <mxCell id="Y0dgIXWkeP1vq-oA4fCF-162" value="i:1s:i" style="shape=offPageConnector;whiteSpace=wrap;html=1;" vertex="1" parent="Y0dgIXWkeP1vq-oA4fCF-161">
          <mxGeometry width="30" height="20" as="geometry" />
        </mxCell>
        <mxCell id="Y0dgIXWkeP1vq-oA4fCF-163" value="" style="group" vertex="1" connectable="0" parent="1">
          <mxGeometry x="3310" y="170" width="40" height="20" as="geometry" />
        </mxCell>
        <mxCell id="Y0dgIXWkeP1vq-oA4fCF-164" value="i::i" style="shape=offPageConnector;whiteSpace=wrap;html=1;" vertex="1" parent="Y0dgIXWkeP1vq-oA4fCF-163">
          <mxGeometry width="30" height="20" as="geometry" />
        </mxCell>
        <mxCell id="Y0dgIXWkeP1vq-oA4fCF-165" value="" style="group" vertex="1" connectable="0" parent="1">
          <mxGeometry x="2920" y="280" width="40" height="20" as="geometry" />
        </mxCell>
        <mxCell id="Y0dgIXWkeP1vq-oA4fCF-166" value="i::i" style="shape=offPageConnector;whiteSpace=wrap;html=1;" vertex="1" parent="Y0dgIXWkeP1vq-oA4fCF-165">
          <mxGeometry width="30" height="20" as="geometry" />
        </mxCell>
        <mxCell id="Y0dgIXWkeP1vq-oA4fCF-167" value="" style="group" vertex="1" connectable="0" parent="1">
          <mxGeometry x="3120" y="280" width="40" height="20" as="geometry" />
        </mxCell>
        <mxCell id="Y0dgIXWkeP1vq-oA4fCF-168" value="i::i" style="shape=offPageConnector;whiteSpace=wrap;html=1;" vertex="1" parent="Y0dgIXWkeP1vq-oA4fCF-167">
          <mxGeometry width="30" height="20" as="geometry" />
        </mxCell>
        <mxCell id="Y0dgIXWkeP1vq-oA4fCF-169" value="" style="rounded=0;whiteSpace=wrap;html=1;strokeColor=#999999;strokeWidth=3;fillColor=none;" vertex="1" parent="1">
          <mxGeometry x="3100" y="160" width="140" height="80" as="geometry" />
        </mxCell>
        <mxCell id="Y0dgIXWkeP1vq-oA4fCF-170" value="&lt;b&gt;&lt;font style=&quot;font-size: 14px;&quot;&gt;Fault Scenario: Electrical Short&lt;/font&gt;&lt;/b&gt;&lt;div&gt;&lt;b&gt;&lt;font style=&quot;font-size: 14px;&quot;&gt;High current draw while voltage output goes to zero.&lt;/font&gt;&lt;/b&gt;&lt;/div&gt;" style="text;html=1;align=center;verticalAlign=middle;whiteSpace=wrap;rounded=0;fontColor=#999999;" vertex="1" parent="1">
          <mxGeometry x="3040" y="20" width="210" height="70" as="geometry" />
        </mxCell>
        <mxCell id="Y0dgIXWkeP1vq-oA4fCF-171" value="" style="endArrow=classic;html=1;rounded=0;strokeWidth=3;strokeColor=#999999;exitX=0.505;exitY=1.1;exitDx=0;exitDy=0;exitPerimeter=0;" edge="1" parent="1" source="Y0dgIXWkeP1vq-oA4fCF-170">
          <mxGeometry width="50" height="50" relative="1" as="geometry">
            <mxPoint x="3140" y="80" as="sourcePoint" />
            <mxPoint x="3170" y="160" as="targetPoint" />
          </mxGeometry>
        </mxCell>
        <mxCell id="Y0dgIXWkeP1vq-oA4fCF-172" value="&lt;font&gt;&lt;span style=&quot;font-size: 14px;&quot;&gt;&lt;b&gt;High current draw&lt;/b&gt;&lt;/span&gt;&lt;/font&gt;" style="text;html=1;align=center;verticalAlign=middle;whiteSpace=wrap;rounded=0;fontColor=#999999;" vertex="1" parent="1">
          <mxGeometry x="2820" y="20" width="100" height="30" as="geometry" />
        </mxCell>
        <mxCell id="Y0dgIXWkeP1vq-oA4fCF-173" value="&lt;font&gt;&lt;span style=&quot;font-size: 14px;&quot;&gt;&lt;b&gt;Low/no voltage output&lt;/b&gt;&lt;/span&gt;&lt;/font&gt;" style="text;html=1;align=center;verticalAlign=middle;whiteSpace=wrap;rounded=0;fontColor=#999999;" vertex="1" parent="1">
          <mxGeometry x="3330" y="20" width="130" height="30" as="geometry" />
        </mxCell>
        <mxCell id="Y0dgIXWkeP1vq-oA4fCF-174" value="" style="endArrow=classic;html=1;rounded=0;strokeWidth=3;strokeColor=#999999;entryX=0;entryY=0.25;entryDx=0;entryDy=0;entryPerimeter=0;fontColor=#999999;" edge="1" parent="1" target="Y0dgIXWkeP1vq-oA4fCF-132">
          <mxGeometry width="50" height="50" relative="1" as="geometry">
            <mxPoint x="2860" y="50" as="sourcePoint" />
            <mxPoint x="2920" y="120" as="targetPoint" />
          </mxGeometry>
        </mxCell>
        <mxCell id="Y0dgIXWkeP1vq-oA4fCF-175" value="" style="endArrow=classic;html=1;rounded=0;strokeWidth=3;strokeColor=#999999;exitX=0.454;exitY=1.067;exitDx=0;exitDy=0;exitPerimeter=0;fontColor=#999999;" edge="1" parent="1" source="Y0dgIXWkeP1vq-oA4fCF-173" target="Y0dgIXWkeP1vq-oA4fCF-139">
          <mxGeometry width="50" height="50" relative="1" as="geometry">
            <mxPoint x="3520" y="100" as="sourcePoint" />
            <mxPoint x="3600" y="120" as="targetPoint" />
          </mxGeometry>
        </mxCell>
        <mxCell id="Y0dgIXWkeP1vq-oA4fCF-176" value="" style="rounded=0;whiteSpace=wrap;html=1;strokeColor=#FF1100;strokeWidth=3;fillColor=none;" vertex="1" parent="1">
          <mxGeometry x="2910" y="160" width="140" height="80" as="geometry" />
        </mxCell>
        <mxCell id="Y0dgIXWkeP1vq-oA4fCF-177" value="" style="rounded=0;whiteSpace=wrap;html=1;strokeColor=#FF1100;strokeWidth=3;fillColor=none;" vertex="1" parent="1">
          <mxGeometry x="3300" y="160" width="140" height="80" as="geometry" />
        </mxCell>
        <mxCell id="Y0dgIXWkeP1vq-oA4fCF-178" value="" style="endArrow=classic;html=1;rounded=0;strokeWidth=3;strokeColor=#FF1100;" edge="1" parent="1">
          <mxGeometry width="50" height="50" relative="1" as="geometry">
            <mxPoint x="2850" y="370" as="sourcePoint" />
            <mxPoint x="2910" y="240" as="targetPoint" />
          </mxGeometry>
        </mxCell>
        <mxCell id="Y0dgIXWkeP1vq-oA4fCF-179" value="&lt;font color=&quot;#ff1100&quot;&gt;&lt;span style=&quot;font-size: 14px;&quot;&gt;&lt;b&gt;Energy storage depleted&lt;/b&gt;&lt;/span&gt;&lt;/font&gt;" style="text;html=1;align=center;verticalAlign=middle;whiteSpace=wrap;rounded=0;" vertex="1" parent="1">
          <mxGeometry x="2770" y="380" width="100" height="30" as="geometry" />
        </mxCell>
        <mxCell id="Y0dgIXWkeP1vq-oA4fCF-182" value="&lt;font color=&quot;#ff1100&quot;&gt;&lt;span style=&quot;font-size: 14px;&quot;&gt;&lt;b&gt;Low/no EE exported to external system&lt;/b&gt;&lt;/span&gt;&lt;/font&gt;" style="text;html=1;align=center;verticalAlign=middle;whiteSpace=wrap;rounded=0;" vertex="1" parent="1">
          <mxGeometry x="3470" y="95" width="150" height="75" as="geometry" />
        </mxCell>
        <mxCell id="Y0dgIXWkeP1vq-oA4fCF-183" value="" style="endArrow=classic;html=1;rounded=0;strokeWidth=3;strokeColor=#FF1100;exitX=0.25;exitY=1;exitDx=0;exitDy=0;entryX=1;entryY=0.5;entryDx=0;entryDy=0;" edge="1" parent="1" source="Y0dgIXWkeP1vq-oA4fCF-182" target="Y0dgIXWkeP1vq-oA4fCF-177">
          <mxGeometry width="50" height="50" relative="1" as="geometry">
            <mxPoint x="3510" y="290" as="sourcePoint" />
            <mxPoint x="3560" y="240" as="targetPoint" />
          </mxGeometry>
        </mxCell>
        <mxCell id="Y0dgIXWkeP1vq-oA4fCF-236" value="" style="rounded=0;whiteSpace=wrap;html=1;strokeColor=#FF1100;strokeWidth=3;fillColor=none;" vertex="1" parent="1">
          <mxGeometry x="2700" y="160" width="140" height="80" as="geometry" />
        </mxCell>
        <mxCell id="Y0dgIXWkeP1vq-oA4fCF-237" value="&lt;font color=&quot;#ff1100&quot;&gt;&lt;span style=&quot;font-size: 14px;&quot;&gt;&lt;b&gt;Fuse/circuitry burnt out&lt;/b&gt;&lt;/span&gt;&lt;/font&gt;" style="text;html=1;align=center;verticalAlign=middle;whiteSpace=wrap;rounded=0;" vertex="1" parent="1">
          <mxGeometry x="2650" y="117.5" width="100" height="30" as="geometry" />
        </mxCell>
        <mxCell id="Y0dgIXWkeP1vq-oA4fCF-238" value="new voltage" style="edgeStyle=orthogonalEdgeStyle;rounded=0;orthogonalLoop=1;jettySize=auto;html=1;exitX=0.5;exitY=1;exitDx=0;exitDy=0;entryX=0;entryY=0.5;entryDx=0;entryDy=0;startArrow=none;startFill=0;" edge="1" parent="1" source="Y0dgIXWkeP1vq-oA4fCF-239" target="Y0dgIXWkeP1vq-oA4fCF-241">
          <mxGeometry x="-0.04" relative="1" as="geometry">
            <mxPoint as="offset" />
          </mxGeometry>
        </mxCell>
        <mxCell id="Y0dgIXWkeP1vq-oA4fCF-239" value="Import EE&lt;div&gt;&amp;lt;Physical&amp;gt;&lt;br&gt;&lt;/div&gt;" style="rounded=0;whiteSpace=wrap;html=1;" vertex="1" parent="1">
          <mxGeometry x="3850" y="160" width="120" height="60" as="geometry" />
        </mxCell>
        <mxCell id="Y0dgIXWkeP1vq-oA4fCF-240" value="EE_1&lt;div&gt;&amp;lt;Power&amp;gt;&lt;br&gt;&lt;/div&gt;" style="ellipse;whiteSpace=wrap;html=1;aspect=fixed;" vertex="1" parent="1">
          <mxGeometry x="4080" y="40" width="80" height="80" as="geometry" />
        </mxCell>
        <mxCell id="Y0dgIXWkeP1vq-oA4fCF-241" value="EE_2&lt;div&gt;&amp;lt;Power&amp;gt;&lt;br&gt;&lt;/div&gt;" style="ellipse;whiteSpace=wrap;html=1;aspect=fixed;" vertex="1" parent="1">
          <mxGeometry x="3880" y="260" width="80" height="80" as="geometry" />
        </mxCell>
        <mxCell id="Y0dgIXWkeP1vq-oA4fCF-242" value="HE&lt;div&gt;&amp;lt;Heat&amp;gt;&lt;/div&gt;" style="ellipse;whiteSpace=wrap;html=1;aspect=fixed;" vertex="1" parent="1">
          <mxGeometry x="4190" y="330" width="80" height="80" as="geometry" />
        </mxCell>
        <mxCell id="Y0dgIXWkeP1vq-oA4fCF-243" value="Store EE&lt;div&gt;&amp;lt;Physical&amp;gt;&lt;br&gt;&lt;/div&gt;" style="rounded=0;whiteSpace=wrap;html=1;" vertex="1" parent="1">
          <mxGeometry x="4060" y="160" width="120" height="60" as="geometry" />
        </mxCell>
        <mxCell id="Y0dgIXWkeP1vq-oA4fCF-244" value="Modulate EE&lt;div&gt;&amp;lt;Physical, Logical&amp;gt;&lt;br&gt;&lt;/div&gt;" style="rounded=0;whiteSpace=wrap;html=1;" vertex="1" parent="1">
          <mxGeometry x="4250" y="160" width="120" height="60" as="geometry" />
        </mxCell>
        <mxCell id="Y0dgIXWkeP1vq-oA4fCF-245" value="new current (r)" style="edgeStyle=orthogonalEdgeStyle;rounded=0;orthogonalLoop=1;jettySize=auto;html=1;exitX=0;exitY=0.5;exitDx=0;exitDy=0;startArrow=classic;startFill=1;endArrow=none;endFill=0;" edge="1" parent="1" source="Y0dgIXWkeP1vq-oA4fCF-246" target="Y0dgIXWkeP1vq-oA4fCF-241">
          <mxGeometry relative="1" as="geometry" />
        </mxCell>
        <mxCell id="Y0dgIXWkeP1vq-oA4fCF-246" value="Convert EE to HE&lt;div&gt;&amp;lt;Physical&amp;gt;&lt;br&gt;&lt;/div&gt;" style="rounded=0;whiteSpace=wrap;html=1;" vertex="1" parent="1">
          <mxGeometry x="4060" y="270" width="120" height="60" as="geometry" />
        </mxCell>
        <mxCell id="Y0dgIXWkeP1vq-oA4fCF-247" value="EE_1_out&lt;div&gt;&amp;lt;Power&amp;gt;&lt;br&gt;&lt;/div&gt;" style="ellipse;whiteSpace=wrap;html=1;aspect=fixed;" vertex="1" parent="1">
          <mxGeometry x="4390" y="40" width="80" height="80" as="geometry" />
        </mxCell>
        <mxCell id="Y0dgIXWkeP1vq-oA4fCF-248" value="Export EE&lt;div&gt;&amp;lt;Physical&amp;gt;&lt;br&gt;&lt;/div&gt;" style="rounded=0;whiteSpace=wrap;html=1;" vertex="1" parent="1">
          <mxGeometry x="4450" y="160" width="120" height="60" as="geometry" />
        </mxCell>
        <mxCell id="Y0dgIXWkeP1vq-oA4fCF-249" value="Export HE&lt;div&gt;&amp;lt;Physical&amp;gt;&lt;br&gt;&lt;/div&gt;" style="rounded=0;whiteSpace=wrap;html=1;" vertex="1" parent="1">
          <mxGeometry x="4260" y="270" width="120" height="60" as="geometry" />
        </mxCell>
        <mxCell id="Y0dgIXWkeP1vq-oA4fCF-250" value="&lt;b&gt;ED&lt;/b&gt;" style="rounded=0;whiteSpace=wrap;html=1;" vertex="1" parent="1">
          <mxGeometry x="4360" y="310" width="20" height="20" as="geometry" />
        </mxCell>
        <mxCell id="Y0dgIXWkeP1vq-oA4fCF-251" value="&lt;b&gt;IS&lt;/b&gt;" style="rounded=0;whiteSpace=wrap;html=1;" vertex="1" parent="1">
          <mxGeometry x="4160" y="310" width="20" height="20" as="geometry" />
        </mxCell>
        <mxCell id="Y0dgIXWkeP1vq-oA4fCF-252" value="&lt;b&gt;IR&lt;/b&gt;" style="rounded=0;whiteSpace=wrap;html=1;" vertex="1" parent="1">
          <mxGeometry x="4550" y="200" width="20" height="20" as="geometry" />
        </mxCell>
        <mxCell id="Y0dgIXWkeP1vq-oA4fCF-253" value="&lt;b&gt;IR&lt;/b&gt;" style="rounded=0;whiteSpace=wrap;html=1;" vertex="1" parent="1">
          <mxGeometry x="4350" y="200" width="20" height="20" as="geometry" />
        </mxCell>
        <mxCell id="Y0dgIXWkeP1vq-oA4fCF-254" value="&lt;b&gt;IR&lt;/b&gt;" style="rounded=0;whiteSpace=wrap;html=1;" vertex="1" parent="1">
          <mxGeometry x="4160" y="200" width="20" height="20" as="geometry" />
        </mxCell>
        <mxCell id="Y0dgIXWkeP1vq-oA4fCF-255" value="&lt;b&gt;IR&lt;/b&gt;" style="rounded=0;whiteSpace=wrap;html=1;" vertex="1" parent="1">
          <mxGeometry x="3950" y="200" width="20" height="20" as="geometry" />
        </mxCell>
        <mxCell id="Y0dgIXWkeP1vq-oA4fCF-256" value="" style="group" vertex="1" connectable="0" parent="1">
          <mxGeometry x="3850" y="160" width="40" height="20" as="geometry" />
        </mxCell>
        <mxCell id="Y0dgIXWkeP1vq-oA4fCF-257" value="s::e" style="shape=offPageConnector;whiteSpace=wrap;html=1;" vertex="1" parent="Y0dgIXWkeP1vq-oA4fCF-256">
          <mxGeometry width="40" height="20" as="geometry" />
        </mxCell>
        <mxCell id="Y0dgIXWkeP1vq-oA4fCF-258" style="edgeStyle=orthogonalEdgeStyle;rounded=0;orthogonalLoop=1;jettySize=auto;html=1;exitX=0;exitY=0;exitDx=0;exitDy=0;entryX=0.75;entryY=0;entryDx=0;entryDy=0;startArrow=baseDash;startFill=0;" edge="1" parent="Y0dgIXWkeP1vq-oA4fCF-256">
          <mxGeometry relative="1" as="geometry">
            <mxPoint x="22.5" as="targetPoint" />
            <Array as="points" />
            <mxPoint as="sourcePoint" />
          </mxGeometry>
        </mxCell>
        <mxCell id="Y0dgIXWkeP1vq-oA4fCF-259" value="new current (r)" style="edgeStyle=orthogonalEdgeStyle;rounded=0;orthogonalLoop=1;jettySize=auto;html=1;exitX=0.5;exitY=0;exitDx=0;exitDy=0;startArrow=classic;startFill=1;entryX=0.5;entryY=1;entryDx=0;entryDy=0;endArrow=none;endFill=0;" edge="1" parent="1" source="Y0dgIXWkeP1vq-oA4fCF-243" target="Y0dgIXWkeP1vq-oA4fCF-240">
          <mxGeometry x="0.4" relative="1" as="geometry">
            <mxPoint x="4080" y="320" as="sourcePoint" />
            <mxPoint x="4040" y="100" as="targetPoint" />
            <mxPoint as="offset" />
          </mxGeometry>
        </mxCell>
        <mxCell id="Y0dgIXWkeP1vq-oA4fCF-260" value="new voltage" style="edgeStyle=orthogonalEdgeStyle;rounded=0;orthogonalLoop=1;jettySize=auto;html=1;entryX=0.5;entryY=0;entryDx=0;entryDy=0;startArrow=classic;startFill=1;exitX=0;exitY=0.5;exitDx=0;exitDy=0;endArrow=none;endFill=0;" edge="1" parent="1" source="Y0dgIXWkeP1vq-oA4fCF-240" target="Y0dgIXWkeP1vq-oA4fCF-239">
          <mxGeometry x="-0.0667" relative="1" as="geometry">
            <mxPoint x="4180" y="70" as="sourcePoint" />
            <mxPoint x="3920" y="90" as="targetPoint" />
            <mxPoint as="offset" />
          </mxGeometry>
        </mxCell>
        <mxCell id="Y0dgIXWkeP1vq-oA4fCF-261" value="new current (r)" style="edgeStyle=orthogonalEdgeStyle;rounded=0;orthogonalLoop=1;jettySize=auto;html=1;startArrow=classic;startFill=1;entryX=1;entryY=0.5;entryDx=0;entryDy=0;exitX=0.25;exitY=0;exitDx=0;exitDy=0;endArrow=none;endFill=0;" edge="1" parent="1" source="Y0dgIXWkeP1vq-oA4fCF-244" target="Y0dgIXWkeP1vq-oA4fCF-240">
          <mxGeometry relative="1" as="geometry">
            <mxPoint x="4235" y="179.5" as="sourcePoint" />
            <mxPoint x="4180" y="90" as="targetPoint" />
          </mxGeometry>
        </mxCell>
        <mxCell id="Y0dgIXWkeP1vq-oA4fCF-262" value="new voltage" style="edgeStyle=orthogonalEdgeStyle;rounded=0;orthogonalLoop=1;jettySize=auto;html=1;entryX=0.75;entryY=0;entryDx=0;entryDy=0;startArrow=classic;startFill=1;exitX=0;exitY=0.5;exitDx=0;exitDy=0;endArrow=none;endFill=0;" edge="1" parent="1" source="Y0dgIXWkeP1vq-oA4fCF-247" target="Y0dgIXWkeP1vq-oA4fCF-244">
          <mxGeometry x="0.3846" relative="1" as="geometry">
            <mxPoint x="4530" y="-40" as="sourcePoint" />
            <mxPoint x="4360" y="40" as="targetPoint" />
            <mxPoint as="offset" />
          </mxGeometry>
        </mxCell>
        <mxCell id="Y0dgIXWkeP1vq-oA4fCF-263" value="new current (r)" style="edgeStyle=orthogonalEdgeStyle;rounded=0;orthogonalLoop=1;jettySize=auto;html=1;startArrow=classic;startFill=1;entryX=1;entryY=0.5;entryDx=0;entryDy=0;exitX=0.5;exitY=0;exitDx=0;exitDy=0;endArrow=none;endFill=0;" edge="1" parent="1" source="Y0dgIXWkeP1vq-oA4fCF-248" target="Y0dgIXWkeP1vq-oA4fCF-247">
          <mxGeometry x="-0.3333" relative="1" as="geometry">
            <mxPoint x="4680" y="90" as="sourcePoint" />
            <mxPoint x="4560" y="10" as="targetPoint" />
            <mxPoint as="offset" />
          </mxGeometry>
        </mxCell>
        <mxCell id="Y0dgIXWkeP1vq-oA4fCF-264" value="new heat" style="edgeStyle=orthogonalEdgeStyle;rounded=0;orthogonalLoop=1;jettySize=auto;html=1;startArrow=classic;startFill=1;entryX=0.5;entryY=1;entryDx=0;entryDy=0;exitX=0;exitY=0.5;exitDx=0;exitDy=0;endArrow=none;endFill=0;" edge="1" parent="1" source="Y0dgIXWkeP1vq-oA4fCF-242" target="Y0dgIXWkeP1vq-oA4fCF-246">
          <mxGeometry relative="1" as="geometry">
            <mxPoint x="4230" y="470" as="sourcePoint" />
            <mxPoint x="4110" y="390" as="targetPoint" />
          </mxGeometry>
        </mxCell>
        <mxCell id="Y0dgIXWkeP1vq-oA4fCF-265" value="new heat" style="edgeStyle=orthogonalEdgeStyle;rounded=0;orthogonalLoop=1;jettySize=auto;html=1;startArrow=classic;startFill=1;entryX=1;entryY=0.5;entryDx=0;entryDy=0;exitX=0.5;exitY=1;exitDx=0;exitDy=0;endArrow=none;endFill=0;" edge="1" parent="1" source="Y0dgIXWkeP1vq-oA4fCF-249" target="Y0dgIXWkeP1vq-oA4fCF-242">
          <mxGeometry relative="1" as="geometry">
            <mxPoint x="4480" y="440" as="sourcePoint" />
            <mxPoint x="4360" y="360" as="targetPoint" />
          </mxGeometry>
        </mxCell>
        <mxCell id="Y0dgIXWkeP1vq-oA4fCF-266" style="edgeStyle=orthogonalEdgeStyle;rounded=0;orthogonalLoop=1;jettySize=auto;html=1;entryX=1;entryY=0;entryDx=0;entryDy=0;endArrow=ERoneToMany;endFill=0;" edge="1" parent="1" target="Y0dgIXWkeP1vq-oA4fCF-257">
          <mxGeometry relative="1" as="geometry">
            <mxPoint x="3895.5" y="159.39" as="targetPoint" />
            <Array as="points">
              <mxPoint x="3850" y="159" />
              <mxPoint x="3865" y="159" />
            </Array>
            <mxPoint x="3850" y="162" as="sourcePoint" />
          </mxGeometry>
        </mxCell>
        <mxCell id="Y0dgIXWkeP1vq-oA4fCF-267" value="" style="group" vertex="1" connectable="0" parent="1">
          <mxGeometry x="4060" y="160" width="50" height="20" as="geometry" />
        </mxCell>
        <mxCell id="Y0dgIXWkeP1vq-oA4fCF-268" value="i:1m:i" style="shape=offPageConnector;whiteSpace=wrap;html=1;" vertex="1" parent="Y0dgIXWkeP1vq-oA4fCF-267">
          <mxGeometry width="37.5" height="20" as="geometry" />
        </mxCell>
        <mxCell id="Y0dgIXWkeP1vq-oA4fCF-269" value="" style="group" vertex="1" connectable="0" parent="1">
          <mxGeometry x="4250" y="160" width="40" height="20" as="geometry" />
        </mxCell>
        <mxCell id="Y0dgIXWkeP1vq-oA4fCF-270" value="i:1s:i" style="shape=offPageConnector;whiteSpace=wrap;html=1;" vertex="1" parent="Y0dgIXWkeP1vq-oA4fCF-269">
          <mxGeometry width="30" height="20" as="geometry" />
        </mxCell>
        <mxCell id="Y0dgIXWkeP1vq-oA4fCF-271" value="" style="group" vertex="1" connectable="0" parent="1">
          <mxGeometry x="4450" y="160" width="40" height="20" as="geometry" />
        </mxCell>
        <mxCell id="Y0dgIXWkeP1vq-oA4fCF-272" value="i::i" style="shape=offPageConnector;whiteSpace=wrap;html=1;" vertex="1" parent="Y0dgIXWkeP1vq-oA4fCF-271">
          <mxGeometry width="30" height="20" as="geometry" />
        </mxCell>
        <mxCell id="Y0dgIXWkeP1vq-oA4fCF-273" value="" style="group" vertex="1" connectable="0" parent="1">
          <mxGeometry x="4060" y="270" width="40" height="20" as="geometry" />
        </mxCell>
        <mxCell id="Y0dgIXWkeP1vq-oA4fCF-274" value="i::i" style="shape=offPageConnector;whiteSpace=wrap;html=1;" vertex="1" parent="Y0dgIXWkeP1vq-oA4fCF-273">
          <mxGeometry width="30" height="20" as="geometry" />
        </mxCell>
        <mxCell id="Y0dgIXWkeP1vq-oA4fCF-275" value="" style="group" vertex="1" connectable="0" parent="1">
          <mxGeometry x="4260" y="270" width="40" height="20" as="geometry" />
        </mxCell>
        <mxCell id="Y0dgIXWkeP1vq-oA4fCF-276" value="i::i" style="shape=offPageConnector;whiteSpace=wrap;html=1;" vertex="1" parent="Y0dgIXWkeP1vq-oA4fCF-275">
          <mxGeometry width="30" height="20" as="geometry" />
        </mxCell>
        <mxCell id="Y0dgIXWkeP1vq-oA4fCF-277" value="" style="rounded=0;whiteSpace=wrap;html=1;strokeColor=#999999;strokeWidth=3;fillColor=none;" vertex="1" parent="1">
          <mxGeometry x="4240" y="150" width="140" height="80" as="geometry" />
        </mxCell>
        <mxCell id="Y0dgIXWkeP1vq-oA4fCF-278" value="&lt;b&gt;&lt;font style=&quot;font-size: 14px;&quot;&gt;Fault Scenario: Electrical Short&lt;/font&gt;&lt;/b&gt;&lt;div&gt;&lt;b&gt;&lt;font style=&quot;font-size: 14px;&quot;&gt;High current draw while voltage output goes to zero.&lt;/font&gt;&lt;/b&gt;&lt;/div&gt;" style="text;html=1;align=center;verticalAlign=middle;whiteSpace=wrap;rounded=0;fontColor=#999999;" vertex="1" parent="1">
          <mxGeometry x="4180" y="10" width="210" height="70" as="geometry" />
        </mxCell>
        <mxCell id="Y0dgIXWkeP1vq-oA4fCF-279" value="" style="endArrow=classic;html=1;rounded=0;strokeWidth=3;strokeColor=#999999;exitX=0.505;exitY=1.1;exitDx=0;exitDy=0;exitPerimeter=0;" edge="1" parent="1" source="Y0dgIXWkeP1vq-oA4fCF-278">
          <mxGeometry width="50" height="50" relative="1" as="geometry">
            <mxPoint x="4280" y="70" as="sourcePoint" />
            <mxPoint x="4310" y="150" as="targetPoint" />
          </mxGeometry>
        </mxCell>
        <mxCell id="Y0dgIXWkeP1vq-oA4fCF-280" value="&lt;font&gt;&lt;span style=&quot;font-size: 14px;&quot;&gt;&lt;b&gt;High current draw&lt;/b&gt;&lt;/span&gt;&lt;/font&gt;" style="text;html=1;align=center;verticalAlign=middle;whiteSpace=wrap;rounded=0;fontColor=#999999;" vertex="1" parent="1">
          <mxGeometry x="3960" y="10" width="100" height="30" as="geometry" />
        </mxCell>
        <mxCell id="Y0dgIXWkeP1vq-oA4fCF-281" value="&lt;font&gt;&lt;span style=&quot;font-size: 14px;&quot;&gt;&lt;b&gt;Low/no voltage output&lt;/b&gt;&lt;/span&gt;&lt;/font&gt;" style="text;html=1;align=center;verticalAlign=middle;whiteSpace=wrap;rounded=0;fontColor=#999999;" vertex="1" parent="1">
          <mxGeometry x="4470" y="10" width="130" height="30" as="geometry" />
        </mxCell>
        <mxCell id="Y0dgIXWkeP1vq-oA4fCF-282" value="" style="endArrow=classic;html=1;rounded=0;strokeWidth=3;strokeColor=#999999;entryX=0;entryY=0.25;entryDx=0;entryDy=0;entryPerimeter=0;fontColor=#999999;" edge="1" parent="1" target="Y0dgIXWkeP1vq-oA4fCF-240">
          <mxGeometry width="50" height="50" relative="1" as="geometry">
            <mxPoint x="4000" y="40" as="sourcePoint" />
            <mxPoint x="4060" y="110" as="targetPoint" />
          </mxGeometry>
        </mxCell>
        <mxCell id="Y0dgIXWkeP1vq-oA4fCF-283" value="" style="endArrow=classic;html=1;rounded=0;strokeWidth=3;strokeColor=#999999;exitX=0.454;exitY=1.067;exitDx=0;exitDy=0;exitPerimeter=0;fontColor=#999999;" edge="1" parent="1" source="Y0dgIXWkeP1vq-oA4fCF-281" target="Y0dgIXWkeP1vq-oA4fCF-247">
          <mxGeometry width="50" height="50" relative="1" as="geometry">
            <mxPoint x="4660" y="90" as="sourcePoint" />
            <mxPoint x="4740" y="110" as="targetPoint" />
          </mxGeometry>
        </mxCell>
        <mxCell id="Y0dgIXWkeP1vq-oA4fCF-284" value="" style="rounded=0;whiteSpace=wrap;html=1;strokeColor=#999999;strokeWidth=3;fillColor=none;" vertex="1" parent="1">
          <mxGeometry x="4050" y="150" width="140" height="80" as="geometry" />
        </mxCell>
        <mxCell id="Y0dgIXWkeP1vq-oA4fCF-285" value="" style="rounded=0;whiteSpace=wrap;html=1;strokeColor=#999999;strokeWidth=3;fillColor=none;" vertex="1" parent="1">
          <mxGeometry x="4440" y="150" width="140" height="80" as="geometry" />
        </mxCell>
        <mxCell id="Y0dgIXWkeP1vq-oA4fCF-286" value="" style="endArrow=classic;html=1;rounded=0;strokeWidth=3;strokeColor=#999999;" edge="1" parent="1">
          <mxGeometry width="50" height="50" relative="1" as="geometry">
            <mxPoint x="3990" y="360" as="sourcePoint" />
            <mxPoint x="4050" y="230" as="targetPoint" />
          </mxGeometry>
        </mxCell>
        <mxCell id="Y0dgIXWkeP1vq-oA4fCF-287" value="&lt;font&gt;&lt;span style=&quot;font-size: 14px;&quot;&gt;&lt;b&gt;Energy storage depleted&lt;/b&gt;&lt;/span&gt;&lt;/font&gt;" style="text;html=1;align=center;verticalAlign=middle;whiteSpace=wrap;rounded=0;fontColor=#999999;" vertex="1" parent="1">
          <mxGeometry x="3910" y="370" width="100" height="30" as="geometry" />
        </mxCell>
        <mxCell id="Y0dgIXWkeP1vq-oA4fCF-288" value="&lt;font&gt;&lt;span style=&quot;font-size: 14px;&quot;&gt;&lt;b&gt;Low/no EE exported to external system&lt;/b&gt;&lt;/span&gt;&lt;/font&gt;" style="text;html=1;align=center;verticalAlign=middle;whiteSpace=wrap;rounded=0;fontColor=#999999;" vertex="1" parent="1">
          <mxGeometry x="4610" y="85" width="150" height="75" as="geometry" />
        </mxCell>
        <mxCell id="Y0dgIXWkeP1vq-oA4fCF-289" value="" style="endArrow=classic;html=1;rounded=0;strokeWidth=3;strokeColor=#999999;exitX=0.25;exitY=1;exitDx=0;exitDy=0;entryX=1;entryY=0.5;entryDx=0;entryDy=0;" edge="1" parent="1" source="Y0dgIXWkeP1vq-oA4fCF-288" target="Y0dgIXWkeP1vq-oA4fCF-285">
          <mxGeometry width="50" height="50" relative="1" as="geometry">
            <mxPoint x="4650" y="280" as="sourcePoint" />
            <mxPoint x="4700" y="230" as="targetPoint" />
          </mxGeometry>
        </mxCell>
        <mxCell id="Y0dgIXWkeP1vq-oA4fCF-290" value="" style="rounded=0;whiteSpace=wrap;html=1;strokeColor=#999999;strokeWidth=3;fillColor=none;" vertex="1" parent="1">
          <mxGeometry x="3840" y="150" width="140" height="80" as="geometry" />
        </mxCell>
        <mxCell id="Y0dgIXWkeP1vq-oA4fCF-291" value="&lt;font&gt;&lt;span style=&quot;font-size: 14px;&quot;&gt;&lt;b&gt;Fuse/circuitry burnt out&lt;/b&gt;&lt;/span&gt;&lt;/font&gt;" style="text;html=1;align=center;verticalAlign=middle;whiteSpace=wrap;rounded=0;fontColor=#999999;" vertex="1" parent="1">
          <mxGeometry x="3790" y="107.5" width="100" height="30" as="geometry" />
        </mxCell>
        <mxCell id="Y0dgIXWkeP1vq-oA4fCF-292" value="" style="endArrow=classic;html=1;rounded=0;strokeWidth=3;strokeColor=#FF1100;exitX=1;exitY=0.25;exitDx=0;exitDy=0;" edge="1" parent="1" source="Y0dgIXWkeP1vq-oA4fCF-293">
          <mxGeometry width="50" height="50" relative="1" as="geometry">
            <mxPoint x="3830" y="460" as="sourcePoint" />
            <mxPoint x="3890" y="330" as="targetPoint" />
          </mxGeometry>
        </mxCell>
        <mxCell id="Y0dgIXWkeP1vq-oA4fCF-293" value="&lt;font color=&quot;#ff1100&quot;&gt;&lt;span style=&quot;font-size: 14px;&quot;&gt;&lt;b&gt;Voltage to zero&lt;/b&gt;&lt;/span&gt;&lt;/font&gt;" style="text;html=1;align=center;verticalAlign=middle;whiteSpace=wrap;rounded=0;" vertex="1" parent="1">
          <mxGeometry x="3725" y="340" width="100" height="30" as="geometry" />
        </mxCell>
        <mxCell id="Y0dgIXWkeP1vq-oA4fCF-296" value="" style="endArrow=classic;html=1;rounded=0;strokeWidth=3;strokeColor=#FF1100;exitX=0.5;exitY=1;exitDx=0;exitDy=0;entryX=0.413;entryY=-0.025;entryDx=0;entryDy=0;entryPerimeter=0;" edge="1" parent="1" source="Y0dgIXWkeP1vq-oA4fCF-297" target="Y0dgIXWkeP1vq-oA4fCF-240">
          <mxGeometry width="50" height="50" relative="1" as="geometry">
            <mxPoint x="4095" y="-20" as="sourcePoint" />
            <mxPoint x="4155" y="-150" as="targetPoint" />
          </mxGeometry>
        </mxCell>
        <mxCell id="Y0dgIXWkeP1vq-oA4fCF-297" value="&lt;font color=&quot;#ff1100&quot;&gt;&lt;span style=&quot;font-size: 14px;&quot;&gt;&lt;b&gt;Voltage to zero&lt;/b&gt;&lt;/span&gt;&lt;/font&gt;" style="text;html=1;align=center;verticalAlign=middle;whiteSpace=wrap;rounded=0;" vertex="1" parent="1">
          <mxGeometry x="4040" y="-60" width="100" height="30" as="geometry" />
        </mxCell>
        <mxCell id="Y0dgIXWkeP1vq-oA4fCF-298" value="new voltage" style="edgeStyle=orthogonalEdgeStyle;rounded=0;orthogonalLoop=1;jettySize=auto;html=1;exitX=0.5;exitY=1;exitDx=0;exitDy=0;entryX=0;entryY=0.5;entryDx=0;entryDy=0;startArrow=none;startFill=0;" edge="1" parent="1" source="Y0dgIXWkeP1vq-oA4fCF-299" target="Y0dgIXWkeP1vq-oA4fCF-301">
          <mxGeometry x="-0.04" relative="1" as="geometry">
            <mxPoint as="offset" />
          </mxGeometry>
        </mxCell>
        <mxCell id="Y0dgIXWkeP1vq-oA4fCF-299" value="Import EE&lt;div&gt;&amp;lt;Physical&amp;gt;&lt;br&gt;&lt;/div&gt;" style="rounded=0;whiteSpace=wrap;html=1;" vertex="1" parent="1">
          <mxGeometry x="5015" y="175" width="120" height="60" as="geometry" />
        </mxCell>
        <mxCell id="Y0dgIXWkeP1vq-oA4fCF-300" value="EE_1&lt;div&gt;&amp;lt;Power&amp;gt;&lt;br&gt;&lt;/div&gt;" style="ellipse;whiteSpace=wrap;html=1;aspect=fixed;" vertex="1" parent="1">
          <mxGeometry x="5245" y="55" width="80" height="80" as="geometry" />
        </mxCell>
        <mxCell id="Y0dgIXWkeP1vq-oA4fCF-301" value="EE_2&lt;div&gt;&amp;lt;Power&amp;gt;&lt;br&gt;&lt;/div&gt;" style="ellipse;whiteSpace=wrap;html=1;aspect=fixed;" vertex="1" parent="1">
          <mxGeometry x="5045" y="275" width="80" height="80" as="geometry" />
        </mxCell>
        <mxCell id="Y0dgIXWkeP1vq-oA4fCF-302" value="HE&lt;div&gt;&amp;lt;Heat&amp;gt;&lt;/div&gt;" style="ellipse;whiteSpace=wrap;html=1;aspect=fixed;" vertex="1" parent="1">
          <mxGeometry x="5355" y="345" width="80" height="80" as="geometry" />
        </mxCell>
        <mxCell id="Y0dgIXWkeP1vq-oA4fCF-303" value="Store EE&lt;div&gt;&amp;lt;Physical&amp;gt;&lt;br&gt;&lt;/div&gt;" style="rounded=0;whiteSpace=wrap;html=1;" vertex="1" parent="1">
          <mxGeometry x="5225" y="175" width="120" height="60" as="geometry" />
        </mxCell>
        <mxCell id="Y0dgIXWkeP1vq-oA4fCF-304" value="Modulate EE&lt;div&gt;&amp;lt;Physical, Logical&amp;gt;&lt;br&gt;&lt;/div&gt;" style="rounded=0;whiteSpace=wrap;html=1;" vertex="1" parent="1">
          <mxGeometry x="5415" y="175" width="120" height="60" as="geometry" />
        </mxCell>
        <mxCell id="Y0dgIXWkeP1vq-oA4fCF-305" value="new current (r)" style="edgeStyle=orthogonalEdgeStyle;rounded=0;orthogonalLoop=1;jettySize=auto;html=1;exitX=0;exitY=0.5;exitDx=0;exitDy=0;startArrow=classic;startFill=1;endArrow=none;endFill=0;" edge="1" parent="1" source="Y0dgIXWkeP1vq-oA4fCF-306" target="Y0dgIXWkeP1vq-oA4fCF-301">
          <mxGeometry relative="1" as="geometry" />
        </mxCell>
        <mxCell id="Y0dgIXWkeP1vq-oA4fCF-306" value="Convert EE to HE&lt;div&gt;&amp;lt;Physical&amp;gt;&lt;br&gt;&lt;/div&gt;" style="rounded=0;whiteSpace=wrap;html=1;" vertex="1" parent="1">
          <mxGeometry x="5225" y="285" width="120" height="60" as="geometry" />
        </mxCell>
        <mxCell id="Y0dgIXWkeP1vq-oA4fCF-307" value="EE_1_out&lt;div&gt;&amp;lt;Power&amp;gt;&lt;br&gt;&lt;/div&gt;" style="ellipse;whiteSpace=wrap;html=1;aspect=fixed;" vertex="1" parent="1">
          <mxGeometry x="5555" y="55" width="80" height="80" as="geometry" />
        </mxCell>
        <mxCell id="Y0dgIXWkeP1vq-oA4fCF-308" value="Export EE&lt;div&gt;&amp;lt;Physical&amp;gt;&lt;br&gt;&lt;/div&gt;" style="rounded=0;whiteSpace=wrap;html=1;" vertex="1" parent="1">
          <mxGeometry x="5615" y="175" width="120" height="60" as="geometry" />
        </mxCell>
        <mxCell id="Y0dgIXWkeP1vq-oA4fCF-309" value="Export HE&lt;div&gt;&amp;lt;Physical&amp;gt;&lt;br&gt;&lt;/div&gt;" style="rounded=0;whiteSpace=wrap;html=1;" vertex="1" parent="1">
          <mxGeometry x="5425" y="285" width="120" height="60" as="geometry" />
        </mxCell>
        <mxCell id="Y0dgIXWkeP1vq-oA4fCF-310" value="&lt;b&gt;ED&lt;/b&gt;" style="rounded=0;whiteSpace=wrap;html=1;" vertex="1" parent="1">
          <mxGeometry x="5525" y="325" width="20" height="20" as="geometry" />
        </mxCell>
        <mxCell id="Y0dgIXWkeP1vq-oA4fCF-311" value="&lt;b&gt;IS&lt;/b&gt;" style="rounded=0;whiteSpace=wrap;html=1;" vertex="1" parent="1">
          <mxGeometry x="5325" y="325" width="20" height="20" as="geometry" />
        </mxCell>
        <mxCell id="Y0dgIXWkeP1vq-oA4fCF-312" value="&lt;b&gt;IR&lt;/b&gt;" style="rounded=0;whiteSpace=wrap;html=1;" vertex="1" parent="1">
          <mxGeometry x="5715" y="215" width="20" height="20" as="geometry" />
        </mxCell>
        <mxCell id="Y0dgIXWkeP1vq-oA4fCF-313" value="&lt;b&gt;IR&lt;/b&gt;" style="rounded=0;whiteSpace=wrap;html=1;" vertex="1" parent="1">
          <mxGeometry x="5515" y="215" width="20" height="20" as="geometry" />
        </mxCell>
        <mxCell id="Y0dgIXWkeP1vq-oA4fCF-314" value="&lt;b&gt;IR&lt;/b&gt;" style="rounded=0;whiteSpace=wrap;html=1;" vertex="1" parent="1">
          <mxGeometry x="5325" y="215" width="20" height="20" as="geometry" />
        </mxCell>
        <mxCell id="Y0dgIXWkeP1vq-oA4fCF-315" value="&lt;b&gt;IR&lt;/b&gt;" style="rounded=0;whiteSpace=wrap;html=1;" vertex="1" parent="1">
          <mxGeometry x="5115" y="215" width="20" height="20" as="geometry" />
        </mxCell>
        <mxCell id="Y0dgIXWkeP1vq-oA4fCF-316" value="" style="group" vertex="1" connectable="0" parent="1">
          <mxGeometry x="5015" y="175" width="40" height="20" as="geometry" />
        </mxCell>
        <mxCell id="Y0dgIXWkeP1vq-oA4fCF-317" value="s::e" style="shape=offPageConnector;whiteSpace=wrap;html=1;" vertex="1" parent="Y0dgIXWkeP1vq-oA4fCF-316">
          <mxGeometry width="40" height="20" as="geometry" />
        </mxCell>
        <mxCell id="Y0dgIXWkeP1vq-oA4fCF-318" style="edgeStyle=orthogonalEdgeStyle;rounded=0;orthogonalLoop=1;jettySize=auto;html=1;exitX=0;exitY=0;exitDx=0;exitDy=0;entryX=0.75;entryY=0;entryDx=0;entryDy=0;startArrow=baseDash;startFill=0;" edge="1" parent="Y0dgIXWkeP1vq-oA4fCF-316">
          <mxGeometry relative="1" as="geometry">
            <mxPoint x="22.5" as="targetPoint" />
            <Array as="points" />
            <mxPoint as="sourcePoint" />
          </mxGeometry>
        </mxCell>
        <mxCell id="Y0dgIXWkeP1vq-oA4fCF-319" value="new current (r)" style="edgeStyle=orthogonalEdgeStyle;rounded=0;orthogonalLoop=1;jettySize=auto;html=1;exitX=0.5;exitY=0;exitDx=0;exitDy=0;startArrow=classic;startFill=1;entryX=0.5;entryY=1;entryDx=0;entryDy=0;endArrow=none;endFill=0;" edge="1" parent="1" source="Y0dgIXWkeP1vq-oA4fCF-303" target="Y0dgIXWkeP1vq-oA4fCF-300">
          <mxGeometry x="0.4" relative="1" as="geometry">
            <mxPoint x="5245" y="335" as="sourcePoint" />
            <mxPoint x="5205" y="115" as="targetPoint" />
            <mxPoint as="offset" />
          </mxGeometry>
        </mxCell>
        <mxCell id="Y0dgIXWkeP1vq-oA4fCF-320" value="new voltage" style="edgeStyle=orthogonalEdgeStyle;rounded=0;orthogonalLoop=1;jettySize=auto;html=1;entryX=0.5;entryY=0;entryDx=0;entryDy=0;startArrow=classic;startFill=1;exitX=0;exitY=0.5;exitDx=0;exitDy=0;endArrow=none;endFill=0;" edge="1" parent="1" source="Y0dgIXWkeP1vq-oA4fCF-300" target="Y0dgIXWkeP1vq-oA4fCF-299">
          <mxGeometry x="-0.0667" relative="1" as="geometry">
            <mxPoint x="5345" y="85" as="sourcePoint" />
            <mxPoint x="5085" y="105" as="targetPoint" />
            <mxPoint as="offset" />
          </mxGeometry>
        </mxCell>
        <mxCell id="Y0dgIXWkeP1vq-oA4fCF-321" value="new current (r)" style="edgeStyle=orthogonalEdgeStyle;rounded=0;orthogonalLoop=1;jettySize=auto;html=1;startArrow=classic;startFill=1;entryX=1;entryY=0.5;entryDx=0;entryDy=0;exitX=0.25;exitY=0;exitDx=0;exitDy=0;endArrow=none;endFill=0;" edge="1" parent="1" source="Y0dgIXWkeP1vq-oA4fCF-304" target="Y0dgIXWkeP1vq-oA4fCF-300">
          <mxGeometry relative="1" as="geometry">
            <mxPoint x="5400" y="194.5" as="sourcePoint" />
            <mxPoint x="5345" y="105" as="targetPoint" />
          </mxGeometry>
        </mxCell>
        <mxCell id="Y0dgIXWkeP1vq-oA4fCF-322" value="new voltage" style="edgeStyle=orthogonalEdgeStyle;rounded=0;orthogonalLoop=1;jettySize=auto;html=1;entryX=0.75;entryY=0;entryDx=0;entryDy=0;startArrow=classic;startFill=1;exitX=0;exitY=0.5;exitDx=0;exitDy=0;endArrow=none;endFill=0;" edge="1" parent="1" source="Y0dgIXWkeP1vq-oA4fCF-307" target="Y0dgIXWkeP1vq-oA4fCF-304">
          <mxGeometry x="0.3846" relative="1" as="geometry">
            <mxPoint x="5695" y="-25" as="sourcePoint" />
            <mxPoint x="5525" y="55" as="targetPoint" />
            <mxPoint as="offset" />
          </mxGeometry>
        </mxCell>
        <mxCell id="Y0dgIXWkeP1vq-oA4fCF-323" value="new current (r)" style="edgeStyle=orthogonalEdgeStyle;rounded=0;orthogonalLoop=1;jettySize=auto;html=1;startArrow=classic;startFill=1;entryX=1;entryY=0.5;entryDx=0;entryDy=0;exitX=0.5;exitY=0;exitDx=0;exitDy=0;endArrow=none;endFill=0;" edge="1" parent="1" source="Y0dgIXWkeP1vq-oA4fCF-308" target="Y0dgIXWkeP1vq-oA4fCF-307">
          <mxGeometry x="-0.3333" relative="1" as="geometry">
            <mxPoint x="5845" y="105" as="sourcePoint" />
            <mxPoint x="5725" y="25" as="targetPoint" />
            <mxPoint as="offset" />
          </mxGeometry>
        </mxCell>
        <mxCell id="Y0dgIXWkeP1vq-oA4fCF-324" value="new heat" style="edgeStyle=orthogonalEdgeStyle;rounded=0;orthogonalLoop=1;jettySize=auto;html=1;startArrow=classic;startFill=1;entryX=0.5;entryY=1;entryDx=0;entryDy=0;exitX=0;exitY=0.5;exitDx=0;exitDy=0;endArrow=none;endFill=0;" edge="1" parent="1" source="Y0dgIXWkeP1vq-oA4fCF-302" target="Y0dgIXWkeP1vq-oA4fCF-306">
          <mxGeometry relative="1" as="geometry">
            <mxPoint x="5395" y="485" as="sourcePoint" />
            <mxPoint x="5275" y="405" as="targetPoint" />
          </mxGeometry>
        </mxCell>
        <mxCell id="Y0dgIXWkeP1vq-oA4fCF-325" value="new heat" style="edgeStyle=orthogonalEdgeStyle;rounded=0;orthogonalLoop=1;jettySize=auto;html=1;startArrow=classic;startFill=1;entryX=1;entryY=0.5;entryDx=0;entryDy=0;exitX=0.5;exitY=1;exitDx=0;exitDy=0;endArrow=none;endFill=0;" edge="1" parent="1" source="Y0dgIXWkeP1vq-oA4fCF-309" target="Y0dgIXWkeP1vq-oA4fCF-302">
          <mxGeometry relative="1" as="geometry">
            <mxPoint x="5645" y="455" as="sourcePoint" />
            <mxPoint x="5525" y="375" as="targetPoint" />
          </mxGeometry>
        </mxCell>
        <mxCell id="Y0dgIXWkeP1vq-oA4fCF-326" style="edgeStyle=orthogonalEdgeStyle;rounded=0;orthogonalLoop=1;jettySize=auto;html=1;entryX=1;entryY=0;entryDx=0;entryDy=0;endArrow=ERoneToMany;endFill=0;" edge="1" parent="1" target="Y0dgIXWkeP1vq-oA4fCF-317">
          <mxGeometry relative="1" as="geometry">
            <mxPoint x="5060.5" y="174.39" as="targetPoint" />
            <Array as="points">
              <mxPoint x="5015" y="174" />
              <mxPoint x="5030" y="174" />
            </Array>
            <mxPoint x="5015" y="177" as="sourcePoint" />
          </mxGeometry>
        </mxCell>
        <mxCell id="Y0dgIXWkeP1vq-oA4fCF-327" value="" style="group" vertex="1" connectable="0" parent="1">
          <mxGeometry x="5225" y="175" width="50" height="20" as="geometry" />
        </mxCell>
        <mxCell id="Y0dgIXWkeP1vq-oA4fCF-328" value="i:1m:i" style="shape=offPageConnector;whiteSpace=wrap;html=1;" vertex="1" parent="Y0dgIXWkeP1vq-oA4fCF-327">
          <mxGeometry width="37.5" height="20" as="geometry" />
        </mxCell>
        <mxCell id="Y0dgIXWkeP1vq-oA4fCF-329" value="" style="group" vertex="1" connectable="0" parent="1">
          <mxGeometry x="5415" y="175" width="40" height="20" as="geometry" />
        </mxCell>
        <mxCell id="Y0dgIXWkeP1vq-oA4fCF-330" value="i:1s:i" style="shape=offPageConnector;whiteSpace=wrap;html=1;" vertex="1" parent="Y0dgIXWkeP1vq-oA4fCF-329">
          <mxGeometry width="30" height="20" as="geometry" />
        </mxCell>
        <mxCell id="Y0dgIXWkeP1vq-oA4fCF-331" value="" style="group" vertex="1" connectable="0" parent="1">
          <mxGeometry x="5615" y="175" width="40" height="20" as="geometry" />
        </mxCell>
        <mxCell id="Y0dgIXWkeP1vq-oA4fCF-332" value="i::i" style="shape=offPageConnector;whiteSpace=wrap;html=1;" vertex="1" parent="Y0dgIXWkeP1vq-oA4fCF-331">
          <mxGeometry width="30" height="20" as="geometry" />
        </mxCell>
        <mxCell id="Y0dgIXWkeP1vq-oA4fCF-333" value="" style="group" vertex="1" connectable="0" parent="1">
          <mxGeometry x="5225" y="285" width="40" height="20" as="geometry" />
        </mxCell>
        <mxCell id="Y0dgIXWkeP1vq-oA4fCF-334" value="i::i" style="shape=offPageConnector;whiteSpace=wrap;html=1;" vertex="1" parent="Y0dgIXWkeP1vq-oA4fCF-333">
          <mxGeometry width="30" height="20" as="geometry" />
        </mxCell>
        <mxCell id="Y0dgIXWkeP1vq-oA4fCF-335" value="" style="group" vertex="1" connectable="0" parent="1">
          <mxGeometry x="5425" y="285" width="40" height="20" as="geometry" />
        </mxCell>
        <mxCell id="Y0dgIXWkeP1vq-oA4fCF-336" value="i::i" style="shape=offPageConnector;whiteSpace=wrap;html=1;" vertex="1" parent="Y0dgIXWkeP1vq-oA4fCF-335">
          <mxGeometry width="30" height="20" as="geometry" />
        </mxCell>
        <mxCell id="Y0dgIXWkeP1vq-oA4fCF-337" value="" style="rounded=0;whiteSpace=wrap;html=1;strokeColor=#FF1100;strokeWidth=3;fillColor=none;" vertex="1" parent="1">
          <mxGeometry x="5405" y="165" width="140" height="80" as="geometry" />
        </mxCell>
        <mxCell id="Y0dgIXWkeP1vq-oA4fCF-338" value="&lt;b&gt;&lt;font style=&quot;font-size: 14px;&quot;&gt;Fault Scenario: Electrical Short&lt;/font&gt;&lt;/b&gt;&lt;div&gt;&lt;b&gt;&lt;font style=&quot;font-size: 14px;&quot;&gt;High current draw while voltage output goes to zero.&lt;/font&gt;&lt;/b&gt;&lt;/div&gt;" style="text;html=1;align=center;verticalAlign=middle;whiteSpace=wrap;rounded=0;fontColor=#999999;" vertex="1" parent="1">
          <mxGeometry x="5345" y="25" width="210" height="70" as="geometry" />
        </mxCell>
        <mxCell id="Y0dgIXWkeP1vq-oA4fCF-339" value="" style="endArrow=classic;html=1;rounded=0;strokeWidth=3;strokeColor=#999999;exitX=0.505;exitY=1.1;exitDx=0;exitDy=0;exitPerimeter=0;" edge="1" parent="1" source="Y0dgIXWkeP1vq-oA4fCF-338">
          <mxGeometry width="50" height="50" relative="1" as="geometry">
            <mxPoint x="5445" y="85" as="sourcePoint" />
            <mxPoint x="5475" y="165" as="targetPoint" />
          </mxGeometry>
        </mxCell>
        <mxCell id="Y0dgIXWkeP1vq-oA4fCF-340" value="&lt;font&gt;&lt;span style=&quot;font-size: 14px;&quot;&gt;&lt;b&gt;High current draw&lt;/b&gt;&lt;/span&gt;&lt;/font&gt;" style="text;html=1;align=center;verticalAlign=middle;whiteSpace=wrap;rounded=0;fontColor=#999999;" vertex="1" parent="1">
          <mxGeometry x="5125" y="25" width="100" height="30" as="geometry" />
        </mxCell>
        <mxCell id="Y0dgIXWkeP1vq-oA4fCF-341" value="&lt;font&gt;&lt;span style=&quot;font-size: 14px;&quot;&gt;&lt;b&gt;Low/no voltage output&lt;/b&gt;&lt;/span&gt;&lt;/font&gt;" style="text;html=1;align=center;verticalAlign=middle;whiteSpace=wrap;rounded=0;fontColor=#999999;" vertex="1" parent="1">
          <mxGeometry x="5635" y="25" width="130" height="30" as="geometry" />
        </mxCell>
        <mxCell id="Y0dgIXWkeP1vq-oA4fCF-342" value="" style="endArrow=classic;html=1;rounded=0;strokeWidth=3;strokeColor=#999999;entryX=0;entryY=0.25;entryDx=0;entryDy=0;entryPerimeter=0;fontColor=#999999;" edge="1" parent="1" target="Y0dgIXWkeP1vq-oA4fCF-300">
          <mxGeometry width="50" height="50" relative="1" as="geometry">
            <mxPoint x="5165" y="55" as="sourcePoint" />
            <mxPoint x="5225" y="125" as="targetPoint" />
          </mxGeometry>
        </mxCell>
        <mxCell id="Y0dgIXWkeP1vq-oA4fCF-343" value="" style="endArrow=classic;html=1;rounded=0;strokeWidth=3;strokeColor=#999999;exitX=0.454;exitY=1.067;exitDx=0;exitDy=0;exitPerimeter=0;fontColor=#999999;" edge="1" parent="1" source="Y0dgIXWkeP1vq-oA4fCF-341" target="Y0dgIXWkeP1vq-oA4fCF-307">
          <mxGeometry width="50" height="50" relative="1" as="geometry">
            <mxPoint x="5825" y="105" as="sourcePoint" />
            <mxPoint x="5905" y="125" as="targetPoint" />
          </mxGeometry>
        </mxCell>
        <mxCell id="Y0dgIXWkeP1vq-oA4fCF-344" value="" style="rounded=0;whiteSpace=wrap;html=1;strokeColor=#999999;strokeWidth=3;fillColor=none;" vertex="1" parent="1">
          <mxGeometry x="5215" y="165" width="140" height="80" as="geometry" />
        </mxCell>
        <mxCell id="Y0dgIXWkeP1vq-oA4fCF-345" value="" style="rounded=0;whiteSpace=wrap;html=1;strokeColor=#999999;strokeWidth=3;fillColor=none;" vertex="1" parent="1">
          <mxGeometry x="5605" y="165" width="140" height="80" as="geometry" />
        </mxCell>
        <mxCell id="Y0dgIXWkeP1vq-oA4fCF-346" value="" style="endArrow=classic;html=1;rounded=0;strokeWidth=3;strokeColor=#999999;" edge="1" parent="1">
          <mxGeometry width="50" height="50" relative="1" as="geometry">
            <mxPoint x="5155" y="375" as="sourcePoint" />
            <mxPoint x="5215" y="245" as="targetPoint" />
          </mxGeometry>
        </mxCell>
        <mxCell id="Y0dgIXWkeP1vq-oA4fCF-347" value="&lt;font&gt;&lt;span style=&quot;font-size: 14px;&quot;&gt;&lt;b&gt;Energy storage depleted&lt;/b&gt;&lt;/span&gt;&lt;/font&gt;" style="text;html=1;align=center;verticalAlign=middle;whiteSpace=wrap;rounded=0;fontColor=#999999;" vertex="1" parent="1">
          <mxGeometry x="5075" y="385" width="100" height="30" as="geometry" />
        </mxCell>
        <mxCell id="Y0dgIXWkeP1vq-oA4fCF-348" value="&lt;font&gt;&lt;span style=&quot;font-size: 14px;&quot;&gt;&lt;b&gt;Low/no EE exported to external system&lt;/b&gt;&lt;/span&gt;&lt;/font&gt;" style="text;html=1;align=center;verticalAlign=middle;whiteSpace=wrap;rounded=0;fontColor=#999999;" vertex="1" parent="1">
          <mxGeometry x="5775" y="100" width="150" height="75" as="geometry" />
        </mxCell>
        <mxCell id="Y0dgIXWkeP1vq-oA4fCF-349" value="" style="endArrow=classic;html=1;rounded=0;strokeWidth=3;strokeColor=#999999;exitX=0.25;exitY=1;exitDx=0;exitDy=0;entryX=1;entryY=0.5;entryDx=0;entryDy=0;" edge="1" parent="1" source="Y0dgIXWkeP1vq-oA4fCF-348" target="Y0dgIXWkeP1vq-oA4fCF-345">
          <mxGeometry width="50" height="50" relative="1" as="geometry">
            <mxPoint x="5815" y="295" as="sourcePoint" />
            <mxPoint x="5865" y="245" as="targetPoint" />
          </mxGeometry>
        </mxCell>
        <mxCell id="Y0dgIXWkeP1vq-oA4fCF-350" value="" style="rounded=0;whiteSpace=wrap;html=1;strokeColor=#999999;strokeWidth=3;fillColor=none;" vertex="1" parent="1">
          <mxGeometry x="5005" y="165" width="140" height="80" as="geometry" />
        </mxCell>
        <mxCell id="Y0dgIXWkeP1vq-oA4fCF-351" value="&lt;font&gt;&lt;span style=&quot;font-size: 14px;&quot;&gt;&lt;b&gt;Fuse/circuitry burnt out&lt;/b&gt;&lt;/span&gt;&lt;/font&gt;" style="text;html=1;align=center;verticalAlign=middle;whiteSpace=wrap;rounded=0;fontColor=#999999;" vertex="1" parent="1">
          <mxGeometry x="4955" y="122.5" width="100" height="30" as="geometry" />
        </mxCell>
        <mxCell id="Y0dgIXWkeP1vq-oA4fCF-352" value="" style="endArrow=classic;html=1;rounded=0;strokeWidth=3;strokeColor=#FF1100;exitX=1;exitY=0.25;exitDx=0;exitDy=0;" edge="1" parent="1" source="Y0dgIXWkeP1vq-oA4fCF-353">
          <mxGeometry width="50" height="50" relative="1" as="geometry">
            <mxPoint x="4995" y="475" as="sourcePoint" />
            <mxPoint x="5055" y="345" as="targetPoint" />
          </mxGeometry>
        </mxCell>
        <mxCell id="Y0dgIXWkeP1vq-oA4fCF-353" value="&lt;font color=&quot;#ff1100&quot;&gt;&lt;span style=&quot;font-size: 14px;&quot;&gt;&lt;b&gt;Voltage to zero&lt;/b&gt;&lt;/span&gt;&lt;/font&gt;&lt;div&gt;&lt;font color=&quot;#ff1100&quot;&gt;&lt;span style=&quot;font-size: 14px;&quot;&gt;&lt;b&gt;Current to zero&lt;/b&gt;&lt;/span&gt;&lt;/font&gt;&lt;/div&gt;" style="text;html=1;align=center;verticalAlign=middle;whiteSpace=wrap;rounded=0;" vertex="1" parent="1">
          <mxGeometry x="4860" y="355" width="130" height="30" as="geometry" />
        </mxCell>
        <mxCell id="Y0dgIXWkeP1vq-oA4fCF-354" value="" style="endArrow=classic;html=1;rounded=0;strokeWidth=3;strokeColor=#FF1100;exitX=0.5;exitY=1;exitDx=0;exitDy=0;entryX=0.413;entryY=-0.025;entryDx=0;entryDy=0;entryPerimeter=0;" edge="1" parent="1" source="Y0dgIXWkeP1vq-oA4fCF-355" target="Y0dgIXWkeP1vq-oA4fCF-300">
          <mxGeometry width="50" height="50" relative="1" as="geometry">
            <mxPoint x="5260" y="-5" as="sourcePoint" />
            <mxPoint x="5320" y="-135" as="targetPoint" />
          </mxGeometry>
        </mxCell>
        <mxCell id="Y0dgIXWkeP1vq-oA4fCF-355" value="&lt;font color=&quot;#ff1100&quot;&gt;&lt;span style=&quot;font-size: 14px;&quot;&gt;&lt;b&gt;Voltage to zero&lt;/b&gt;&lt;/span&gt;&lt;/font&gt;&lt;div&gt;&lt;font color=&quot;#ff1100&quot;&gt;&lt;span style=&quot;font-size: 14px;&quot;&gt;&lt;b&gt;Current to zero&lt;/b&gt;&lt;/span&gt;&lt;/font&gt;&lt;/div&gt;" style="text;html=1;align=center;verticalAlign=middle;whiteSpace=wrap;rounded=0;" vertex="1" parent="1">
          <mxGeometry x="5200" y="-30" width="145" height="30" as="geometry" />
        </mxCell>
        <mxCell id="Y0dgIXWkeP1vq-oA4fCF-356" value="&lt;font color=&quot;#ff1100&quot;&gt;&lt;span style=&quot;font-size: 14px;&quot;&gt;&lt;b&gt;No HE out&lt;/b&gt;&lt;/span&gt;&lt;/font&gt;" style="text;html=1;align=center;verticalAlign=middle;whiteSpace=wrap;rounded=0;" vertex="1" parent="1">
          <mxGeometry x="5560" y="280" width="130" height="30" as="geometry" />
        </mxCell>
        <mxCell id="Y0dgIXWkeP1vq-oA4fCF-357" value="" style="rounded=0;whiteSpace=wrap;html=1;strokeColor=#FF1100;strokeWidth=3;fillColor=none;" vertex="1" parent="1">
          <mxGeometry x="5205" y="280" width="355" height="150" as="geometry" />
        </mxCell>
        <mxCell id="Y0dgIXWkeP1vq-oA4fCF-358" value="" style="endArrow=classic;html=1;rounded=0;strokeWidth=3;strokeColor=#FF1100;exitX=0.5;exitY=1;exitDx=0;exitDy=0;entryX=1;entryY=0.5;entryDx=0;entryDy=0;" edge="1" parent="1" source="Y0dgIXWkeP1vq-oA4fCF-356" target="Y0dgIXWkeP1vq-oA4fCF-357">
          <mxGeometry width="50" height="50" relative="1" as="geometry">
            <mxPoint x="5635" y="362" as="sourcePoint" />
            <mxPoint x="5640" y="415" as="targetPoint" />
          </mxGeometry>
        </mxCell>
        <mxCell id="Y0dgIXWkeP1vq-oA4fCF-360" value="&lt;font color=&quot;#ff1100&quot;&gt;&lt;span style=&quot;font-size: 14px;&quot;&gt;&lt;b&gt;Current draw goes to zero due to no input voltage&lt;/b&gt;&lt;/span&gt;&lt;/font&gt;" style="text;html=1;align=center;verticalAlign=middle;whiteSpace=wrap;rounded=0;" vertex="1" parent="1">
          <mxGeometry x="5340" y="-20" width="145" height="30" as="geometry" />
        </mxCell>
        <mxCell id="Y0dgIXWkeP1vq-oA4fCF-361" value="" style="endArrow=classic;html=1;rounded=0;strokeWidth=3;strokeColor=#FF1100;exitX=0.423;exitY=1.239;exitDx=0;exitDy=0;entryX=0.095;entryY=-0.071;entryDx=0;entryDy=0;entryPerimeter=0;exitPerimeter=0;" edge="1" parent="1" source="Y0dgIXWkeP1vq-oA4fCF-360" target="Y0dgIXWkeP1vq-oA4fCF-337">
          <mxGeometry width="50" height="50" relative="1" as="geometry">
            <mxPoint x="5425" y="25" as="sourcePoint" />
            <mxPoint x="5430" y="78" as="targetPoint" />
          </mxGeometry>
        </mxCell>
        <mxCell id="Y0dgIXWkeP1vq-oA4fCF-362" value="&lt;b&gt;Analysis of Effects&lt;/b&gt;" style="text;html=1;align=center;verticalAlign=middle;whiteSpace=wrap;rounded=0;" vertex="1" parent="1">
          <mxGeometry x="640" y="45" width="150" height="30" as="geometry" />
        </mxCell>
        <mxCell id="Y0dgIXWkeP1vq-oA4fCF-363" value="&lt;b&gt;Analysis of Causes&lt;/b&gt;" style="text;html=1;align=center;verticalAlign=middle;whiteSpace=wrap;rounded=0;" vertex="1" parent="1">
          <mxGeometry x="620" y="600" width="150" height="30" as="geometry" />
        </mxCell>
        <mxCell id="Y0dgIXWkeP1vq-oA4fCF-364" value="new voltage" style="edgeStyle=orthogonalEdgeStyle;rounded=0;orthogonalLoop=1;jettySize=auto;html=1;exitX=0.5;exitY=1;exitDx=0;exitDy=0;entryX=0;entryY=0.5;entryDx=0;entryDy=0;startArrow=none;startFill=0;" edge="1" parent="1" source="Y0dgIXWkeP1vq-oA4fCF-365" target="Y0dgIXWkeP1vq-oA4fCF-367">
          <mxGeometry x="-0.04" relative="1" as="geometry">
            <mxPoint as="offset" />
          </mxGeometry>
        </mxCell>
        <mxCell id="Y0dgIXWkeP1vq-oA4fCF-365" value="Import EE&lt;div&gt;&amp;lt;Physical&amp;gt;&lt;br&gt;&lt;/div&gt;" style="rounded=0;whiteSpace=wrap;html=1;" vertex="1" parent="1">
          <mxGeometry x="1770" y="720" width="120" height="60" as="geometry" />
        </mxCell>
        <mxCell id="Y0dgIXWkeP1vq-oA4fCF-366" value="EE_1&lt;div&gt;&amp;lt;Power&amp;gt;&lt;br&gt;&lt;/div&gt;" style="ellipse;whiteSpace=wrap;html=1;aspect=fixed;" vertex="1" parent="1">
          <mxGeometry x="2000" y="600" width="80" height="80" as="geometry" />
        </mxCell>
        <mxCell id="Y0dgIXWkeP1vq-oA4fCF-367" value="EE_2&lt;div&gt;&amp;lt;Power&amp;gt;&lt;br&gt;&lt;/div&gt;" style="ellipse;whiteSpace=wrap;html=1;aspect=fixed;" vertex="1" parent="1">
          <mxGeometry x="1800" y="820" width="80" height="80" as="geometry" />
        </mxCell>
        <mxCell id="Y0dgIXWkeP1vq-oA4fCF-368" value="HE&lt;div&gt;&amp;lt;Heat&amp;gt;&lt;/div&gt;" style="ellipse;whiteSpace=wrap;html=1;aspect=fixed;" vertex="1" parent="1">
          <mxGeometry x="2110" y="890" width="80" height="80" as="geometry" />
        </mxCell>
        <mxCell id="Y0dgIXWkeP1vq-oA4fCF-369" value="Store EE&lt;div&gt;&amp;lt;Physical&amp;gt;&lt;br&gt;&lt;/div&gt;" style="rounded=0;whiteSpace=wrap;html=1;" vertex="1" parent="1">
          <mxGeometry x="1980" y="720" width="120" height="60" as="geometry" />
        </mxCell>
        <mxCell id="Y0dgIXWkeP1vq-oA4fCF-370" value="Modulate EE&lt;div&gt;&amp;lt;Physical, Logical&amp;gt;&lt;br&gt;&lt;/div&gt;" style="rounded=0;whiteSpace=wrap;html=1;" vertex="1" parent="1">
          <mxGeometry x="2170" y="720" width="120" height="60" as="geometry" />
        </mxCell>
        <mxCell id="Y0dgIXWkeP1vq-oA4fCF-371" value="new current (r)" style="edgeStyle=orthogonalEdgeStyle;rounded=0;orthogonalLoop=1;jettySize=auto;html=1;exitX=0;exitY=0.5;exitDx=0;exitDy=0;startArrow=classic;startFill=1;endArrow=none;endFill=0;" edge="1" parent="1" source="Y0dgIXWkeP1vq-oA4fCF-372" target="Y0dgIXWkeP1vq-oA4fCF-367">
          <mxGeometry relative="1" as="geometry" />
        </mxCell>
        <mxCell id="Y0dgIXWkeP1vq-oA4fCF-372" value="Convert EE to HE&lt;div&gt;&amp;lt;Physical&amp;gt;&lt;br&gt;&lt;/div&gt;" style="rounded=0;whiteSpace=wrap;html=1;" vertex="1" parent="1">
          <mxGeometry x="1980" y="830" width="120" height="60" as="geometry" />
        </mxCell>
        <mxCell id="Y0dgIXWkeP1vq-oA4fCF-373" value="EE_1_out&lt;div&gt;&amp;lt;Power&amp;gt;&lt;br&gt;&lt;/div&gt;" style="ellipse;whiteSpace=wrap;html=1;aspect=fixed;" vertex="1" parent="1">
          <mxGeometry x="2310" y="600" width="80" height="80" as="geometry" />
        </mxCell>
        <mxCell id="Y0dgIXWkeP1vq-oA4fCF-374" value="Export EE&lt;div&gt;&amp;lt;Physical&amp;gt;&lt;br&gt;&lt;/div&gt;" style="rounded=0;whiteSpace=wrap;html=1;" vertex="1" parent="1">
          <mxGeometry x="2370" y="720" width="120" height="60" as="geometry" />
        </mxCell>
        <mxCell id="Y0dgIXWkeP1vq-oA4fCF-375" value="Export HE&lt;div&gt;&amp;lt;Physical&amp;gt;&lt;br&gt;&lt;/div&gt;" style="rounded=0;whiteSpace=wrap;html=1;" vertex="1" parent="1">
          <mxGeometry x="2180" y="830" width="120" height="60" as="geometry" />
        </mxCell>
        <mxCell id="Y0dgIXWkeP1vq-oA4fCF-376" value="&lt;b&gt;ED&lt;/b&gt;" style="rounded=0;whiteSpace=wrap;html=1;" vertex="1" parent="1">
          <mxGeometry x="2280" y="870" width="20" height="20" as="geometry" />
        </mxCell>
        <mxCell id="Y0dgIXWkeP1vq-oA4fCF-377" value="&lt;b&gt;IS&lt;/b&gt;" style="rounded=0;whiteSpace=wrap;html=1;" vertex="1" parent="1">
          <mxGeometry x="2080" y="870" width="20" height="20" as="geometry" />
        </mxCell>
        <mxCell id="Y0dgIXWkeP1vq-oA4fCF-378" value="&lt;b&gt;IR&lt;/b&gt;" style="rounded=0;whiteSpace=wrap;html=1;" vertex="1" parent="1">
          <mxGeometry x="2470" y="760" width="20" height="20" as="geometry" />
        </mxCell>
        <mxCell id="Y0dgIXWkeP1vq-oA4fCF-379" value="&lt;b&gt;IR&lt;/b&gt;" style="rounded=0;whiteSpace=wrap;html=1;" vertex="1" parent="1">
          <mxGeometry x="2270" y="760" width="20" height="20" as="geometry" />
        </mxCell>
        <mxCell id="Y0dgIXWkeP1vq-oA4fCF-380" value="&lt;b&gt;IR&lt;/b&gt;" style="rounded=0;whiteSpace=wrap;html=1;" vertex="1" parent="1">
          <mxGeometry x="2080" y="760" width="20" height="20" as="geometry" />
        </mxCell>
        <mxCell id="Y0dgIXWkeP1vq-oA4fCF-381" value="&lt;b&gt;IR&lt;/b&gt;" style="rounded=0;whiteSpace=wrap;html=1;" vertex="1" parent="1">
          <mxGeometry x="1870" y="760" width="20" height="20" as="geometry" />
        </mxCell>
        <mxCell id="Y0dgIXWkeP1vq-oA4fCF-382" value="" style="group" vertex="1" connectable="0" parent="1">
          <mxGeometry x="1770" y="720" width="40" height="20" as="geometry" />
        </mxCell>
        <mxCell id="Y0dgIXWkeP1vq-oA4fCF-383" value="s::e" style="shape=offPageConnector;whiteSpace=wrap;html=1;" vertex="1" parent="Y0dgIXWkeP1vq-oA4fCF-382">
          <mxGeometry width="40" height="20" as="geometry" />
        </mxCell>
        <mxCell id="Y0dgIXWkeP1vq-oA4fCF-384" style="edgeStyle=orthogonalEdgeStyle;rounded=0;orthogonalLoop=1;jettySize=auto;html=1;exitX=0;exitY=0;exitDx=0;exitDy=0;entryX=0.75;entryY=0;entryDx=0;entryDy=0;startArrow=baseDash;startFill=0;" edge="1" parent="Y0dgIXWkeP1vq-oA4fCF-382">
          <mxGeometry relative="1" as="geometry">
            <mxPoint x="22.5" as="targetPoint" />
            <Array as="points" />
            <mxPoint as="sourcePoint" />
          </mxGeometry>
        </mxCell>
        <mxCell id="Y0dgIXWkeP1vq-oA4fCF-385" value="new current (r)" style="edgeStyle=orthogonalEdgeStyle;rounded=0;orthogonalLoop=1;jettySize=auto;html=1;exitX=0.5;exitY=0;exitDx=0;exitDy=0;startArrow=classic;startFill=1;entryX=0.5;entryY=1;entryDx=0;entryDy=0;endArrow=none;endFill=0;" edge="1" parent="1" source="Y0dgIXWkeP1vq-oA4fCF-369" target="Y0dgIXWkeP1vq-oA4fCF-366">
          <mxGeometry x="0.4" relative="1" as="geometry">
            <mxPoint x="2000" y="880" as="sourcePoint" />
            <mxPoint x="1960" y="660" as="targetPoint" />
            <mxPoint as="offset" />
          </mxGeometry>
        </mxCell>
        <mxCell id="Y0dgIXWkeP1vq-oA4fCF-386" value="new voltage" style="edgeStyle=orthogonalEdgeStyle;rounded=0;orthogonalLoop=1;jettySize=auto;html=1;entryX=0.5;entryY=0;entryDx=0;entryDy=0;startArrow=classic;startFill=1;exitX=0;exitY=0.5;exitDx=0;exitDy=0;endArrow=none;endFill=0;" edge="1" parent="1" source="Y0dgIXWkeP1vq-oA4fCF-366" target="Y0dgIXWkeP1vq-oA4fCF-365">
          <mxGeometry x="-0.0667" relative="1" as="geometry">
            <mxPoint x="2100" y="630" as="sourcePoint" />
            <mxPoint x="1840" y="650" as="targetPoint" />
            <mxPoint as="offset" />
          </mxGeometry>
        </mxCell>
        <mxCell id="Y0dgIXWkeP1vq-oA4fCF-387" value="new current (r)" style="edgeStyle=orthogonalEdgeStyle;rounded=0;orthogonalLoop=1;jettySize=auto;html=1;startArrow=classic;startFill=1;entryX=1;entryY=0.5;entryDx=0;entryDy=0;exitX=0.25;exitY=0;exitDx=0;exitDy=0;endArrow=none;endFill=0;" edge="1" parent="1" source="Y0dgIXWkeP1vq-oA4fCF-370" target="Y0dgIXWkeP1vq-oA4fCF-366">
          <mxGeometry relative="1" as="geometry">
            <mxPoint x="2155" y="739.5" as="sourcePoint" />
            <mxPoint x="2100" y="650" as="targetPoint" />
          </mxGeometry>
        </mxCell>
        <mxCell id="Y0dgIXWkeP1vq-oA4fCF-388" value="new voltage" style="edgeStyle=orthogonalEdgeStyle;rounded=0;orthogonalLoop=1;jettySize=auto;html=1;entryX=0.75;entryY=0;entryDx=0;entryDy=0;startArrow=classic;startFill=1;exitX=0;exitY=0.5;exitDx=0;exitDy=0;endArrow=none;endFill=0;" edge="1" parent="1" source="Y0dgIXWkeP1vq-oA4fCF-373" target="Y0dgIXWkeP1vq-oA4fCF-370">
          <mxGeometry x="0.3846" relative="1" as="geometry">
            <mxPoint x="2450" y="520" as="sourcePoint" />
            <mxPoint x="2280" y="600" as="targetPoint" />
            <mxPoint as="offset" />
          </mxGeometry>
        </mxCell>
        <mxCell id="Y0dgIXWkeP1vq-oA4fCF-389" value="new current (r)" style="edgeStyle=orthogonalEdgeStyle;rounded=0;orthogonalLoop=1;jettySize=auto;html=1;startArrow=classic;startFill=1;entryX=1;entryY=0.5;entryDx=0;entryDy=0;exitX=0.5;exitY=0;exitDx=0;exitDy=0;endArrow=none;endFill=0;" edge="1" parent="1" source="Y0dgIXWkeP1vq-oA4fCF-374" target="Y0dgIXWkeP1vq-oA4fCF-373">
          <mxGeometry x="-0.3333" relative="1" as="geometry">
            <mxPoint x="2600" y="650" as="sourcePoint" />
            <mxPoint x="2480" y="570" as="targetPoint" />
            <mxPoint as="offset" />
          </mxGeometry>
        </mxCell>
        <mxCell id="Y0dgIXWkeP1vq-oA4fCF-390" value="new heat" style="edgeStyle=orthogonalEdgeStyle;rounded=0;orthogonalLoop=1;jettySize=auto;html=1;startArrow=classic;startFill=1;entryX=0.5;entryY=1;entryDx=0;entryDy=0;exitX=0;exitY=0.5;exitDx=0;exitDy=0;endArrow=none;endFill=0;" edge="1" parent="1" source="Y0dgIXWkeP1vq-oA4fCF-368" target="Y0dgIXWkeP1vq-oA4fCF-372">
          <mxGeometry relative="1" as="geometry">
            <mxPoint x="2150" y="1030" as="sourcePoint" />
            <mxPoint x="2030" y="950" as="targetPoint" />
          </mxGeometry>
        </mxCell>
        <mxCell id="Y0dgIXWkeP1vq-oA4fCF-391" value="new heat" style="edgeStyle=orthogonalEdgeStyle;rounded=0;orthogonalLoop=1;jettySize=auto;html=1;startArrow=classic;startFill=1;entryX=1;entryY=0.5;entryDx=0;entryDy=0;exitX=0.5;exitY=1;exitDx=0;exitDy=0;endArrow=none;endFill=0;" edge="1" parent="1" source="Y0dgIXWkeP1vq-oA4fCF-375" target="Y0dgIXWkeP1vq-oA4fCF-368">
          <mxGeometry relative="1" as="geometry">
            <mxPoint x="2400" y="1000" as="sourcePoint" />
            <mxPoint x="2280" y="920" as="targetPoint" />
          </mxGeometry>
        </mxCell>
        <mxCell id="Y0dgIXWkeP1vq-oA4fCF-392" style="edgeStyle=orthogonalEdgeStyle;rounded=0;orthogonalLoop=1;jettySize=auto;html=1;entryX=1;entryY=0;entryDx=0;entryDy=0;endArrow=ERoneToMany;endFill=0;" edge="1" parent="1" target="Y0dgIXWkeP1vq-oA4fCF-383">
          <mxGeometry relative="1" as="geometry">
            <mxPoint x="1815.5" y="719.39" as="targetPoint" />
            <Array as="points">
              <mxPoint x="1770" y="719" />
              <mxPoint x="1785" y="719" />
            </Array>
            <mxPoint x="1770" y="722" as="sourcePoint" />
          </mxGeometry>
        </mxCell>
        <mxCell id="Y0dgIXWkeP1vq-oA4fCF-393" value="" style="group" vertex="1" connectable="0" parent="1">
          <mxGeometry x="1980" y="720" width="50" height="20" as="geometry" />
        </mxCell>
        <mxCell id="Y0dgIXWkeP1vq-oA4fCF-394" value="i:1m:i" style="shape=offPageConnector;whiteSpace=wrap;html=1;" vertex="1" parent="Y0dgIXWkeP1vq-oA4fCF-393">
          <mxGeometry width="37.5" height="20" as="geometry" />
        </mxCell>
        <mxCell id="Y0dgIXWkeP1vq-oA4fCF-395" value="" style="group" vertex="1" connectable="0" parent="1">
          <mxGeometry x="2170" y="720" width="40" height="20" as="geometry" />
        </mxCell>
        <mxCell id="Y0dgIXWkeP1vq-oA4fCF-396" value="i:1s:i" style="shape=offPageConnector;whiteSpace=wrap;html=1;" vertex="1" parent="Y0dgIXWkeP1vq-oA4fCF-395">
          <mxGeometry width="30" height="20" as="geometry" />
        </mxCell>
        <mxCell id="Y0dgIXWkeP1vq-oA4fCF-397" value="" style="group" vertex="1" connectable="0" parent="1">
          <mxGeometry x="2370" y="720" width="40" height="20" as="geometry" />
        </mxCell>
        <mxCell id="Y0dgIXWkeP1vq-oA4fCF-398" value="i::i" style="shape=offPageConnector;whiteSpace=wrap;html=1;" vertex="1" parent="Y0dgIXWkeP1vq-oA4fCF-397">
          <mxGeometry width="30" height="20" as="geometry" />
        </mxCell>
        <mxCell id="Y0dgIXWkeP1vq-oA4fCF-399" value="" style="group" vertex="1" connectable="0" parent="1">
          <mxGeometry x="1980" y="830" width="40" height="20" as="geometry" />
        </mxCell>
        <mxCell id="Y0dgIXWkeP1vq-oA4fCF-400" value="i::i" style="shape=offPageConnector;whiteSpace=wrap;html=1;" vertex="1" parent="Y0dgIXWkeP1vq-oA4fCF-399">
          <mxGeometry width="30" height="20" as="geometry" />
        </mxCell>
        <mxCell id="Y0dgIXWkeP1vq-oA4fCF-401" value="" style="group" vertex="1" connectable="0" parent="1">
          <mxGeometry x="2180" y="830" width="40" height="20" as="geometry" />
        </mxCell>
        <mxCell id="Y0dgIXWkeP1vq-oA4fCF-402" value="i::i" style="shape=offPageConnector;whiteSpace=wrap;html=1;" vertex="1" parent="Y0dgIXWkeP1vq-oA4fCF-401">
          <mxGeometry width="30" height="20" as="geometry" />
        </mxCell>
        <mxCell id="Y0dgIXWkeP1vq-oA4fCF-403" value="" style="rounded=0;whiteSpace=wrap;html=1;strokeColor=#999999;strokeWidth=3;fillColor=none;" vertex="1" parent="1">
          <mxGeometry x="2160" y="710" width="140" height="80" as="geometry" />
        </mxCell>
        <mxCell id="Y0dgIXWkeP1vq-oA4fCF-404" value="&lt;b&gt;&lt;font style=&quot;font-size: 14px;&quot;&gt;Fault Scenario: Electrical Short&lt;/font&gt;&lt;/b&gt;&lt;div&gt;&lt;b&gt;&lt;font style=&quot;font-size: 14px;&quot;&gt;High current draw while voltage output goes to zero.&lt;/font&gt;&lt;/b&gt;&lt;/div&gt;" style="text;html=1;align=center;verticalAlign=middle;whiteSpace=wrap;rounded=0;fontColor=#999999;" vertex="1" parent="1">
          <mxGeometry x="2100" y="570" width="210" height="70" as="geometry" />
        </mxCell>
        <mxCell id="Y0dgIXWkeP1vq-oA4fCF-405" value="" style="endArrow=classic;html=1;rounded=0;strokeWidth=3;strokeColor=#999999;exitX=0.505;exitY=1.1;exitDx=0;exitDy=0;exitPerimeter=0;" edge="1" parent="1" source="Y0dgIXWkeP1vq-oA4fCF-404">
          <mxGeometry width="50" height="50" relative="1" as="geometry">
            <mxPoint x="2200" y="630" as="sourcePoint" />
            <mxPoint x="2230" y="710" as="targetPoint" />
          </mxGeometry>
        </mxCell>
        <mxCell id="Y0dgIXWkeP1vq-oA4fCF-406" value="&lt;font color=&quot;#ff1100&quot;&gt;&lt;span style=&quot;font-size: 14px;&quot;&gt;&lt;b&gt;Too high voltage input (causing overheating)&lt;/b&gt;&lt;/span&gt;&lt;/font&gt;" style="text;html=1;align=center;verticalAlign=middle;whiteSpace=wrap;rounded=0;" vertex="1" parent="1">
          <mxGeometry x="1820" y="560" width="160" height="30" as="geometry" />
        </mxCell>
        <mxCell id="Y0dgIXWkeP1vq-oA4fCF-408" value="" style="endArrow=classic;html=1;rounded=0;strokeWidth=3;strokeColor=#FF1100;entryX=0;entryY=0.25;entryDx=0;entryDy=0;entryPerimeter=0;" edge="1" parent="1" target="Y0dgIXWkeP1vq-oA4fCF-366">
          <mxGeometry width="50" height="50" relative="1" as="geometry">
            <mxPoint x="1920" y="600" as="sourcePoint" />
            <mxPoint x="1980" y="670" as="targetPoint" />
          </mxGeometry>
        </mxCell>
        <mxCell id="Y0dgIXWkeP1vq-oA4fCF-83" value="" style="rounded=0;whiteSpace=wrap;html=1;strokeColor=#FF1100;strokeWidth=3;fillColor=none;" vertex="1" parent="1">
          <mxGeometry x="2800" y="695" width="140" height="75" as="geometry" />
        </mxCell>
        <mxCell id="Y0dgIXWkeP1vq-oA4fCF-410" value="new voltage" style="edgeStyle=orthogonalEdgeStyle;rounded=0;orthogonalLoop=1;jettySize=auto;html=1;exitX=0.5;exitY=1;exitDx=0;exitDy=0;entryX=0;entryY=0.5;entryDx=0;entryDy=0;startArrow=none;startFill=0;" edge="1" parent="1" source="Y0dgIXWkeP1vq-oA4fCF-411" target="Y0dgIXWkeP1vq-oA4fCF-413">
          <mxGeometry x="-0.04" relative="1" as="geometry">
            <mxPoint as="offset" />
          </mxGeometry>
        </mxCell>
        <mxCell id="Y0dgIXWkeP1vq-oA4fCF-411" value="Import EE&lt;div&gt;&amp;lt;Physical&amp;gt;&lt;br&gt;&lt;/div&gt;" style="rounded=0;whiteSpace=wrap;html=1;" vertex="1" parent="1">
          <mxGeometry x="2810.0299999999997" y="700" width="120" height="60" as="geometry" />
        </mxCell>
        <mxCell id="Y0dgIXWkeP1vq-oA4fCF-412" value="EE_1&lt;div&gt;&amp;lt;Power&amp;gt;&lt;br&gt;&lt;/div&gt;" style="ellipse;whiteSpace=wrap;html=1;aspect=fixed;" vertex="1" parent="1">
          <mxGeometry x="3040.0299999999997" y="580" width="80" height="80" as="geometry" />
        </mxCell>
        <mxCell id="Y0dgIXWkeP1vq-oA4fCF-413" value="EE_2&lt;div&gt;&amp;lt;Power&amp;gt;&lt;br&gt;&lt;/div&gt;" style="ellipse;whiteSpace=wrap;html=1;aspect=fixed;" vertex="1" parent="1">
          <mxGeometry x="2840.0299999999997" y="800" width="80" height="80" as="geometry" />
        </mxCell>
        <mxCell id="Y0dgIXWkeP1vq-oA4fCF-414" value="HE&lt;div&gt;&amp;lt;Heat&amp;gt;&lt;/div&gt;" style="ellipse;whiteSpace=wrap;html=1;aspect=fixed;" vertex="1" parent="1">
          <mxGeometry x="3150.0299999999997" y="870" width="80" height="80" as="geometry" />
        </mxCell>
        <mxCell id="Y0dgIXWkeP1vq-oA4fCF-415" value="Store EE&lt;div&gt;&amp;lt;Physical&amp;gt;&lt;br&gt;&lt;/div&gt;" style="rounded=0;whiteSpace=wrap;html=1;" vertex="1" parent="1">
          <mxGeometry x="3020.0299999999997" y="700" width="120" height="60" as="geometry" />
        </mxCell>
        <mxCell id="Y0dgIXWkeP1vq-oA4fCF-416" value="Modulate EE&lt;div&gt;&amp;lt;Physical, Logical&amp;gt;&lt;br&gt;&lt;/div&gt;" style="rounded=0;whiteSpace=wrap;html=1;" vertex="1" parent="1">
          <mxGeometry x="3210.0299999999997" y="700" width="120" height="60" as="geometry" />
        </mxCell>
        <mxCell id="Y0dgIXWkeP1vq-oA4fCF-417" value="new current (r)" style="edgeStyle=orthogonalEdgeStyle;rounded=0;orthogonalLoop=1;jettySize=auto;html=1;exitX=0;exitY=0.5;exitDx=0;exitDy=0;startArrow=classic;startFill=1;endArrow=none;endFill=0;" edge="1" parent="1" source="Y0dgIXWkeP1vq-oA4fCF-418" target="Y0dgIXWkeP1vq-oA4fCF-413">
          <mxGeometry relative="1" as="geometry" />
        </mxCell>
        <mxCell id="Y0dgIXWkeP1vq-oA4fCF-418" value="Convert EE to HE&lt;div&gt;&amp;lt;Physical&amp;gt;&lt;br&gt;&lt;/div&gt;" style="rounded=0;whiteSpace=wrap;html=1;" vertex="1" parent="1">
          <mxGeometry x="3020.0299999999997" y="810" width="120" height="60" as="geometry" />
        </mxCell>
        <mxCell id="Y0dgIXWkeP1vq-oA4fCF-419" value="EE_1_out&lt;div&gt;&amp;lt;Power&amp;gt;&lt;br&gt;&lt;/div&gt;" style="ellipse;whiteSpace=wrap;html=1;aspect=fixed;" vertex="1" parent="1">
          <mxGeometry x="3350.0299999999997" y="580" width="80" height="80" as="geometry" />
        </mxCell>
        <mxCell id="Y0dgIXWkeP1vq-oA4fCF-420" value="Export EE&lt;div&gt;&amp;lt;Physical&amp;gt;&lt;br&gt;&lt;/div&gt;" style="rounded=0;whiteSpace=wrap;html=1;" vertex="1" parent="1">
          <mxGeometry x="3410.0299999999997" y="700" width="120" height="60" as="geometry" />
        </mxCell>
        <mxCell id="Y0dgIXWkeP1vq-oA4fCF-421" value="Export HE&lt;div&gt;&amp;lt;Physical&amp;gt;&lt;br&gt;&lt;/div&gt;" style="rounded=0;whiteSpace=wrap;html=1;" vertex="1" parent="1">
          <mxGeometry x="3220.0299999999997" y="810" width="120" height="60" as="geometry" />
        </mxCell>
        <mxCell id="Y0dgIXWkeP1vq-oA4fCF-422" value="&lt;b&gt;ED&lt;/b&gt;" style="rounded=0;whiteSpace=wrap;html=1;" vertex="1" parent="1">
          <mxGeometry x="3320.0299999999997" y="850" width="20" height="20" as="geometry" />
        </mxCell>
        <mxCell id="Y0dgIXWkeP1vq-oA4fCF-423" value="&lt;b&gt;IS&lt;/b&gt;" style="rounded=0;whiteSpace=wrap;html=1;" vertex="1" parent="1">
          <mxGeometry x="3120.0299999999997" y="850" width="20" height="20" as="geometry" />
        </mxCell>
        <mxCell id="Y0dgIXWkeP1vq-oA4fCF-424" value="&lt;b&gt;IR&lt;/b&gt;" style="rounded=0;whiteSpace=wrap;html=1;" vertex="1" parent="1">
          <mxGeometry x="3510.0299999999997" y="740" width="20" height="20" as="geometry" />
        </mxCell>
        <mxCell id="Y0dgIXWkeP1vq-oA4fCF-425" value="&lt;b&gt;IR&lt;/b&gt;" style="rounded=0;whiteSpace=wrap;html=1;" vertex="1" parent="1">
          <mxGeometry x="3310.0299999999997" y="740" width="20" height="20" as="geometry" />
        </mxCell>
        <mxCell id="Y0dgIXWkeP1vq-oA4fCF-426" value="&lt;b&gt;IR&lt;/b&gt;" style="rounded=0;whiteSpace=wrap;html=1;" vertex="1" parent="1">
          <mxGeometry x="3120.0299999999997" y="740" width="20" height="20" as="geometry" />
        </mxCell>
        <mxCell id="Y0dgIXWkeP1vq-oA4fCF-427" value="&lt;b&gt;IR&lt;/b&gt;" style="rounded=0;whiteSpace=wrap;html=1;" vertex="1" parent="1">
          <mxGeometry x="2910.0299999999997" y="740" width="20" height="20" as="geometry" />
        </mxCell>
        <mxCell id="Y0dgIXWkeP1vq-oA4fCF-428" value="" style="group" vertex="1" connectable="0" parent="1">
          <mxGeometry x="2810.0299999999997" y="700" width="40" height="20" as="geometry" />
        </mxCell>
        <mxCell id="Y0dgIXWkeP1vq-oA4fCF-429" value="s::e" style="shape=offPageConnector;whiteSpace=wrap;html=1;" vertex="1" parent="Y0dgIXWkeP1vq-oA4fCF-428">
          <mxGeometry width="40" height="20" as="geometry" />
        </mxCell>
        <mxCell id="Y0dgIXWkeP1vq-oA4fCF-430" style="edgeStyle=orthogonalEdgeStyle;rounded=0;orthogonalLoop=1;jettySize=auto;html=1;exitX=0;exitY=0;exitDx=0;exitDy=0;entryX=0.75;entryY=0;entryDx=0;entryDy=0;startArrow=baseDash;startFill=0;" edge="1" parent="Y0dgIXWkeP1vq-oA4fCF-428">
          <mxGeometry relative="1" as="geometry">
            <mxPoint x="22.5" as="targetPoint" />
            <Array as="points" />
            <mxPoint as="sourcePoint" />
          </mxGeometry>
        </mxCell>
        <mxCell id="Y0dgIXWkeP1vq-oA4fCF-431" value="new current (r)" style="edgeStyle=orthogonalEdgeStyle;rounded=0;orthogonalLoop=1;jettySize=auto;html=1;exitX=0.5;exitY=0;exitDx=0;exitDy=0;startArrow=classic;startFill=1;entryX=0.5;entryY=1;entryDx=0;entryDy=0;endArrow=none;endFill=0;" edge="1" parent="1" source="Y0dgIXWkeP1vq-oA4fCF-415" target="Y0dgIXWkeP1vq-oA4fCF-412">
          <mxGeometry x="0.4" relative="1" as="geometry">
            <mxPoint x="3040.0299999999997" y="860" as="sourcePoint" />
            <mxPoint x="3000.0299999999997" y="640" as="targetPoint" />
            <mxPoint as="offset" />
          </mxGeometry>
        </mxCell>
        <mxCell id="Y0dgIXWkeP1vq-oA4fCF-432" value="new voltage" style="edgeStyle=orthogonalEdgeStyle;rounded=0;orthogonalLoop=1;jettySize=auto;html=1;entryX=0.5;entryY=0;entryDx=0;entryDy=0;startArrow=classic;startFill=1;exitX=0;exitY=0.5;exitDx=0;exitDy=0;endArrow=none;endFill=0;" edge="1" parent="1" source="Y0dgIXWkeP1vq-oA4fCF-412" target="Y0dgIXWkeP1vq-oA4fCF-411">
          <mxGeometry x="-0.0667" relative="1" as="geometry">
            <mxPoint x="3140.0299999999997" y="610" as="sourcePoint" />
            <mxPoint x="2880.0299999999997" y="630" as="targetPoint" />
            <mxPoint as="offset" />
          </mxGeometry>
        </mxCell>
        <mxCell id="Y0dgIXWkeP1vq-oA4fCF-433" value="new current (r)" style="edgeStyle=orthogonalEdgeStyle;rounded=0;orthogonalLoop=1;jettySize=auto;html=1;startArrow=classic;startFill=1;entryX=1;entryY=0.5;entryDx=0;entryDy=0;exitX=0.25;exitY=0;exitDx=0;exitDy=0;endArrow=none;endFill=0;" edge="1" parent="1" source="Y0dgIXWkeP1vq-oA4fCF-416" target="Y0dgIXWkeP1vq-oA4fCF-412">
          <mxGeometry relative="1" as="geometry">
            <mxPoint x="3195.0299999999997" y="719.5" as="sourcePoint" />
            <mxPoint x="3140.0299999999997" y="630" as="targetPoint" />
          </mxGeometry>
        </mxCell>
        <mxCell id="Y0dgIXWkeP1vq-oA4fCF-434" value="new voltage" style="edgeStyle=orthogonalEdgeStyle;rounded=0;orthogonalLoop=1;jettySize=auto;html=1;entryX=0.75;entryY=0;entryDx=0;entryDy=0;startArrow=classic;startFill=1;exitX=0;exitY=0.5;exitDx=0;exitDy=0;endArrow=none;endFill=0;" edge="1" parent="1" source="Y0dgIXWkeP1vq-oA4fCF-419" target="Y0dgIXWkeP1vq-oA4fCF-416">
          <mxGeometry x="0.3846" relative="1" as="geometry">
            <mxPoint x="3490.0299999999997" y="500" as="sourcePoint" />
            <mxPoint x="3320.0299999999997" y="580" as="targetPoint" />
            <mxPoint as="offset" />
          </mxGeometry>
        </mxCell>
        <mxCell id="Y0dgIXWkeP1vq-oA4fCF-435" value="new current (r)" style="edgeStyle=orthogonalEdgeStyle;rounded=0;orthogonalLoop=1;jettySize=auto;html=1;startArrow=classic;startFill=1;entryX=1;entryY=0.5;entryDx=0;entryDy=0;exitX=0.5;exitY=0;exitDx=0;exitDy=0;endArrow=none;endFill=0;" edge="1" parent="1" source="Y0dgIXWkeP1vq-oA4fCF-420" target="Y0dgIXWkeP1vq-oA4fCF-419">
          <mxGeometry x="-0.3333" relative="1" as="geometry">
            <mxPoint x="3640.0299999999997" y="630" as="sourcePoint" />
            <mxPoint x="3520.0299999999997" y="550" as="targetPoint" />
            <mxPoint as="offset" />
          </mxGeometry>
        </mxCell>
        <mxCell id="Y0dgIXWkeP1vq-oA4fCF-436" value="new heat" style="edgeStyle=orthogonalEdgeStyle;rounded=0;orthogonalLoop=1;jettySize=auto;html=1;startArrow=classic;startFill=1;entryX=0.5;entryY=1;entryDx=0;entryDy=0;exitX=0;exitY=0.5;exitDx=0;exitDy=0;endArrow=none;endFill=0;" edge="1" parent="1" source="Y0dgIXWkeP1vq-oA4fCF-414" target="Y0dgIXWkeP1vq-oA4fCF-418">
          <mxGeometry relative="1" as="geometry">
            <mxPoint x="3190.0299999999997" y="1010" as="sourcePoint" />
            <mxPoint x="3070.0299999999997" y="930" as="targetPoint" />
          </mxGeometry>
        </mxCell>
        <mxCell id="Y0dgIXWkeP1vq-oA4fCF-437" value="new heat" style="edgeStyle=orthogonalEdgeStyle;rounded=0;orthogonalLoop=1;jettySize=auto;html=1;startArrow=classic;startFill=1;entryX=1;entryY=0.5;entryDx=0;entryDy=0;exitX=0.5;exitY=1;exitDx=0;exitDy=0;endArrow=none;endFill=0;" edge="1" parent="1" source="Y0dgIXWkeP1vq-oA4fCF-421" target="Y0dgIXWkeP1vq-oA4fCF-414">
          <mxGeometry relative="1" as="geometry">
            <mxPoint x="3440.0299999999997" y="980" as="sourcePoint" />
            <mxPoint x="3320.0299999999997" y="900" as="targetPoint" />
          </mxGeometry>
        </mxCell>
        <mxCell id="Y0dgIXWkeP1vq-oA4fCF-438" style="edgeStyle=orthogonalEdgeStyle;rounded=0;orthogonalLoop=1;jettySize=auto;html=1;entryX=1;entryY=0;entryDx=0;entryDy=0;endArrow=ERoneToMany;endFill=0;" edge="1" parent="1" target="Y0dgIXWkeP1vq-oA4fCF-429">
          <mxGeometry relative="1" as="geometry">
            <mxPoint x="2855.5299999999997" y="699.39" as="targetPoint" />
            <Array as="points">
              <mxPoint x="2810.0299999999997" y="699" />
              <mxPoint x="2825.0299999999997" y="699" />
            </Array>
            <mxPoint x="2810.0299999999997" y="702" as="sourcePoint" />
          </mxGeometry>
        </mxCell>
        <mxCell id="Y0dgIXWkeP1vq-oA4fCF-439" value="" style="group" vertex="1" connectable="0" parent="1">
          <mxGeometry x="3020.0299999999997" y="700" width="50" height="20" as="geometry" />
        </mxCell>
        <mxCell id="Y0dgIXWkeP1vq-oA4fCF-440" value="i:1m:i" style="shape=offPageConnector;whiteSpace=wrap;html=1;" vertex="1" parent="Y0dgIXWkeP1vq-oA4fCF-439">
          <mxGeometry width="37.5" height="20" as="geometry" />
        </mxCell>
        <mxCell id="Y0dgIXWkeP1vq-oA4fCF-441" value="" style="group" vertex="1" connectable="0" parent="1">
          <mxGeometry x="3210.0299999999997" y="700" width="40" height="20" as="geometry" />
        </mxCell>
        <mxCell id="Y0dgIXWkeP1vq-oA4fCF-442" value="i:1s:i" style="shape=offPageConnector;whiteSpace=wrap;html=1;" vertex="1" parent="Y0dgIXWkeP1vq-oA4fCF-441">
          <mxGeometry width="30" height="20" as="geometry" />
        </mxCell>
        <mxCell id="Y0dgIXWkeP1vq-oA4fCF-443" value="" style="group" vertex="1" connectable="0" parent="1">
          <mxGeometry x="3410.0299999999997" y="700" width="40" height="20" as="geometry" />
        </mxCell>
        <mxCell id="Y0dgIXWkeP1vq-oA4fCF-444" value="i::i" style="shape=offPageConnector;whiteSpace=wrap;html=1;" vertex="1" parent="Y0dgIXWkeP1vq-oA4fCF-443">
          <mxGeometry width="30" height="20" as="geometry" />
        </mxCell>
        <mxCell id="Y0dgIXWkeP1vq-oA4fCF-445" value="" style="group" vertex="1" connectable="0" parent="1">
          <mxGeometry x="3020.0299999999997" y="810" width="40" height="20" as="geometry" />
        </mxCell>
        <mxCell id="Y0dgIXWkeP1vq-oA4fCF-446" value="i::i" style="shape=offPageConnector;whiteSpace=wrap;html=1;" vertex="1" parent="Y0dgIXWkeP1vq-oA4fCF-445">
          <mxGeometry width="30" height="20" as="geometry" />
        </mxCell>
        <mxCell id="Y0dgIXWkeP1vq-oA4fCF-447" value="" style="group" vertex="1" connectable="0" parent="1">
          <mxGeometry x="3220.0299999999997" y="810" width="40" height="20" as="geometry" />
        </mxCell>
        <mxCell id="Y0dgIXWkeP1vq-oA4fCF-448" value="i::i" style="shape=offPageConnector;whiteSpace=wrap;html=1;" vertex="1" parent="Y0dgIXWkeP1vq-oA4fCF-447">
          <mxGeometry width="30" height="20" as="geometry" />
        </mxCell>
        <mxCell id="Y0dgIXWkeP1vq-oA4fCF-449" value="" style="rounded=0;whiteSpace=wrap;html=1;strokeColor=#999999;strokeWidth=3;fillColor=none;" vertex="1" parent="1">
          <mxGeometry x="3200.0299999999997" y="690" width="140" height="80" as="geometry" />
        </mxCell>
        <mxCell id="Y0dgIXWkeP1vq-oA4fCF-450" value="&lt;b&gt;&lt;font style=&quot;font-size: 14px;&quot;&gt;Fault Scenario: Electrical Short&lt;/font&gt;&lt;/b&gt;&lt;div&gt;&lt;b&gt;&lt;font style=&quot;font-size: 14px;&quot;&gt;High current draw while voltage output goes to zero.&lt;/font&gt;&lt;/b&gt;&lt;/div&gt;" style="text;html=1;align=center;verticalAlign=middle;whiteSpace=wrap;rounded=0;fontColor=#999999;" vertex="1" parent="1">
          <mxGeometry x="3140.0299999999997" y="550" width="210" height="70" as="geometry" />
        </mxCell>
        <mxCell id="Y0dgIXWkeP1vq-oA4fCF-451" value="" style="endArrow=classic;html=1;rounded=0;strokeWidth=3;strokeColor=#999999;exitX=0.505;exitY=1.1;exitDx=0;exitDy=0;exitPerimeter=0;" edge="1" parent="1" source="Y0dgIXWkeP1vq-oA4fCF-450">
          <mxGeometry width="50" height="50" relative="1" as="geometry">
            <mxPoint x="3240.0299999999997" y="610" as="sourcePoint" />
            <mxPoint x="3270.0299999999997" y="690" as="targetPoint" />
          </mxGeometry>
        </mxCell>
        <mxCell id="Y0dgIXWkeP1vq-oA4fCF-452" value="&lt;font&gt;&lt;span style=&quot;font-size: 14px;&quot;&gt;&lt;b&gt;Too high voltage input (causing overheating)&lt;/b&gt;&lt;/span&gt;&lt;/font&gt;" style="text;html=1;align=center;verticalAlign=middle;whiteSpace=wrap;rounded=0;fontColor=#999999;" vertex="1" parent="1">
          <mxGeometry x="2860.0299999999997" y="540" width="160" height="30" as="geometry" />
        </mxCell>
        <mxCell id="Y0dgIXWkeP1vq-oA4fCF-453" value="" style="endArrow=classic;html=1;rounded=0;strokeWidth=3;strokeColor=#999999;entryX=0;entryY=0.25;entryDx=0;entryDy=0;entryPerimeter=0;" edge="1" parent="1" target="Y0dgIXWkeP1vq-oA4fCF-412">
          <mxGeometry width="50" height="50" relative="1" as="geometry">
            <mxPoint x="2960.0299999999997" y="580" as="sourcePoint" />
            <mxPoint x="3020.0299999999997" y="650" as="targetPoint" />
          </mxGeometry>
        </mxCell>
        <mxCell id="Y0dgIXWkeP1vq-oA4fCF-454" value="" style="rounded=0;whiteSpace=wrap;html=1;strokeColor=#FF1100;strokeWidth=3;fillColor=none;" vertex="1" parent="1">
          <mxGeometry x="3010.03" y="695" width="140" height="75" as="geometry" />
        </mxCell>
        <mxCell id="Y0dgIXWkeP1vq-oA4fCF-455" value="&lt;font color=&quot;#ff1100&quot;&gt;&lt;span style=&quot;font-size: 14px;&quot;&gt;&lt;b&gt;Voltage provided too high&lt;/b&gt;&lt;/span&gt;&lt;/font&gt;" style="text;html=1;align=center;verticalAlign=middle;whiteSpace=wrap;rounded=0;" vertex="1" parent="1">
          <mxGeometry x="2680.0299999999997" y="620" width="160" height="30" as="geometry" />
        </mxCell>
        <mxCell id="Y0dgIXWkeP1vq-oA4fCF-456" value="&lt;font color=&quot;#ff1100&quot;&gt;&lt;span style=&quot;font-size: 14px;&quot;&gt;&lt;b&gt;Stored voltage provided too high&lt;/b&gt;&lt;/span&gt;&lt;/font&gt;" style="text;html=1;align=center;verticalAlign=middle;whiteSpace=wrap;rounded=0;" vertex="1" parent="1">
          <mxGeometry x="3170" y="770" width="130" height="30" as="geometry" />
        </mxCell>
        <mxCell id="Y0dgIXWkeP1vq-oA4fCF-457" value="" style="endArrow=classic;html=1;rounded=0;strokeWidth=3;strokeColor=#FF1100;entryX=0.88;entryY=1.046;entryDx=0;entryDy=0;entryPerimeter=0;exitX=0;exitY=0.5;exitDx=0;exitDy=0;" edge="1" parent="1" source="Y0dgIXWkeP1vq-oA4fCF-456" target="Y0dgIXWkeP1vq-oA4fCF-454">
          <mxGeometry width="50" height="50" relative="1" as="geometry">
            <mxPoint x="2853.03" y="900" as="sourcePoint" />
            <mxPoint x="2910.03" y="933" as="targetPoint" />
          </mxGeometry>
        </mxCell>
      </root>
    </mxGraphModel>
  </diagram>
</mxfile>
